<svg width="129" height="64" viewBox="0 0 129 64" fill="none" xmlns="http://www.w3.org/2000/svg"><path fill-rule="evenodd" clip-rule="evenodd" d="M84.5975 30.8543C83.9523 30.8543 83.3953 30.7139 82.9264 30.4332C82.4605 30.1524 82.1006 29.7597 81.8467 29.2549C81.5959 28.7502 81.4704 28.1633 81.4704 27.4943C81.4704 26.8253 81.5959 26.2384 81.8467 25.7336C82.1006 25.2289 82.4605 24.8361 82.9264 24.5554C83.3953 24.2747 83.9523 24.1343 84.5975 24.1343C85.2426 24.1343 85.7981 24.2747 86.264 24.5554C86.7329 24.8361 87.0928 25.2289 87.3437 25.7336C87.5976 26.2384 87.7245 26.8253 87.7245 27.4943C87.7245 28.1633 87.5976 28.7502 87.3437 29.2549C87.0928 29.7597 86.7329 30.1524 86.264 30.4332C85.7981 30.7139 85.2426 30.8543 84.5975 30.8543ZM84.5975 29.7074C85.0066 29.7134 85.3471 29.6253 85.6189 29.4431C85.8907 29.2609 86.0938 29.0025 86.2282 28.668C86.3656 28.3335 86.4343 27.9423 86.4343 27.4943C86.4343 27.0463 86.3656 26.658 86.2282 26.3295C86.0938 26.0009 85.8907 25.7456 85.6189 25.5634C85.3471 25.3812 85.0066 25.2871 84.5975 25.2812C84.1883 25.2752 83.8478 25.3633 83.576 25.5455C83.3042 25.7277 83.0996 25.986 82.9623 26.3205C82.8279 26.655 82.7607 27.0463 82.7607 27.4943C82.7607 27.9423 82.8279 28.3305 82.9623 28.6591C83.0996 28.9876 83.3042 29.243 83.576 29.4252C83.8478 29.6073 84.1883 29.7014 84.5975 29.7074ZM90.498 24.2687L92.3885 30.7199H93.5892L94.8391 26.3653L96.089 30.7199H97.2896L99.1802 24.2687H97.8989L96.6893 28.7039L95.4797 24.2687L94.1984 24.2776L92.9888 28.7039L91.7792 24.2687H90.498ZM102.587 30.7199V24.2687H106.799V25.4066H103.806V26.7864H106.261V27.9243H103.806V29.5819H106.799V30.7199H102.587ZM110.56 30.7199V24.2687H113.284C113.347 24.2687 113.431 24.2716 113.535 24.2776C113.643 24.2806 113.738 24.2896 113.822 24.3045C114.207 24.3642 114.522 24.4912 114.767 24.6853C115.015 24.8794 115.197 25.1243 115.314 25.42C115.43 25.7127 115.488 26.0397 115.488 26.4011C115.488 26.9417 115.354 27.4047 115.085 27.7899C114.919 28.0259 114.695 28.2062 114.413 28.3306L115.578 30.7199H114.198L113.139 28.5336H111.779V30.7199H110.56ZM111.779 27.3957H113.23C113.293 27.3957 113.362 27.3927 113.436 27.3867C113.511 27.3808 113.58 27.3688 113.643 27.3509C113.807 27.3061 113.934 27.2314 114.023 27.1269C114.113 27.0194 114.174 26.9014 114.207 26.773C114.243 26.6416 114.261 26.5176 114.261 26.4011C114.261 26.2847 114.243 26.1622 114.207 26.0338C114.174 25.9024 114.113 25.7844 114.023 25.6799C113.934 25.5723 113.807 25.4962 113.643 25.4514C113.58 25.4335 113.511 25.4215 113.436 25.4155C113.362 25.4096 113.293 25.4066 113.23 25.4066H111.779V27.3957ZM75.1684 25.4066V30.7199H76.387V25.4066H78.4209V24.2687H73.1345V25.4066H75.1684ZM67.1187 30.7199V24.2687H68.3372V29.5819H71.1148V30.7199H67.1187ZM59.5832 24.2687V30.7199H63.5793V29.5819H60.8017V24.2687H59.5832ZM51.5206 30.7199V24.2687H55.7318V25.4066H52.7391V26.7864H55.1942V27.9243H52.7391V29.5819H55.7318V30.7199H51.5206ZM43.1276 24.2687V30.7199H45.9858C46.4248 30.7199 46.7892 30.6377 47.0789 30.4735C47.3686 30.3062 47.5837 30.0762 47.724 29.7835C47.8674 29.4908 47.9391 29.1519 47.9391 28.7666C47.9391 28.4082 47.8375 28.0841 47.6344 27.7944C47.4889 27.5838 47.2898 27.4276 47.0369 27.3259C47.1794 27.2393 47.2994 27.1237 47.397 26.9791C47.5613 26.7401 47.6434 26.44 47.6434 26.0786C47.6434 25.7948 47.5777 25.5141 47.4463 25.2363C47.3149 24.9586 47.1073 24.7286 46.8236 24.5464C46.5398 24.3612 46.168 24.2687 45.708 24.2687H43.1276ZM45.8604 29.573H44.364V27.9243H45.8604C46.0485 27.9243 46.2053 27.9602 46.3308 28.0319C46.4592 28.1005 46.5548 28.1946 46.6175 28.3141C46.6802 28.4336 46.7116 28.5695 46.7116 28.7218C46.7116 28.895 46.6742 29.0458 46.5996 29.1743C46.5279 29.2997 46.4278 29.3983 46.2994 29.4699C46.171 29.5386 46.0246 29.573 45.8604 29.573ZM45.6901 26.7864H44.364V25.4066H45.6901C45.9231 25.4066 46.1008 25.4738 46.2232 25.6082C46.3457 25.7426 46.4069 25.9083 46.4069 26.1055C46.4069 26.2637 46.3756 26.3937 46.3128 26.4952C46.2501 26.5938 46.165 26.6669 46.0575 26.7147C45.95 26.7625 45.8275 26.7864 45.6901 26.7864Z" fill="currentColor"></path><path fill-rule="evenodd" clip-rule="evenodd" d="M75.3493 39.4758C75.6685 39.6635 76.0487 39.7574 76.4898 39.7574C76.7761 39.7574 77.0601 39.7245 77.3417 39.6588C77.628 39.5884 77.8955 39.4688 78.1442 39.2998V37.3638H76.4335V38.11H77.3065V38.807C77.1844 38.8868 77.053 38.9431 76.9122 38.976C76.7714 39.0088 76.6306 39.0252 76.4898 39.0252C76.1284 39.0252 75.8351 38.8938 75.6098 38.631C75.3845 38.3682 75.2719 37.9692 75.2719 37.4342C75.2719 37.0775 75.3282 36.7936 75.4409 36.5824C75.5582 36.3665 75.7084 36.2116 75.8914 36.1177C76.0792 36.0192 76.281 35.9699 76.4969 35.9699C76.7034 35.9699 76.8794 36.0004 77.0249 36.0614C77.175 36.1224 77.3041 36.1998 77.4121 36.2937C77.459 36.3547 77.4895 36.4017 77.5036 36.4345C77.5177 36.4674 77.5247 36.5026 77.5247 36.5401L77.581 36.5894L77.6233 36.5401L78.1301 35.991C77.9706 35.7469 77.7383 35.5592 77.4332 35.4278C77.1328 35.2917 76.8137 35.2236 76.4757 35.2236C76.3209 35.2236 76.1496 35.2448 75.9618 35.287C75.7741 35.3245 75.5864 35.3926 75.3986 35.4912C75.2109 35.5897 75.0372 35.7258 74.8777 35.8995C74.7228 36.0684 74.5984 36.2867 74.5045 36.5542C74.4107 36.817 74.3637 37.1338 74.3637 37.5046C74.3637 37.9552 74.4482 38.3494 74.6172 38.6873C74.7908 39.0252 75.0349 39.2881 75.3493 39.4758ZM87.4949 39.166C87.8375 39.565 88.3256 39.7644 88.9592 39.7644C89.5881 39.7644 90.0715 39.565 90.4094 39.166C90.7521 38.7671 90.9234 38.2086 90.9234 37.4905C90.9234 36.7865 90.7521 36.235 90.4094 35.8361C90.0715 35.4325 89.5881 35.2307 88.9592 35.2307C88.3256 35.2307 87.8375 35.4325 87.4949 35.8361C87.157 36.235 86.988 36.7865 86.988 37.4905C86.988 38.2086 87.157 38.7671 87.4949 39.166ZM89.7336 38.6451C89.5506 38.8985 89.2924 39.0252 88.9592 39.0252C88.6166 39.0252 88.3538 38.8985 88.1707 38.6451C87.9877 38.3916 87.8962 38.0044 87.8962 37.4835C87.8962 36.9954 87.9877 36.6199 88.1707 36.3571C88.3538 36.0942 88.6166 35.9628 88.9592 35.9628C89.2924 35.9628 89.5506 36.0942 89.7336 36.3571C89.9213 36.6199 90.0152 36.9954 90.0152 37.4835C90.0152 38.0044 89.9213 38.3916 89.7336 38.6451ZM95.2784 39.7715C94.7011 39.7715 94.2552 39.6237 93.9408 39.328C93.631 39.0323 93.4761 38.6193 93.4761 38.089V35.2941H94.4477V35.3645C94.4242 35.3927 94.4078 35.4232 94.3984 35.456C94.3937 35.4889 94.3913 35.5452 94.3913 35.625V38.096C94.3913 38.387 94.4594 38.617 94.5955 38.7859C94.7363 38.9549 94.9663 39.0394 95.2854 39.0394C95.6187 39.0394 95.8533 38.9549 95.9894 38.7859C96.1302 38.6123 96.2006 38.3753 96.2006 38.0749V35.2941H97.1017V38.0679C97.1017 38.4574 97.0243 38.7789 96.8694 39.0323C96.7146 39.2811 96.4987 39.4665 96.2217 39.5885C95.9495 39.7105 95.6351 39.7715 95.2784 39.7715ZM99.9009 39.68V35.2941H101.752C102.142 35.2941 102.463 35.3528 102.717 35.4701C102.975 35.5874 103.165 35.7447 103.287 35.9418C103.414 36.1389 103.477 36.3571 103.477 36.5965C103.477 36.9673 103.329 37.2747 103.034 37.5187C102.738 37.7628 102.325 37.8848 101.795 37.8848H100.83V39.68H99.9009ZM100.83 37.1386H101.724C101.987 37.1386 102.189 37.0893 102.33 36.9907C102.471 36.8922 102.541 36.7608 102.541 36.5965C102.541 36.4322 102.468 36.3032 102.323 36.2093C102.182 36.1107 101.987 36.0615 101.738 36.0615H100.83V37.1386ZM80.873 39.68V35.2941H82.6612C83.2431 35.2941 83.6773 35.4138 83.9636 35.6531C84.2545 35.8925 84.4 36.207 84.4 36.5965C84.4 36.8687 84.3062 37.1175 84.1184 37.3427C83.9354 37.568 83.6913 37.7229 83.3863 37.8074L84.5408 39.68H83.5552L82.464 37.8989H81.8023V39.68H80.873ZM81.8023 37.1527H82.7104C82.9639 37.1527 83.1516 37.1057 83.2736 37.0119C83.4004 36.9133 83.4637 36.7819 83.4637 36.6176C83.4637 36.4627 83.4004 36.3313 83.2736 36.2234C83.1516 36.1154 82.9592 36.0615 82.6964 36.0615H81.8023V37.1527ZM61.8451 39.68V35.2941H63.2109C63.6708 35.2941 64.0275 35.3481 64.2809 35.456C64.5391 35.564 64.755 35.7142 64.9286 35.9066C65.107 36.1037 65.2478 36.3384 65.351 36.6106C65.4543 36.8781 65.5059 37.1808 65.5059 37.5187C65.4965 37.9646 65.4074 38.3495 65.2384 38.6733C65.0741 38.9971 64.816 39.2459 64.464 39.4195C64.1167 39.5932 63.6638 39.68 63.1053 39.68H61.8451ZM62.7462 38.9619H63.0841C63.4596 38.9619 63.7576 38.9009 63.9782 38.7789C64.2035 38.6569 64.3654 38.4903 64.464 38.2791C64.5625 38.0632 64.6118 37.8121 64.6118 37.5258C64.6118 37.2254 64.5649 36.9626 64.471 36.7373C64.3819 36.5073 64.2317 36.3313 64.0205 36.2093C63.814 36.0826 63.5324 36.0192 63.1757 36.0192H62.7462V38.9619ZM56.427 35.2941H55.4766V39.68H56.3074V36.6669L58.2222 39.68H59.0741V35.625C59.0741 35.5452 59.0764 35.4889 59.0811 35.456C59.0905 35.4232 59.1069 35.3927 59.1304 35.3645V35.2941H58.2363L58.2786 38.1312L56.427 35.2941ZM50.9456 39.7715C50.3683 39.7715 49.9225 39.6237 49.608 39.328C49.2983 39.0323 49.1434 38.6193 49.1434 38.089V35.2941H50.1149V35.3645C50.0914 35.3927 50.075 35.4232 50.0656 35.456C50.0609 35.4889 50.0586 35.5452 50.0586 35.625V38.096C50.0586 38.387 50.1266 38.617 50.2627 38.7859C50.4035 38.9549 50.6335 39.0394 50.9527 39.0394C51.2859 39.0394 51.5206 38.9549 51.6567 38.7859C51.7975 38.6123 51.8679 38.3753 51.8679 38.0749V35.2941H52.769V38.0679C52.769 38.4574 52.6915 38.7789 52.5367 39.0323C52.3818 39.2811 52.1659 39.4665 51.889 39.5885C51.6168 39.7105 51.3023 39.7715 50.9456 39.7715ZM43.0354 35.2941V39.68H43.8591V37.6807H45.8937V36.9555H43.8591V36.0192H46.3583V35.2941H43.0354Z" fill="currentColor"></path><path d="M30.6947 28.0888C30.7071 28.12 30.7354 28.1177 30.7596 28.1153C30.835 28.1048 30.9015 28.1421 30.9636 28.1738C31.0947 28.1589 31.2052 28.2485 31.333 28.2473C31.4565 28.3245 31.6095 28.3203 31.7415 28.3689C31.8657 28.3503 31.963 28.452 32.0852 28.4391C32.1698 28.4371 32.2475 28.4874 32.3282 28.5007C32.5063 28.485 32.6631 28.5938 32.8406 28.5629C32.8864 28.5585 32.9169 28.5202 32.9342 28.4826C33.1216 28.1495 33.3286 27.7842 33.7117 27.6535C33.803 27.622 33.9578 27.6531 34.0356 27.7124C34.0484 27.7252 34.0746 27.7243 34.0944 27.7304C34.1791 27.7464 34.2135 27.8147 34.3057 27.7954C34.3571 27.7954 34.4066 27.7936 34.4478 27.8368C34.518 27.8763 34.6186 27.8519 34.698 27.8565C34.7681 27.8424 34.7915 27.9226 34.8549 27.9257C34.9774 27.9263 35.0998 27.926 35.2419 27.926C35.1881 27.8545 35.1438 27.8544 35.0707 27.8579C34.8293 27.8598 34.5972 27.7796 34.3661 27.7299C34.195 27.6861 34.0378 27.6068 33.8732 27.5414C33.8264 27.5235 33.823 27.49 33.8244 27.4502C33.8357 27.4741 33.8604 27.4676 33.8798 27.4731C33.9474 27.4842 33.9787 27.5561 34.0498 27.5403C34.1158 27.5277 34.1375 27.6084 34.2066 27.5979C34.3157 27.5821 34.3891 27.6859 34.4976 27.6685C34.5859 27.6459 34.6365 27.7299 34.7237 27.7293C34.8439 27.746 34.9793 27.6972 35.088 27.7614C35.1307 27.7945 35.1819 27.797 35.2341 27.7961C35.3192 27.7946 35.4044 27.7957 35.491 27.7957C35.525 27.9044 35.3871 27.8849 35.3205 27.9144C35.3674 27.9366 35.4441 27.9069 35.4731 27.948C35.5064 28.0283 35.4942 28.0529 35.4139 28.0523C35.3426 28.0518 35.2694 28.0681 35.2002 28.0303C35.1152 28.0116 35.0252 28.0362 34.939 27.9943C34.8725 27.9642 34.7911 27.9577 34.7162 27.9575C34.5679 27.9793 34.4535 27.8476 34.3169 27.8647C34.2665 27.9048 34.3473 27.9624 34.3793 27.9813C34.5085 28.0367 34.5534 28.1685 34.6438 28.2622C34.8453 28.4117 35.0049 28.7883 35.3004 28.6743C35.3504 28.6534 35.4065 28.6561 35.4643 28.6779C35.4199 28.7978 35.2941 28.7342 35.2055 28.7674C35.1763 28.8162 35.2297 28.838 35.2255 28.874C35.3007 28.9128 35.5538 28.8407 35.4874 28.9878C35.3619 29.0553 35.4305 29.1009 35.5103 29.1647C35.5631 29.2202 35.56 29.2403 35.4952 29.2985C35.4119 29.3019 35.3263 29.2179 35.2839 29.1397C35.0612 28.8832 34.8216 28.6494 34.604 28.3882C34.5612 28.3282 34.5062 28.2727 34.435 28.2359C34.3236 28.1529 34.2279 28.036 34.1128 27.9568C33.9266 27.8148 33.66 27.7519 33.4827 27.9482C33.4767 28.3566 33.5502 28.7761 33.7141 29.1582C33.8299 29.453 34.109 29.6381 34.2531 29.9159C34.3262 29.9816 34.428 30.2171 34.2524 30.2025C34.0016 30.1432 33.8063 29.9904 33.6395 29.7961C33.4932 29.6783 33.3118 29.8542 33.2333 30.0033C33.1371 30.1838 33.0938 30.3925 33.0673 30.593C33.0798 30.8019 32.8704 30.8551 32.7359 30.9532C31.9729 31.3606 31.2056 31.7638 30.4193 32.1252C30.3117 32.1624 30.2065 32.2048 30.1027 32.2515C30.0056 32.2945 29.896 32.2906 29.8045 32.3515C29.7632 32.3697 29.6929 32.3554 29.6502 32.3303C29.5783 32.5308 29.7095 32.6746 29.6917 32.8687C29.6845 32.9725 29.7153 33.0689 29.7424 33.1664C29.7667 33.2942 29.7452 33.4303 29.7907 33.5549C29.8226 33.7701 29.8129 33.9389 29.8978 34.1543C29.9316 34.1059 29.9559 34.0712 29.9827 34.0328C30.1511 34.1053 30.2832 34.1813 30.4464 34.2502C30.605 34.283 30.9153 34.4386 31.0393 34.3047C31.023 34.1162 31.2514 34.039 31.4042 34.0318C31.4791 34.0454 31.5406 33.9982 31.6166 34.0029C31.9424 33.9312 32.2843 33.9766 32.6212 33.9646C33.2544 33.8611 33.9225 34.0236 34.5497 33.8845C34.5126 33.8204 34.4363 33.8259 34.3789 33.7863C34.2606 33.7442 34.1757 33.5923 34.3368 33.542C34.3886 33.5257 34.3881 33.4696 34.3907 33.4224C34.4397 33.2876 34.6095 33.398 34.706 33.4136C34.7409 33.3601 34.6653 33.2648 34.6403 33.203C34.59 33.1091 34.515 32.9963 34.5612 32.8816C34.6258 32.8726 34.6804 32.8873 34.7093 32.9485C34.7304 32.9931 34.7665 32.9885 34.8028 32.9905C34.7797 33.0165 34.7666 33.0905 34.829 33.0685C34.8162 33.0267 34.8035 32.9859 34.7687 32.9591C34.6823 32.8147 34.6145 32.6613 34.5432 32.5083C34.5112 32.3966 34.4063 32.1926 34.5543 32.1356C34.618 32.1287 34.6708 32.1497 34.7078 32.2032C34.766 32.2622 34.7951 32.3839 34.8744 32.4127C34.913 32.3897 34.8989 32.3238 34.9013 32.2849C34.9136 32.12 34.8723 31.9476 34.9257 31.7888C34.9577 31.6253 34.8963 31.4411 34.9565 31.2816C34.9683 31.2619 34.9635 31.2319 34.9646 31.2065C34.9595 31.0891 35.12 30.9251 35.2094 31.0563C35.3496 31.4308 35.2467 31.8512 35.3015 32.2385C35.3531 32.2385 35.3444 32.1894 35.367 32.1678C35.5515 31.9595 35.5672 32.1557 35.5423 32.3434C35.5319 32.4156 35.4895 32.4855 35.463 32.5546C35.4216 32.6333 35.4786 32.6607 35.5456 32.7055C35.5456 32.7697 35.5476 32.8376 35.5446 32.9053C35.5445 35.5154 35.5472 38.1833 35.5461 40.8132C35.5749 40.9864 35.408 41.057 35.3404 41.1901C35.3311 41.2158 35.3013 41.2341 35.2806 41.2556C35.2159 41.3228 35.1481 41.3858 35.0962 41.4661C34.9972 41.6029 34.836 41.6913 34.7534 41.8431C34.7461 41.8577 34.733 41.8751 34.7188 41.8797C34.6467 41.9036 34.6329 41.9917 34.5609 42.0179C34.4995 42.101 34.4209 42.1857 34.3296 42.2471C34.1855 42.3439 34.0991 42.5141 33.943 42.5976C33.49 43.0043 33.003 43.3975 32.4916 43.7411C32.3925 43.7718 32.1501 44.0835 32.1042 43.8911C32.0907 43.7938 32.0604 43.703 32.0012 43.6229C31.9077 43.5259 32.0721 43.4585 32.0265 43.3666C32.0013 43.3275 31.972 43.2884 31.916 43.2912C31.8782 43.293 31.8414 43.2893 31.8046 43.3102C31.6542 43.3743 31.5838 43.2037 31.429 43.3705C31.3708 43.4576 31.2229 43.4316 31.2372 43.3144C31.2431 43.1712 31.2102 43.0313 31.1682 42.8932C31.1611 42.8786 31.1586 42.8574 31.1471 42.8498C31.0468 42.7726 30.9574 42.6813 30.8431 42.6239C30.7444 42.5324 30.6292 42.4384 30.5163 42.3647C30.4039 42.295 30.3232 42.1893 30.2087 42.1209C30.1687 42.0904 30.1441 42.0414 30.09 42.0271C30.0299 41.9838 29.9811 41.9214 29.9117 41.8867C29.7867 41.8154 29.6992 41.694 29.576 41.6177C29.4469 41.5607 29.1054 41.1419 29.1887 41.5362C29.2361 41.6472 29.184 41.7643 29.2364 41.874C29.2554 42.0085 29.2271 42.1612 29.2454 42.2953C29.2945 42.3831 29.2614 42.481 29.2758 42.5717C29.3239 42.6827 29.2985 42.799 29.3047 42.9129C29.2897 43.0175 29.3401 43.1093 29.3386 43.2141C29.3399 43.2564 29.3376 43.2975 29.3603 43.3382C29.3868 43.4506 29.3637 43.5786 29.3716 43.6949C29.3722 43.7498 29.3642 43.8054 29.3936 43.8576C29.4143 43.9293 29.3837 44.0119 29.4242 44.083C29.4595 44.2502 29.3911 44.4384 29.4607 44.601C29.4924 44.6871 29.4422 44.8023 29.4924 44.8896C29.5001 44.9032 29.4984 44.923 29.4985 44.9398C29.4792 45.0393 29.5507 45.3709 29.4397 45.362C29.4015 45.3401 29.3709 45.3117 29.3717 45.2618C29.385 45.1334 29.3566 45.0211 29.3394 44.8962C29.3289 44.7734 29.3619 44.6466 29.3162 44.5288C29.3016 44.501 29.307 44.4623 29.3052 44.4285C29.3207 44.3138 29.2725 44.2146 29.2733 44.1006C29.2674 43.9997 29.2917 43.8961 29.2442 43.7985C29.2324 43.6946 29.2508 43.5879 29.2178 43.4825C29.1881 43.3653 29.2358 43.2344 29.1899 43.1158C29.156 43.0118 29.2107 42.8909 29.1516 42.7905C29.1388 42.7724 29.1435 42.7409 29.1432 42.7155C29.141 42.4861 29.1264 42.2587 29.0886 42.0324C29.0604 41.9071 29.1206 41.7634 29.0478 41.6445C29.0647 41.5116 29.0175 41.3842 29.0139 41.2528C29.0446 40.9567 29.3448 41.2838 29.4566 41.3667C29.5702 41.4738 29.7029 41.5568 29.8296 41.6461C30.031 41.8372 30.2647 41.9943 30.4842 42.1648C30.5585 42.2196 30.6188 42.2924 30.7049 42.3337C30.7882 42.4024 30.9373 42.5672 30.9097 42.3307C30.8851 42.2456 30.8717 42.1442 30.8281 42.0681C30.7708 42.031 30.7594 41.9543 30.6916 41.9233C30.5997 41.8487 30.4973 41.7736 30.413 41.6827C30.0603 41.3651 29.6979 41.0437 29.339 40.7369C29.2733 40.6308 28.991 40.5602 29.1334 40.4272C29.2754 40.512 29.3601 40.654 29.4998 40.7446C29.6283 40.8255 29.6994 40.9875 29.8413 41.0487C30.0492 41.256 30.278 41.4462 30.5099 41.6262C30.5953 41.7107 30.8865 42.0398 30.8087 41.7102C30.7495 41.3314 30.7775 41.4534 30.5201 41.1742C30.3027 41.0169 30.1269 40.8045 29.9268 40.6213C29.712 40.4678 29.5501 40.2551 29.3392 40.0954C29.2709 40.0028 29.1483 39.9661 29.0953 39.8611C29.0231 39.8347 29.0494 39.7832 29.0549 39.7244C29.3135 39.8696 29.5152 40.1237 29.7339 40.3283C29.8007 40.419 29.906 40.4648 29.9836 40.5448C30.1737 40.7416 30.3706 40.9266 30.5757 41.1066C30.6729 41.2206 30.7535 41.2312 30.722 41.0444C30.724 40.9434 30.6827 40.856 30.6114 40.7847C30.2093 40.3637 29.7726 39.9853 29.3645 39.5738C29.3317 39.5411 29.2991 39.5102 29.2568 39.4862C29.2005 39.4432 29.1675 39.3395 29.094 39.3139C28.9652 39.2661 28.9527 39.0455 29.1061 39.1866C29.2634 39.3531 29.4421 39.4941 29.6063 39.6532C29.6633 39.721 29.7421 39.7702 29.7773 39.8568C29.8162 39.905 29.88 39.9332 29.9241 39.9772C29.9605 40.0101 29.9665 40.0726 30.0264 40.0836C30.096 40.1804 30.2025 40.2384 30.2803 40.3278C30.3488 40.3834 30.6005 40.7112 30.6416 40.6186C30.6502 40.6006 30.6589 40.5735 30.6512 40.5587C30.6092 40.4304 30.6382 40.2851 30.5245 40.1841C30.1926 39.8477 29.8439 39.5302 29.5087 39.2031C29.4576 39.1591 29.4203 39.0994 29.3526 39.0745C29.3383 39.0692 29.3245 39.0528 29.3181 39.0381C29.3049 38.9963 29.2685 38.985 29.2373 38.963C29.2066 38.9229 29.1819 38.8755 29.1438 38.8444C29.0686 38.8207 28.8392 38.551 29.0416 38.6131C29.5115 39.0419 29.9587 39.4965 30.414 39.9496C30.6463 40.1853 30.5519 39.7173 30.4504 39.6285C29.9491 39.1289 29.4485 38.628 28.9461 38.1427C28.9203 38.1208 28.8815 38.0657 28.9222 38.0371C28.9994 37.9871 29.159 38.239 29.2364 38.2861C29.6399 38.6722 30.0142 39.0959 30.4231 39.4737C30.5199 39.5172 30.449 39.358 30.4666 39.314C30.4837 39.1232 30.3631 38.9637 30.2193 38.8465C30.1487 38.7936 30.1134 38.708 30.0394 38.6598C29.9786 38.6076 29.9087 38.565 29.8779 38.4843C29.8278 38.4218 29.7517 38.3776 29.6921 38.3205C29.5394 38.1772 29.378 38.0266 29.2438 37.8653C29.2184 37.7888 29.1412 37.7712 29.0903 37.7203C29.0387 37.6462 28.9581 37.6023 28.9021 37.5336C28.8758 37.4901 28.8299 37.4222 28.8962 37.3928C29.0104 37.4218 29.0629 37.5654 29.1605 37.6336C29.405 37.8841 29.6669 38.1308 29.891 38.3873C30.0055 38.5298 30.1572 38.6537 30.2826 38.79C30.3122 38.8259 30.3824 38.8436 30.3943 38.7904C30.404 38.6741 30.354 38.5504 30.2989 38.4448C30.2599 38.3703 30.176 38.3436 30.1467 38.2666C30.0964 38.2294 30.034 38.2084 30.0086 38.1422C29.9485 38.0465 29.8406 37.9917 29.7632 37.9104C29.6876 37.8455 29.6554 37.73 29.5532 37.6957C29.5003 37.6767 29.5073 37.6154 29.4696 37.5879C29.4364 37.5637 29.3857 37.5616 29.3735 37.5118C29.349 37.4307 29.2305 37.4296 29.2026 37.3484C29.1866 37.2591 28.6339 36.8539 28.9016 36.8705C29.0829 37.0323 29.2546 37.2142 29.4102 37.4009C29.6039 37.5809 29.7929 37.7727 29.9641 37.9756C30.0628 38.073 30.1543 38.2057 30.2769 38.267C30.301 38.1983 30.3133 38.1212 30.2908 38.0695C30.2503 37.9794 30.2954 37.8843 30.2345 37.8015C29.783 37.2552 29.2158 36.8191 28.7611 36.2731C28.7815 36.2522 28.7981 36.2351 28.8195 36.2131C28.9043 36.2819 29.0096 36.3178 29.0536 36.4247C29.3115 36.6826 29.5603 36.9508 29.8077 37.2174C29.8605 37.2787 29.9221 37.3323 29.9796 37.3896C30.0368 37.4245 30.1677 37.6468 30.2026 37.526C30.2254 37.4245 30.1691 37.3387 30.1733 37.2377C30.1613 37.082 30.0348 36.9566 29.9189 36.8588C29.5879 36.5825 29.3027 36.2495 28.9919 35.95C28.9078 35.8645 28.831 35.7716 28.7526 35.6806C28.7204 35.6431 28.7224 35.6413 28.769 35.5821C29.203 35.9628 29.5814 36.4109 29.9867 36.8185C30.2174 37.0179 30.0868 36.5106 29.9661 36.4431C29.6699 36.1383 29.3533 35.8562 29.0689 35.5477C29.0031 35.4447 28.6358 35.2091 28.7161 35.0995C28.8251 35.0722 28.9125 35.2563 28.9974 35.3131C29.2993 35.6034 29.5573 35.9292 29.8646 36.2152C29.8899 36.2868 29.9589 36.3045 30.0083 36.343C30.1003 36.3116 29.9859 36.1618 30.0121 36.0673C29.991 35.8432 29.6909 35.6258 29.5312 35.4773C29.4296 35.4307 29.4131 35.3035 29.3094 35.2559C29.2742 35.2341 29.2371 35.2057 29.2173 35.171C29.1677 35.0642 29.0616 35.0235 28.9881 34.9406C28.9695 34.9183 28.9586 34.8855 28.9356 34.8714C28.8285 34.7868 28.7342 34.6769 28.6623 34.5654C28.6809 34.4431 28.8119 34.5999 28.8514 34.636C29.0049 34.7863 29.1538 34.9291 29.3031 35.087C29.4101 35.2122 29.5249 35.3296 29.6422 35.4459C29.7415 35.5283 29.8068 35.6499 29.9288 35.7008C30.0009 35.6102 29.9007 35.5287 29.914 35.4356C29.9199 35.1236 29.6095 34.9682 29.4264 34.7654C29.3889 34.6934 29.2976 34.6718 29.2549 34.6037C29.2002 34.4982 29.1077 34.4297 29.0225 34.3535C28.8936 34.1915 28.6885 34.0778 28.6117 33.8819C28.6325 33.8409 28.7018 33.8699 28.7172 33.8881C28.7484 33.9549 28.8031 33.9904 28.8622 34.0251C28.88 34.0356 28.9006 34.0517 28.907 34.0697C28.9326 34.1425 28.994 34.1848 29.0439 34.2359C29.2379 34.4456 29.4622 34.6262 29.6384 34.8518C29.9343 35.178 29.8622 34.8707 29.785 34.6482C29.4257 34.1875 28.9147 33.8402 28.5698 33.3678C28.614 33.1904 28.9924 33.6976 29.0635 33.7449C29.2579 33.9669 29.4627 34.1791 29.6745 34.3851C29.829 34.5121 29.7309 34.1059 29.7114 34.0386C29.6492 33.8488 29.4534 33.7615 29.3589 33.5923C29.3485 33.5719 29.3224 33.5592 29.3027 33.5442C29.1462 33.4255 29.0212 33.2738 28.8796 33.1395C28.7534 32.9993 28.579 32.8876 28.5025 32.7116C28.5626 32.5674 28.8573 32.9931 28.9284 33.0415C29.1434 33.2932 29.3968 33.5193 29.6258 33.7562C29.695 33.7425 29.6534 33.4983 29.6304 33.444C29.4846 33.1844 29.2234 33.0083 29.0306 32.785C28.9513 32.739 28.8964 32.6747 28.845 32.5994C28.7438 32.47 28.6079 32.3643 28.4973 32.2416C28.4623 32.205 28.4639 32.2025 28.5118 32.149C28.7041 32.258 28.8439 32.4638 29.0089 32.6144C29.1672 32.7924 29.3399 32.9587 29.498 33.1331C29.527 33.1767 29.59 33.1672 29.5939 33.1267C29.5661 32.9559 29.5589 32.7657 29.4534 32.6263C29.3457 32.5625 29.2911 32.4278 29.1758 32.3625C29.0139 32.2507 28.9253 32.0451 28.7527 31.9497C28.6891 31.841 28.5851 31.7676 28.5038 31.6689C28.4638 31.6296 28.3928 31.4781 28.5218 31.5399C28.7858 31.8214 29.0645 32.0791 29.3163 32.373C29.3543 32.4252 29.5074 32.5457 29.4956 32.3948C29.4654 32.3387 29.4808 32.2769 29.4668 32.2209C29.2491 31.7595 28.7384 31.4639 28.4193 31.065C28.3661 30.9521 28.5008 30.9796 28.546 31.0618C28.6844 31.2204 28.8422 31.3586 28.9921 31.5038C29.1225 31.6206 29.2385 31.7878 29.3835 31.8732C29.4364 31.6981 29.3651 31.4891 29.2458 31.3536C29.0482 31.142 28.8226 30.9555 28.6444 30.7267C28.5956 30.6584 28.5359 30.5973 28.4587 30.5549C28.3498 30.5136 28.2851 30.2722 28.463 30.4067C28.6562 30.6 28.8496 30.7931 29.0414 30.988C29.1465 31.0965 29.1291 31.1412 29.2899 31.2196C29.3315 31.133 29.2724 31.0629 29.2754 30.9804C29.2843 30.9092 29.2471 30.849 29.238 30.7825C29.1291 30.6195 28.9807 30.4781 28.8425 30.3372C28.7636 30.223 28.2281 29.8305 28.3348 29.7271C28.5915 29.9129 28.7954 30.1843 29.0338 30.4001C29.0914 30.4431 29.1268 30.5379 29.2106 30.5112C29.1499 30.3124 28.9445 30.2384 28.8475 30.0635C28.7495 30.0062 28.7088 29.8957 28.6228 29.8253C28.4783 29.6906 28.3044 29.5529 28.239 29.361C28.2336 29.3238 28.199 29.3087 28.1611 29.3087C28.0247 29.3087 27.8883 29.3087 27.7492 29.3087C27.7047 29.411 27.7519 29.4995 27.7601 29.5992C27.7474 29.6938 27.796 29.7688 27.7936 29.8621C27.7991 29.9484 27.7848 30.0466 27.7975 30.1307C27.8674 30.2891 27.7994 30.4581 27.8522 30.6204C27.88 30.7567 27.8336 30.9018 27.8813 31.0386C27.9125 31.1386 27.8547 31.2558 27.9171 31.3512C27.9303 31.3685 27.9251 31.4006 27.9263 31.426C27.912 31.565 27.9679 31.6904 27.9573 31.8308C27.9464 31.9726 28.002 32.1038 27.9866 32.2488C27.9707 32.3586 28.0281 32.4513 28.0194 32.5629C28.0036 32.6812 28.065 32.7815 28.0536 32.9023C28.0386 33.0205 28.0916 33.1238 28.0847 33.243C28.0912 33.3482 28.0637 33.4566 28.1146 33.5575C28.1218 33.6897 28.0999 33.822 28.1366 33.9515C28.1658 34.0568 28.1223 34.1733 28.1714 34.2783C28.1888 34.3133 28.1782 34.362 28.1805 34.4046C28.1849 34.4844 28.1658 34.5667 28.2109 34.6423C28.2261 34.7491 28.2032 34.8623 28.2389 34.9708C28.2674 35.0752 28.2177 35.1952 28.2637 35.2997C28.2871 35.4009 28.2681 35.5139 28.2742 35.6183C28.2744 35.6647 28.2702 35.7106 28.3014 35.7531C28.3303 35.8419 28.3006 35.9529 28.3148 36.0449C28.3567 36.1478 28.3384 36.2551 28.3426 36.3607C28.3557 36.4544 28.383 36.5417 28.3717 36.6375C28.3742 36.7006 28.3708 36.7617 28.3976 36.8249C28.4307 36.9351 28.3748 37.0668 28.4317 37.1772C28.456 37.2809 28.4228 37.3981 28.4633 37.5047C28.4944 37.6384 28.4394 37.7878 28.4962 37.9218C28.5233 38.0203 28.4742 38.1385 28.5264 38.2366C28.5428 38.316 28.5277 38.4092 28.5328 38.4919C28.533 38.5175 28.5259 38.5482 28.5372 38.5678C28.579 38.6399 28.5639 38.7172 28.5665 38.7929C28.5686 38.8563 28.5602 38.92 28.5957 38.9797C28.6101 39.0715 28.5951 39.1784 28.6006 39.2735C28.6009 39.2991 28.596 39.3286 28.6069 39.3491C28.6612 39.4708 28.598 39.6031 28.6557 39.7256C28.671 39.818 28.6495 39.9245 28.6619 40.0195C28.7147 40.2433 28.7306 40.4748 28.7285 40.7057C28.7173 40.8298 28.7777 40.9445 28.7539 41.0721C28.7545 41.1605 28.582 41.1562 28.572 41.08C28.5578 41.0042 28.5809 40.9279 28.5402 40.8549C28.496 40.7539 28.6077 40.5169 28.448 40.496C25.1489 40.4848 21.844 40.5218 18.5526 40.4635C18.5297 40.4625 18.5084 40.4531 18.5106 40.4271C18.5128 40.4007 18.5368 40.3973 18.5589 40.397C19.1957 40.3828 19.842 40.4208 20.4732 40.3788C23.0962 40.2508 26.0019 40.5611 28.4974 40.2712C28.4033 39.9786 28.623 39.6797 28.1261 39.7692C24.9697 39.7855 21.773 39.8409 18.6331 39.7328C21.7709 39.5179 25.1375 39.7343 28.35 39.6578C28.5352 39.6291 28.3883 39.3879 28.4049 39.2688C28.404 39.1514 28.2685 39.1844 28.1887 39.18C27.799 39.1659 15.9981 39.2422 19.4994 39.0826C22.421 39.0108 25.402 39.0249 28.3237 39.0829C28.3512 39.0471 28.407 39.0142 28.3982 38.9715C28.3259 38.8665 28.4432 38.6132 28.2412 38.6293C25.1114 38.5884 21.9174 38.7071 18.8206 38.5854C21.9508 38.4212 25.1789 38.6143 28.3339 38.5178C28.3351 38.3834 28.4051 38.0904 28.2234 38.0545C25.2139 38.0525 22.2043 38.0545 19.1947 38.0537C19.1323 38.0509 19.0638 38.0684 19.0112 38.0262C18.9777 37.9896 19.0297 37.9595 19.0648 37.9575C22.0742 37.9537 25.0839 37.9575 28.0935 37.956C28.1482 37.956 28.2029 37.9538 28.2633 37.9525C28.2862 37.8135 28.2703 37.6775 28.2732 37.538C25.3971 37.2608 22.1589 37.5398 19.1647 37.4416C18.9895 37.4018 19.2054 37.2965 19.2923 37.3334C22.231 37.2949 25.2088 37.3033 28.1564 37.3255C28.3382 37.3138 28.1949 37.0539 28.2116 36.9503C28.1572 36.9036 28.1003 36.8971 28.0392 36.8947C25.1162 36.894 22.1288 36.9336 19.2178 36.867C22.0932 36.67 25.1834 36.869 28.1287 36.798C28.2054 36.7989 28.2256 36.719 28.2136 36.6564C28.1656 36.5558 28.1869 36.4476 28.1773 36.3354C25.3634 36.0882 22.3407 36.3319 19.4588 36.2492C19.2289 36.2206 19.3413 36.1307 19.5173 36.1557C22.3644 36.1546 25.2117 36.1575 28.0587 36.1546C28.1971 36.1651 28.1493 35.8946 28.1242 35.8138C28.1092 35.7275 28.1204 35.6699 28.0308 35.6043C25.2846 35.6491 22.4804 35.6939 19.7356 35.6043C19.6434 35.5837 19.4964 35.6626 19.4777 35.5234C22.2823 35.4877 25.0939 35.5231 27.9007 35.5107C27.9594 35.5107 28.0195 35.5181 28.0842 35.4965C28.0729 35.3632 28.1213 35.2364 28.0286 35.1265C25.2079 35.0863 22.3493 35.1951 19.5464 35.0884C19.5617 34.9984 19.662 35.0373 19.724 35.0291C22.4737 35.0379 25.2165 34.957 27.9621 35.0291C28.1267 34.9454 28.0143 34.7966 28.0194 34.665C28.0356 34.5293 27.9023 34.5419 27.8066 34.5454C25.1679 34.45 22.1686 34.7282 19.7047 34.4502C21.287 34.455 22.8628 34.3892 24.4386 34.4456C25.3518 34.4635 26.2749 34.3557 27.1855 34.4467C27.4418 34.4448 27.6988 34.4526 27.9548 34.4438C28.0243 34.4358 28.0313 34.3348 28.0143 34.2848C27.9435 34.1545 28.0596 33.86 27.8329 33.8721C25.1782 33.871 22.5232 33.8749 19.8687 33.8708C19.8173 33.8751 19.7536 33.7789 19.8352 33.7757C22.5112 33.773 25.1874 33.7758 27.8635 33.7747C27.996 33.7992 27.9624 33.6274 27.9481 33.5401C27.926 33.4768 27.94 33.3772 27.8563 33.362C25.2113 33.3048 22.536 33.4572 19.9041 33.3075C22.4287 33.1747 25.1001 33.3069 27.6729 33.2615C27.754 33.256 27.8862 33.2932 27.8877 33.1726C27.8842 33.0553 27.9195 32.7556 27.7862 32.7166C25.2263 32.7026 22.6642 32.7283 20.1049 32.7076C20.0896 32.7044 20.0692 32.6786 20.0693 32.6632C20.0693 32.6492 20.0926 32.6258 20.1082 32.6233C22.6253 32.6084 25.1439 32.6233 27.6615 32.618C27.7119 32.618 27.7623 32.6157 27.8153 32.6143C27.8472 32.4911 27.8223 32.375 27.8295 32.2557C27.7678 32.1482 27.6765 32.1641 27.5756 32.167C25.13 32.1174 22.5238 32.2618 20.1557 32.1172C20.1738 32.1061 20.1959 32.0874 20.2127 32.0907C20.2974 32.1074 20.3764 32.0712 20.4603 32.0715C22.8979 32.0769 25.3352 32.0722 27.7728 32.0737C27.8342 31.9277 27.7702 31.7988 27.7606 31.6571C27.7661 31.5204 27.6223 31.5594 27.5318 31.554C25.2276 31.4594 22.3958 31.7325 20.3484 31.4632C22.7722 31.4569 25.1963 31.4636 27.6201 31.4606C27.7456 31.4624 27.7814 31.3446 27.7496 31.2417C27.7201 31.1406 27.7557 31.0365 27.6378 30.978C26.5266 30.978 25.4129 30.9779 24.3015 30.9782C24.1733 30.9516 19.498 31.0612 20.6025 30.8795C22.9609 30.8782 25.3196 30.882 27.6779 30.8781C27.7205 30.6996 27.7077 30.4742 27.6071 30.3964C25.3225 30.3964 23.0369 30.3962 20.7522 30.3972C20.6694 30.3973 20.4205 30.3714 20.5338 30.3068C22.842 30.2949 25.1507 30.3066 27.459 30.302C27.5134 30.302 27.5699 30.314 27.6312 30.2827C27.6234 30.1215 27.6758 29.9331 27.5805 29.7886C25.3008 29.6348 22.89 29.903 20.6269 29.6939C22.9009 29.6021 25.2311 29.697 27.5233 29.6605C27.6278 29.6503 27.5986 29.52 27.5991 29.4463C27.583 29.3295 27.4515 29.3326 27.3602 29.3379C25.1715 29.3375 22.9826 29.3386 20.7939 29.3375C20.7125 29.3347 20.6925 29.3139 20.6879 29.2285C20.712 29.1337 20.8286 29.1432 20.9037 29.1429C23.352 29.143 25.8007 29.1429 28.2489 29.143C28.3454 29.2079 28.3916 29.3002 28.4653 29.3819C28.6097 29.5151 28.7391 29.6607 28.8632 29.8124C28.991 29.9416 29.125 30.0666 29.2393 30.2081C29.2645 30.2402 29.2916 30.2439 29.334 30.2495C29.344 30.0797 29.2945 29.8729 29.5419 29.9854C29.7521 30.0554 29.9747 30.0868 30.1879 30.1443C30.3156 30.1761 30.4861 30.2216 30.5788 30.1062C30.6353 30.0274 30.9632 29.8828 30.7926 29.7933C30.6605 29.7364 30.52 29.7004 30.3881 29.6553C30.3467 29.595 30.2571 29.6119 30.2264 29.5517C30.2723 29.5107 30.3126 29.5602 30.3584 29.5745C30.598 29.6124 30.8277 29.6858 31.0645 29.748C31.1906 29.7788 31.3172 29.8111 31.4401 29.8519C31.5362 29.8442 31.6238 29.8751 31.7109 29.9098C31.7838 29.922 31.8542 29.9031 31.9218 29.9566C31.9598 29.9105 31.9662 29.8571 31.8984 29.8546C31.7879 29.8405 31.6933 29.7761 31.579 29.784C31.3024 29.6831 31.012 29.6267 30.7381 29.5268C30.5005 29.4492 30.2651 29.3569 30.0258 29.2756C29.9311 29.2161 29.8218 29.1857 29.7187 29.1362C29.6649 29.1142 29.6199 29.0716 29.5553 29.0783C29.548 29.079 29.5367 29.0738 29.5328 29.0678C29.5042 29.0233 29.4552 29.0207 29.4122 29.0035C29.343 28.9601 29.3977 28.8954 29.4589 28.9326C30.1963 29.2311 30.9654 29.4533 31.7372 29.652C31.8331 29.6736 31.9356 29.6884 32.0312 29.7197C32.0606 29.7277 32.0721 29.7233 32.1242 29.6796C32.0716 29.5928 31.9608 29.62 31.8754 29.5947C31.7801 29.5893 31.7022 29.5229 31.6077 29.5287C31.5493 29.5276 31.4962 29.49 31.4403 29.4742C31.3927 29.4565 31.3372 29.4831 31.2919 29.447C31.1891 29.3959 31.066 29.3814 30.9576 29.3415C30.5716 29.239 30.2133 29.0836 29.8434 28.9471C29.6938 28.8796 29.5469 28.8056 29.3925 28.749C29.3047 28.7187 29.1406 28.6454 29.1157 28.5525C29.1076 28.5031 29.1649 28.4952 29.1973 28.5133C29.2633 28.5591 29.3531 28.5565 29.4105 28.619C29.6528 28.7158 29.8989 28.8017 30.139 28.9023C30.5724 29.0574 31.0121 29.2016 31.4595 29.3119C31.6752 29.3648 31.8872 29.4312 32.1068 29.468C32.1545 29.4691 32.2215 29.5171 32.258 29.4757C32.2539 29.3696 32.1047 29.4181 32.0385 29.3737C31.9595 29.3361 31.8757 29.3405 31.7913 29.3269C31.719 29.3049 31.6501 29.2702 31.5711 29.2738C31.4991 29.2549 31.4376 29.1978 31.3559 29.2084C31.2721 29.1997 31.2069 29.1271 31.1155 29.1396C31.0558 29.1331 31.0023 29.0736 30.9365 29.0816C30.6463 28.9792 30.3424 28.9007 30.0608 28.7679C29.9938 28.7286 29.9091 28.7141 29.835 28.6893C29.7659 28.6212 29.6719 28.6009 29.5865 28.5706C29.4856 28.4945 28.8872 28.3499 29.0957 28.1947C29.7688 28.4904 30.4457 28.7575 31.1493 28.9739C31.5122 29.0565 31.8677 29.1719 32.2355 29.2381C32.2727 29.2441 32.3104 29.2386 32.3438 29.266C32.3619 29.2808 32.3837 29.2666 32.3984 29.2481C32.4623 29.1929 32.2336 29.1366 32.1975 29.142C32.0879 29.1416 31.9904 29.0715 31.8757 29.0795C31.8075 29.0788 31.7366 29.035 31.6719 29.0182C31.5843 29.0312 31.5214 28.969 31.4428 28.9537C31.2592 28.9417 31.0993 28.8411 30.9212 28.813C30.6155 28.6881 30.2931 28.5996 29.9909 28.4606C29.8933 28.4383 28.6298 27.8742 29.1485 27.9446C30.0916 28.3951 31.0889 28.7357 32.1165 28.9556C32.1666 28.9655 32.6433 29.0774 32.5212 28.9569C32.0758 28.8575 31.629 28.755 31.1926 28.6233C30.756 28.4963 30.3399 28.3156 29.918 28.1476C29.8596 28.1133 29.8095 28.0694 29.7434 28.0484C29.6983 28.0256 29.6552 27.9985 29.6114 27.9734C29.62 27.9496 29.636 27.924 29.6553 27.9441C29.6992 27.9897 29.7607 27.9731 29.8085 27.9975C30.5828 28.2986 31.3956 28.5521 32.2205 28.7204C32.3022 28.7358 32.3832 28.7721 32.4705 28.7583C32.5309 28.7751 32.5873 28.812 32.6531 28.7894C32.7262 28.7397 32.5843 28.6872 32.5386 28.6968C32.0981 28.6382 31.6676 28.4888 31.2393 28.3596C31.0929 28.3193 30.9601 28.2421 30.8114 28.2095C30.744 28.1764 30.7126 28.1736 30.695 28.0865L30.6945 28.0887L30.6947 28.0888ZM33.611 35.6792C33.6734 35.5608 33.934 35.5858 33.8453 35.4501C33.7905 35.448 33.7317 35.4401 33.6829 35.3915C33.7029 35.0645 33.7242 35.3187 33.5933 35.029C33.4841 35.0437 33.4003 34.9975 33.3315 34.9306C33.1418 34.938 32.9706 34.9274 32.7904 34.9015C32.4329 34.9194 32.0873 34.8599 31.7318 34.8707C31.6198 34.8747 31.5173 34.917 31.404 34.9011C31.2721 34.8858 31.1532 34.9368 31.0245 34.9311C30.1826 35.107 31.5667 35.5106 31.7709 35.6361C31.8482 35.6454 31.9252 35.6844 32.0003 35.6998C32.0673 35.6998 32.098 35.7386 32.1233 35.7941C32.0251 35.878 31.8819 35.7979 31.7677 35.8C31.6671 35.7949 31.5589 35.809 31.4608 35.7954C31.3833 35.7575 31.3017 35.774 31.2218 35.7698C31.1242 35.7743 31.0435 35.7201 30.9464 35.736C30.8795 35.7464 30.8243 35.7157 30.761 35.702C30.6765 35.6992 30.5903 35.711 30.5099 35.6731C30.4021 35.6911 30.3008 35.6443 30.1951 35.6417C30.1408 35.6406 30.1477 35.5886 30.0937 35.5715C30.0661 35.6885 30.1184 35.7972 30.1322 35.9144C30.1521 36.1516 30.1942 36.3935 30.2195 36.6289C30.2821 36.8175 30.2655 37.0234 30.3166 37.212C30.3554 37.3263 30.3376 37.4542 30.3645 37.5733C30.3763 37.6736 30.4162 37.7715 30.3995 37.8752C30.4824 38.1299 30.4572 38.4155 30.5442 38.6729C30.6241 38.6204 30.6755 38.5198 30.7952 38.5284C30.9124 38.4432 31.0545 38.4781 31.1904 38.4677C31.3322 38.4558 31.4487 38.5419 31.5573 38.6191C31.6532 38.7006 31.6864 38.8236 31.739 38.9319C31.7526 39.0321 31.7652 39.1953 31.9117 39.128C31.9336 39.1186 31.9661 39.1089 31.9837 39.1184C32.1764 39.2067 32.3368 39.337 32.3951 39.55C32.4777 39.7651 32.8056 39.5288 32.958 39.5025C33.2372 39.4387 32.6474 39.4101 32.8 39.2062C32.9003 39.0984 32.7128 39.0477 32.8075 38.8785C32.8158 38.824 32.7549 38.8169 32.7171 38.8374C32.5936 38.8988 32.4611 38.8862 32.3299 38.8874C32.025 38.8425 32.2857 38.6053 32.4578 38.5957C32.4813 38.5945 32.5057 38.5783 32.5266 38.5643C32.5786 38.5256 32.6298 38.5442 32.6869 38.5107C32.6475 38.4431 32.6011 38.3925 32.5315 38.3592C32.5011 38.2851 32.4351 38.241 32.3823 38.1864C32.1908 37.9483 32.295 37.9297 32.5413 37.9813C32.5923 37.8122 32.691 37.7988 32.8444 37.8472C33.1543 38.0194 32.9959 38.1598 33.3359 38.1154C33.4019 38.1821 33.4805 38.2269 33.5293 38.3036C33.5653 38.3485 33.6121 38.3932 33.6748 38.3534C33.6741 38.282 33.7059 38.1538 33.5973 38.1486C33.4661 38.16 33.3654 38.113 33.4502 37.9735C33.5391 37.9145 33.4784 37.8566 33.4092 37.8221C33.2778 37.747 33.1346 37.6952 33.0229 37.5815C32.8821 37.469 32.8554 37.2667 33.0752 37.2806C33.2784 37.2565 33.5088 37.5128 33.679 37.4423C33.816 37.3459 33.9442 37.4816 34.0869 37.4624C34.1043 37.3866 34.075 37.22 33.9891 37.2536C33.8856 37.286 33.7801 37.3677 33.6725 37.3694C33.5772 37.3276 33.5465 37.3325 33.551 37.2194C33.5225 37.1041 33.6292 37.0477 33.6435 36.9415C33.5967 36.9221 33.5579 36.922 33.5163 36.9439C33.3396 37.0189 33.2615 36.7988 33.438 36.7225C33.6802 36.5311 32.8243 36.587 32.9478 36.3019C32.9973 36.2673 33.1182 36.229 33.0258 36.1656C32.9432 36.1225 32.9303 36.0558 32.9482 35.9711C33.0085 35.95 33.0684 35.9604 33.1272 35.9621C33.1991 35.9983 33.2641 36.0564 33.3434 36.0775C33.4014 36.04 33.3951 35.9699 33.4702 35.9515C33.5744 35.8664 33.6782 35.827 33.6111 35.6792L33.611 35.6792ZM29.6188 32.1246C29.854 31.9276 30.1518 31.8436 30.3758 31.6303C30.5467 31.4887 30.7529 31.3872 30.9058 31.2245C30.9255 31.0184 31.022 30.8366 31.1753 30.6967C31.2011 30.6731 31.2108 30.6238 31.2424 30.6054C31.3466 30.5567 31.4075 30.4599 31.4886 30.386C31.5463 30.3334 31.5373 30.2825 31.4709 30.2425C31.2872 30.1553 31.2908 29.9436 31.054 30.1125C30.9414 30.1798 30.8369 30.281 30.7182 30.3325C30.6377 30.3506 30.597 30.4056 30.5582 30.4664C30.4888 30.5681 30.4482 30.711 30.3166 30.7458C29.9419 30.8454 29.7859 30.8476 30.0249 31.258C30.1129 31.5261 29.6948 31.2132 29.6424 31.1613C29.5884 31.1173 29.5094 31.0999 29.4847 31.0218C29.4186 30.9837 29.4239 31.1203 29.4481 31.1649C29.4765 31.2169 29.4623 31.2853 29.4758 31.3377C29.5066 31.399 29.5019 31.4628 29.4981 31.5256C29.4926 31.6164 29.541 31.6986 29.5333 31.7888C29.6109 31.8972 29.5158 32.0227 29.6188 32.1247V32.1246ZM33.4434 38.9945C33.3172 38.9523 33.2419 39.0855 33.1279 39.1157C33.037 39.2218 33.3589 39.1663 33.4149 39.1788C33.5386 39.1842 33.443 39.05 33.4434 38.9945V38.9945ZM33.7119 36.1232C33.7819 36.2178 33.7949 36.2291 33.8682 36.2581C33.8635 36.1921 33.8794 36.1294 33.8573 36.0666C33.7956 36.0517 33.7433 36.0494 33.7119 36.1232V36.1232ZM34.0503 36.4046C34.0286 36.3408 33.9935 36.339 33.9478 36.3552C33.9614 36.4096 33.9936 36.4202 34.0503 36.4046ZM30.6904 39.7919C30.7064 39.8009 30.7145 39.8012 30.7193 39.7812C30.7028 39.7705 30.6956 39.7725 30.6904 39.7919ZM30.9972 41.7351C31.011 41.7221 31.0112 41.7126 30.9975 41.6994C30.9828 41.7124 30.983 41.7218 30.9972 41.7351ZM30.5835 38.8905C30.5839 38.8733 30.5727 38.8803 30.5615 38.8806C30.5691 38.8891 30.5712 38.9034 30.5835 38.8905ZM31.1351 42.5776C31.1329 42.5744 31.1307 42.5713 31.1285 42.5681C31.1237 42.5782 31.1115 42.5868 31.1254 42.5956C31.1287 42.5896 31.1319 42.5836 31.1351 42.5776ZM30.0367 35.0961C30.034 35.0892 30.0312 35.0823 30.0285 35.0754C30.0151 35.0813 30.0208 35.0927 30.0217 35.104C30.0267 35.1014 30.0317 35.0988 30.0367 35.0961ZM13.2662 33.8768C13.3368 33.9256 13.3457 34.0318 13.4416 34.0781C13.4736 33.8984 13.4316 33.7135 13.4635 33.5383C13.4959 33.4909 13.4886 33.4409 13.4907 33.3906C13.4945 33.302 13.4821 33.2136 13.5156 33.1256C13.5374 33.0223 13.522 32.8818 13.6359 32.8212C13.6695 32.8518 13.704 32.8831 13.7452 32.9206C13.7377 33.0673 13.7487 33.2133 13.7769 33.3579C13.7781 33.4861 13.7763 33.6144 13.778 33.7426C13.7926 33.8148 13.6886 33.9088 13.7914 33.9458C13.8426 33.8927 13.973 33.6794 14.0281 33.8354C14.0413 33.8947 13.9806 34.0266 14.0718 34.0293C14.1543 34.0047 14.2549 34.0104 14.3333 33.9946C14.4669 33.9331 14.6075 33.989 14.7456 33.9398C14.8626 33.9083 14.996 33.9635 15.1127 33.9127C15.2656 33.8914 15.4298 33.9108 15.5857 33.9049C15.6568 33.891 15.7149 33.9347 15.7857 33.9335C15.9076 33.9174 16.0174 33.9709 16.1391 33.965C16.198 33.9526 16.2439 33.9871 16.2974 34.0012C16.4429 33.987 16.5823 34.0415 16.7285 34.0343C16.9746 34.0119 17.2254 34.0627 17.4683 34.01C17.5674 33.9798 17.6837 34.0314 17.7818 33.9766C17.8115 33.9593 17.8566 33.9641 17.8944 33.9657C18.0185 33.9709 18.1392 33.9563 18.2566 33.9144C18.4433 33.8991 18.625 33.872 18.7884 33.774C18.9322 33.6641 19.0968 33.5848 19.2259 33.4541C19.3506 33.2693 19.3282 33.0237 19.4001 32.8167C19.3936 32.7084 19.4435 32.6111 19.4675 32.5104C19.4777 32.2979 19.5275 32.0861 19.5812 31.8795C19.6055 31.7561 19.6113 31.6282 19.6587 31.5104C19.6537 31.334 19.7915 31.153 19.694 30.9789C19.6852 30.9646 19.6781 30.9432 19.6652 30.9384C19.6002 30.9141 19.5842 30.8442 19.535 30.8047C19.4887 30.7676 19.4478 30.7227 19.4089 30.6774C19.2997 30.5496 19.133 30.5222 18.9813 30.4757C18.8513 30.4455 18.7227 30.3506 18.5888 30.3696C18.5285 30.469 18.4454 30.6038 18.3374 30.4756C18.0269 30.1204 17.6145 29.8948 17.1928 29.696C16.9962 29.588 16.7728 29.5464 16.5817 29.4221C16.4232 29.2534 16.2873 29.0375 16.0663 28.9403C15.9199 28.86 15.7701 28.8089 15.6084 28.7637C15.4828 28.7071 15.4788 28.883 15.4574 28.9673C15.3941 29.1416 15.536 29.2774 15.5475 29.4429C15.607 29.6771 15.7834 29.8739 15.8624 30.1001C15.8506 30.2185 15.8883 30.3538 15.8408 30.4613C15.7815 30.4427 15.7451 30.383 15.7198 30.331C15.675 30.215 15.584 30.1276 15.5326 30.0163C15.4455 29.959 14.8918 29.1816 14.9345 29.5866C14.8815 29.9034 15.1035 30.6902 14.6656 30.7526C14.4097 30.7913 14.211 30.5568 13.9679 30.5775C13.7605 30.6534 13.5642 30.7476 13.3941 30.8917C13.3359 30.9443 13.2062 31.0282 13.2019 30.8928C13.1714 30.1793 13.2337 30.4868 13.5127 29.9662C13.3963 29.9069 13.1893 29.9238 13.2448 29.7301C13.3894 29.6933 13.5574 29.8705 13.6791 29.7363C13.5674 29.7125 13.4796 29.6636 13.3765 29.6583C13.2911 29.6594 13.1586 29.5258 13.2688 29.4711C13.3473 29.5044 13.4368 29.4847 13.5149 29.5237C13.5573 29.54 13.6251 29.5169 13.6655 29.5394C13.7299 29.5847 13.7959 29.5632 13.8711 29.5589C13.852 29.4161 13.6584 29.4942 13.5643 29.4584C13.4728 29.3727 13.324 29.4453 13.2531 29.342C13.2302 29.3137 13.2313 29.3125 13.2478 29.2138C13.275 29.2138 13.3097 29.2034 13.3313 29.2157C13.3881 29.2486 13.4607 29.2228 13.5115 29.2697C13.6016 29.2649 13.683 29.3161 13.7741 29.309C13.8652 29.3052 13.9355 29.3593 14.0316 29.3269C13.9812 29.1971 13.7144 29.22 13.5918 29.2075C13.5066 29.1898 13.4294 29.1369 13.3372 29.1387C13.307 29.1405 13.2752 29.1155 13.2413 29.1016C13.2336 29.0544 13.2123 28.9658 13.2681 28.9556C13.4813 29.0016 13.6993 29.03 13.909 29.0793C13.9634 29.0731 14.3546 29.1206 14.2272 29.0205C14.0785 29.0118 13.9281 29.0268 13.7874 28.9704C13.6278 28.9504 13.4764 28.9196 13.3241 28.8657C13.2283 28.8302 13.2306 28.8237 13.2434 28.7125C13.2505 28.7083 13.2583 28.6997 13.2644 28.7007C13.4625 28.7193 14.4504 28.9875 14.5024 28.7748C14.303 28.7214 14.0881 28.7913 13.8861 28.7354C13.7014 28.7036 13.5158 28.6621 13.3365 28.6031C13.229 28.5693 13.2294 28.5683 13.2456 28.4455C13.2685 28.4438 13.2943 28.4361 13.3173 28.4412C13.5234 28.4791 13.7206 28.5665 13.9325 28.5666C13.9707 28.5661 14.0079 28.566 14.0441 28.5865C14.2445 28.6267 14.448 28.6358 14.6516 28.6276C14.8225 28.562 14.9477 28.3872 15.1369 28.3417C15.237 28.3081 15.2388 28.3078 15.3424 28.3419C15.7939 28.4868 16.2029 28.7295 16.6287 28.9324C16.6758 28.9692 16.7097 28.9161 16.759 28.932C16.8279 28.9524 16.8786 29.0157 16.9443 29.0395C17.2157 29.171 17.4925 29.2965 17.7944 29.3386C17.9579 29.3616 18.1146 29.4103 18.2821 29.4021C18.4516 29.4173 18.6229 29.467 18.7966 29.4088C18.9099 29.3723 19.0513 29.4379 19.1621 29.3772C19.3845 29.361 19.6193 29.3341 19.8263 29.242C19.9262 29.257 20.0087 29.2007 20.0923 29.1675C20.2352 29.1326 20.4466 29.0962 20.395 29.3167C20.3691 29.493 20.3156 29.6605 20.2953 29.8358C20.1528 30.4702 20.0481 31.1191 19.9144 31.7588C19.7749 32.4373 19.6525 33.1141 19.5088 33.793C19.4584 34.0545 19.4185 34.3237 19.3533 34.5823C19.3304 34.6939 19.3329 34.8081 19.283 34.9137C19.2722 35.0401 19.2618 35.1656 19.2142 35.2852C19.2132 35.3708 19.2085 35.4559 19.1672 35.5321C19.1305 35.6482 19.1383 35.7726 19.1013 35.8901C19.0976 35.9192 19.0823 35.9486 19.0857 35.9763C19.0987 36.0861 19.0349 36.1801 19.017 36.2824C19.0188 36.3896 18.998 36.4918 18.9606 36.5917C18.9507 36.6931 18.9548 36.7948 18.9087 36.8897C18.8744 36.9822 18.9024 37.0838 18.8542 37.1728C18.8106 37.3017 18.8317 37.4399 18.7774 37.5677C18.7501 37.6739 18.7464 37.7826 18.7137 37.8877C18.6962 37.9926 18.6884 38.0954 18.6512 38.1955C18.6136 38.4413 18.5737 38.6857 18.504 38.9215C18.5111 39.0379 18.482 39.1473 18.4478 39.2565C18.4317 39.3395 18.4516 39.4262 18.4118 39.5063C18.3528 39.6235 18.3813 39.7639 18.3265 39.8854C18.2886 39.9593 18.3335 40.0432 18.2898 40.1214C18.2205 40.2506 18.2556 40.4131 18.2023 40.5527C18.1544 40.6234 18.2099 40.7145 18.1622 40.7871C18.1208 40.8505 18.1191 40.9216 18.1143 40.9949C18.1098 41.0897 18.063 41.1836 18.0561 41.2778C18.0661 41.3572 18.0176 41.4251 18.0162 41.5016C17.9776 41.5444 17.9912 41.5977 17.9849 41.6475C17.9542 41.822 17.9198 41.9925 17.8766 42.1636C17.7467 42.8446 17.6139 43.533 17.4694 44.2107C17.4429 44.3349 17.4369 44.5687 17.2399 44.4274C17.1671 44.4061 17.0883 44.2857 17.1401 44.2176C17.1494 44.2051 17.1551 44.1864 17.1548 44.1708C17.1475 44.0579 17.1958 43.9563 17.2145 43.8486C17.2047 43.7496 17.2581 43.6651 17.2746 43.5672C17.288 43.4576 17.294 43.3494 17.3371 43.246C17.3494 43.1367 17.3564 43.028 17.4018 42.9256C17.4124 42.8114 17.4316 42.7015 17.4678 42.5924C17.4708 42.4941 17.4858 42.3993 17.5187 42.3069C17.5661 42.0907 17.5859 41.859 17.6574 41.6452C17.7049 41.462 17.5898 41.5424 17.5061 41.6087C17.4137 41.6913 17.3175 41.6368 17.224 41.595C16.9955 41.6403 16.9439 41.9025 17.1353 42.0276C17.329 42.1343 17.1408 42.235 17.0181 42.282C16.9397 42.3167 16.8902 42.3758 16.8504 42.4489C16.7517 42.718 17.195 43.0906 16.8023 43.397C16.5704 43.5679 16.3564 43.3866 16.1448 43.6713C16.0513 43.6678 16.0024 43.6002 15.9378 43.5637C15.8765 43.5291 15.815 43.4901 15.7662 43.4347C15.6123 43.3265 15.465 43.2031 15.3175 43.0852C14.6794 42.5675 14.0936 41.9886 13.5488 41.3714C13.4392 41.2042 13.232 41.0725 13.2008 40.8681C13.2637 38.5551 13.0782 36.1423 13.2664 33.8767L13.2662 33.8768ZM15.3374 39.4848C15.3083 39.5628 15.2294 39.563 15.1515 39.5844C15.525 39.9875 14.7761 39.7335 15.1444 40.0001C15.2736 39.9352 15.4554 39.926 15.5583 40.041C15.5781 40.0724 15.607 40.0997 15.6502 40.1063C15.7009 40.0197 15.7711 39.9499 15.8489 39.8938C16.0159 39.7696 16.2141 39.6997 16.4141 39.6594C16.5468 39.6568 16.6751 39.6523 16.8046 39.6925C16.9126 39.6846 16.9876 39.7901 17.1012 39.7483C17.2461 39.4746 17.5408 39.1709 17.8792 39.264C17.9477 39.2885 18.019 39.3336 18.0997 39.2954C18.2123 38.9645 18.2376 38.6066 18.3222 38.2657C18.3341 38.1161 18.3899 37.9674 18.4098 37.8235C18.4159 37.7298 18.4615 37.6444 18.4307 37.5513C18.1599 37.4606 17.8756 37.4412 17.5974 37.4029C17.4214 37.3264 17.2245 37.4206 17.0441 37.3471C16.9534 37.3371 16.8551 37.3493 16.7626 37.3441C16.6872 37.3477 16.626 37.2996 16.551 37.3127C16.451 37.3066 16.3416 37.3237 16.2446 37.306C16.1965 37.2792 16.1461 37.2833 16.0953 37.2812C16.0785 37.2805 16.058 37.2819 16.0456 37.2732C15.9643 37.2218 15.8708 37.2712 15.7869 37.223C15.6679 37.1714 15.5256 37.1877 15.4129 37.1194C15.2993 37.1069 15.1998 37.0438 15.0798 37.0305C14.9962 37.0771 15.0524 37.1691 15.0241 37.2345C14.9583 37.3277 14.6922 37.4101 14.8954 37.5234C15.0058 37.4776 15.1369 37.3168 15.2582 37.4022C15.2248 37.474 15.1969 37.5432 15.1169 37.5743C15.0759 37.5903 15.0487 37.6237 15.0344 37.6678C15.0908 37.7473 15.0873 37.8781 14.969 37.8921C14.7956 37.9718 15.0711 38.0291 14.7119 38.2037C14.8056 38.2747 15.0789 38.4421 14.8898 38.5387C14.8156 38.5771 14.8155 38.7139 14.9147 38.7245C15.0066 38.6545 15.1663 38.4613 15.2908 38.519C15.3689 38.5701 15.4155 38.4731 15.4696 38.4347C15.6572 38.2794 15.7495 38.4357 15.5983 38.5943C15.2592 38.9291 15.3413 38.827 15.7258 38.8653C15.7759 39.0494 15.6148 38.9987 15.5264 39.09C15.8004 39.2739 15.533 39.3649 15.3249 39.3729C15.2847 39.392 15.3335 39.4494 15.3374 39.4848H15.3374ZM14.8694 35.942C14.8008 36.0413 14.5986 36.0346 14.6525 36.1983C14.6796 36.3142 14.7692 36.3758 14.8778 36.416C14.989 36.4576 15.0882 36.5152 15.1962 36.5616C15.6583 36.7558 16.0887 37.0984 16.6115 37.0929C16.7911 37.1603 16.9852 37.0662 17.1629 37.1522C17.1799 37.161 17.205 37.1548 17.2263 37.1548C17.469 37.1417 17.7045 37.2199 17.9459 37.2161C18.0154 37.2551 18.0942 37.2398 18.1675 37.2586C18.2362 37.2974 18.3195 37.2696 18.3881 37.3102C18.5455 37.3391 18.5313 37.2348 18.5412 37.1179C18.5936 36.9785 18.5933 36.8288 18.6321 36.6876C18.6695 36.5237 18.6933 36.3592 18.7294 36.1951C18.7519 36.1105 18.7403 36.0189 18.7885 35.9396C18.8068 35.9095 18.79 35.8714 18.7584 35.8511C18.1563 35.6781 17.5357 35.5702 16.9426 35.358C16.2904 35.1474 15.6626 34.8303 14.9812 34.7356C14.8784 34.7497 14.7791 34.7373 14.6796 34.7057C14.5686 34.7057 14.4573 34.7011 14.3466 34.7075C14.2832 34.7111 14.226 34.7402 14.1921 34.8043C14.2769 34.8628 14.3332 34.9404 14.4351 34.9639C14.5321 34.9858 14.6377 35.0726 14.5696 35.1746C14.2559 35.2835 14.5088 35.2507 14.4392 35.5129C14.5065 35.6191 14.5602 35.5212 14.5532 35.7214C14.6081 35.7438 14.7734 35.689 14.8326 35.6612C14.8717 35.6368 14.9122 35.638 14.9524 35.6515C14.964 35.746 14.9686 35.7514 14.9311 35.784C14.8805 35.8279 14.866 35.8814 14.8693 35.9419L14.8694 35.942ZM20.0313 29.4177C19.976 29.3943 19.9227 29.3901 19.8851 29.4083C19.7895 29.4669 19.6814 29.456 19.5829 29.4894C19.4462 29.525 19.3087 29.5351 19.1672 29.5293C19.088 29.5317 19.0261 29.5838 18.9452 29.5659C18.7201 29.5555 18.4884 29.5995 18.2748 29.5294C18.0478 29.5496 17.8317 29.4443 17.6092 29.4469C17.8982 29.7746 18.7648 29.6455 19.1904 29.653C19.3888 29.583 19.606 29.6033 19.8025 29.5201C19.8883 29.4794 19.984 29.5286 20.0314 29.4177H20.0313ZM18.2784 29.8042C18.3508 29.9961 18.7035 29.89 18.8706 29.9145C18.9759 29.9121 19.0836 29.9338 19.1856 29.8857C19.2753 29.8903 19.3608 29.8525 19.4485 29.853C19.5538 29.8605 19.6493 29.7863 19.7558 29.7919C19.8384 29.7763 19.9236 29.77 19.9789 29.7033C19.8928 29.6245 19.7537 29.7511 19.6276 29.7256C19.5642 29.7706 19.4861 29.7434 19.4185 29.7651C19.3035 29.816 19.1735 29.7773 19.0516 29.7897C18.9764 29.7841 18.9135 29.8303 18.8396 29.8208C18.6463 29.8484 18.4697 29.7608 18.2783 29.8042L18.2784 29.8042ZM18.7375 30.0564C18.7811 30.2908 19.1196 30.1246 19.276 30.1361C19.3633 30.0872 19.4612 30.1242 19.5504 30.0998C19.6412 30.0586 19.7354 30.0447 19.8343 30.0462C19.8831 30.047 19.8922 30.0307 19.9022 29.9588C19.7464 29.9351 19.5998 30.0219 19.442 30.0113C19.4003 30.0102 19.3529 30.0076 19.3179 30.0253C19.1307 30.0821 18.93 30.0261 18.7374 30.0565L18.7375 30.0564ZM14.3017 35.317C14.1784 35.3862 13.9604 35.4993 14.0903 35.6418C14.1871 35.6046 14.1768 35.4947 14.2445 35.4416C14.2701 35.4216 14.2758 35.3763 14.3017 35.317ZM30.1436 22.4755C30.0823 22.6523 29.8385 22.7236 29.7077 22.8424C29.3867 23.0514 29.0545 23.2435 28.7406 23.4647C28.6748 23.5106 28.6206 23.5704 28.6006 23.6551C28.5656 23.8038 28.4771 23.9409 28.4303 24.0845C28.2955 24.1807 27.9168 23.6417 27.7726 23.5514C27.7277 23.5615 27.7237 23.5946 27.7347 23.6135C27.7672 23.6689 27.7573 23.7292 27.7652 23.7911C27.8213 23.8389 27.8597 23.9074 27.9335 23.9419C27.96 23.9542 27.968 24.0041 27.9945 24.0185C28.1213 24.1118 28.3461 24.2831 28.3432 24.4475C28.3423 24.4981 28.3396 24.5482 28.3632 24.5979C28.3898 24.6812 28.3477 24.7796 28.3979 24.8604C28.4208 24.9446 28.3859 25.0397 28.4338 25.1228C28.4565 25.2146 28.4169 25.321 28.4659 25.4119C28.4841 25.505 28.4509 25.6079 28.4963 25.7009C28.5134 25.8368 28.531 25.9798 28.5362 26.1167C28.5592 26.2976 28.6041 26.4739 28.6013 26.6548C28.622 26.8107 28.6589 26.9601 28.6601 27.1188C28.6621 27.169 28.6493 27.2222 28.6893 27.2653C28.6993 27.3721 28.7067 27.4843 28.7271 27.5919C28.7361 27.6714 28.7194 27.7529 28.7538 27.831C28.768 27.8942 28.7454 27.9675 28.7769 28.0314C28.8143 28.1391 28.7629 28.2631 28.8205 28.3687C28.8392 28.4342 28.8087 28.5165 28.8471 28.5818C28.8567 28.5989 28.8548 28.6232 28.8555 28.6442C28.8584 28.7285 28.846 28.8139 28.885 28.895C28.9008 28.9387 28.875 29.0036 28.892 29.0473C28.9302 29.1246 28.9165 29.2059 28.9188 29.286C28.9202 29.3328 28.923 29.3767 28.944 29.422C28.9696 29.4775 28.9534 29.5305 28.887 29.5665C28.787 29.4848 28.6977 29.3871 28.6059 29.2959C28.5043 29.1115 28.2246 28.9769 28.2155 28.7772C28.2157 28.7306 28.2184 28.6843 28.1897 28.6416C28.1687 28.583 28.1927 28.5151 28.1587 28.4555C28.1256 28.3475 28.1714 28.225 28.1223 28.1158C28.0998 28.0277 28.1373 27.928 28.0947 27.839C28.0783 27.803 28.0869 27.7553 28.0853 27.7129C28.0985 27.612 28.0517 27.5246 28.054 27.4237C28.0592 27.3421 28.0109 27.2723 28.0202 27.1869C28.0156 27.1113 28.0299 27.0351 27.9925 26.9611C27.9742 26.812 27.9492 26.6582 27.9571 26.5064C27.9466 26.4213 27.9302 26.3266 27.9195 26.2445C27.8781 26.1861 27.8915 26.1219 27.8888 26.0592C27.8974 25.8593 27.8233 25.6698 27.8298 25.467C27.8389 25.4094 27.8145 25.3604 27.797 25.3076C27.813 25.1703 27.7488 25.0406 27.7603 24.9033C27.7808 24.8165 27.7335 24.7389 27.7315 24.6525C27.7306 24.6311 27.7374 24.6063 27.7288 24.589C27.6825 24.4956 27.706 24.3964 27.6988 24.2998C27.6804 24.1389 27.6413 23.9871 27.6339 23.825C27.6292 23.7453 27.6475 23.6641 27.6066 23.5868C27.5932 23.489 27.6041 23.3146 27.457 23.3273C27.3463 23.3543 27.0003 23.2587 26.9909 23.4099C26.9884 23.6843 26.978 23.955 27.0208 24.225C27.0257 24.2873 27.009 24.3508 27.0511 24.4105C27.0709 24.4597 27.0401 24.5303 27.0019 24.5727C26.9735 24.577 26.9408 24.5746 26.9159 24.5873C26.8396 24.6506 26.7761 24.5473 26.7004 24.5971C26.5973 24.6473 26.4898 24.5328 26.3805 24.5962C26.3179 24.6308 26.2599 24.5918 26.1984 24.5834C26.1197 24.6073 26.0758 24.5877 25.9975 24.6348C26.0006 24.7083 25.9768 24.7849 26.0207 24.8579C26.0432 24.9418 26.0125 25.0364 26.0539 25.1212C26.076 25.1699 26.0316 25.2216 25.9727 25.2244C25.7685 25.2245 25.5649 25.2217 25.3692 25.2868C25.2631 25.3166 25.2456 25.4534 25.2233 25.5463C25.2324 25.9544 25.6752 26.1049 25.7737 26.4749C25.7842 26.5088 25.8169 26.5358 25.841 26.5682C25.9545 26.5629 26.0573 26.6101 26.1699 26.6089C26.4088 26.6403 26.6398 26.7312 26.8713 26.798C26.8912 26.8045 26.9173 26.8053 26.9297 26.8187C26.9964 26.8905 27.092 26.9272 27.1529 27.0057C27.1921 27.0331 27.1999 27.1263 27.1332 27.1079C27.0574 27.0471 26.9931 26.972 26.9073 26.9233C26.8335 26.8383 26.7154 27.0494 26.5854 27.0481C26.433 27.0813 26.2817 27.1274 26.1246 27.1222C26.0549 27.1699 25.9768 27.151 25.9016 27.1547C25.7293 27.1842 25.5572 27.1941 25.3812 27.1824C25.283 27.194 25.189 27.1718 25.0989 27.2271C25.1082 27.3833 24.9847 27.4258 24.8901 27.5281C24.8133 27.4693 24.7276 27.4075 24.7045 27.3111C24.617 27.0483 24.1499 27.2391 23.9548 27.2721C23.7011 27.3128 23.4379 27.3331 23.1829 27.2943C23.0685 27.2827 22.9597 27.2573 22.8537 27.2142C22.8295 27.2043 22.7842 27.2243 22.7875 27.1788C22.7963 27.1383 22.8673 27.1621 22.8985 27.1429C22.8911 27.106 22.8442 27.0711 22.7578 27.0384C22.6932 27.0813 22.6839 27.1575 22.6527 27.2208C22.6649 27.3115 22.6007 27.3919 22.6178 27.4833C22.5724 27.5753 22.5889 27.6745 22.5835 27.7714C22.5804 27.8261 22.545 27.874 22.5518 27.9325C22.5721 28.0119 22.5092 28.0756 22.5209 28.1568C22.5176 28.2156 22.5313 28.2759 22.4965 28.3317C22.4805 28.4031 22.5018 28.4843 22.467 28.5569C22.4428 28.6784 22.4852 28.9011 22.2927 28.8902C22.1309 28.8553 21.4877 28.9666 21.4627 28.8134C21.4957 28.7806 21.7294 28.5545 21.5612 28.5811C21.5192 28.6239 21.4713 28.6574 21.4207 28.6889C21.3258 28.7337 21.272 28.8551 21.1508 28.8157C21.1298 28.7515 21.1604 28.6691 21.2218 28.637C21.342 28.5885 21.4262 28.4891 21.5309 28.4165C21.6112 28.365 21.7321 28.27 21.6661 28.162C21.498 28.2373 21.4121 28.4199 21.24 28.4941C21.0476 28.3511 21.7935 28.0863 21.7507 27.7981C21.7539 27.6236 21.824 27.4496 21.8136 27.2716C21.8571 27.1717 21.8268 27.062 21.8751 26.9635C21.8917 26.9085 21.8676 26.8433 21.8983 26.7882C21.909 26.7668 21.9081 26.7388 21.9092 26.7135C21.9117 26.6585 21.902 26.6018 21.9346 26.5517C21.9371 26.4291 21.9571 26.3055 21.913 26.1763C21.9359 26.15 21.9632 26.1185 21.9961 26.0806C21.9399 25.9906 22.0436 25.9147 22.0376 25.8216C22.0361 25.7751 22.034 25.729 22.0626 25.6856C22.0901 25.6172 22.0478 25.528 22.0976 25.4623C22.1113 25.3386 22.1274 25.2115 22.1541 25.0883C22.1698 24.9719 22.1766 24.8539 22.1992 24.7375C22.2596 24.5679 22.2508 24.4731 22.0855 24.3753C22.0057 24.3241 21.9065 24.2277 21.914 24.1251C21.9512 24.0743 21.9304 24.0093 21.9656 23.9563C22.0418 23.7572 21.8921 23.4457 21.6594 23.4635C21.6477 23.5682 21.6365 23.6688 21.5974 23.7632C21.6008 23.8593 21.573 23.9443 21.5391 24.032C21.5136 24.1096 21.5347 24.1932 21.4954 24.2673C21.4479 24.4064 21.4604 24.5587 21.3982 24.6954C21.4019 24.7948 21.3687 24.8862 21.3423 24.9793C21.3287 25.059 21.3383 25.1407 21.2975 25.2141C21.2348 25.4436 21.2218 25.6864 21.1472 25.9131C21.1306 26.0055 21.1518 26.1012 21.0957 26.1845C21.0837 26.2057 21.0735 26.2328 21.0753 26.2562C21.0919 26.3754 21.0168 26.4758 21.0119 26.5897C21.0272 26.7172 20.9443 26.8228 20.9447 26.9486C20.9012 27.1102 20.8725 27.2762 20.8367 27.4395C20.8336 27.4559 20.8205 27.4723 20.8224 27.4875C20.8355 27.5936 20.7732 27.6822 20.7545 27.7809C20.7626 27.898 20.7123 28.0026 20.6875 28.1126C20.6722 28.3571 20.567 28.5709 20.559 28.8189C20.3307 29.0425 20.4121 28.6257 20.1864 28.8043C20.1367 28.8244 20.0765 28.8234 20.039 28.8729C20.0309 28.8836 20.0073 28.889 19.9921 28.887C19.8786 28.8816 19.7858 28.9644 19.6712 28.9524C19.6413 28.9489 19.6146 28.9619 19.586 28.9721C19.4369 29.0511 19.2641 28.9764 19.1128 29.0441C19.0929 29.0553 19.0626 29.0489 19.037 29.049C18.8644 29.0354 18.681 29.0811 18.516 29.0243C18.4427 29.0034 18.3515 29.0199 18.2741 29.0152C18.1462 29.0211 18.0638 28.8952 17.9257 28.9217C17.9073 28.8661 18.4156 28.8885 18.4752 28.894C18.6796 28.9774 18.8847 28.8682 19.0915 28.8887C19.2351 28.8725 20.4511 28.6603 20.3873 28.4793C20.3442 28.4622 20.3024 28.4616 20.2595 28.4925C20.1803 28.5496 20.0762 28.5562 19.9986 28.619C19.9486 28.6421 19.8724 28.6108 19.833 28.6668C19.8122 28.6923 19.7828 28.6995 19.752 28.6957C19.6907 28.6884 19.6325 28.7032 19.5787 28.7272C19.4685 28.7736 19.3525 28.7503 19.2376 28.7563C19.2163 28.7567 19.1909 28.7517 19.1745 28.7614C19.0626 28.8223 18.9394 28.7879 18.8241 28.7902C18.7226 28.7072 18.5564 28.8191 18.4908 28.6872C18.5056 28.6546 18.534 28.6649 18.5567 28.6637C18.6367 28.6597 18.7178 28.6736 18.7948 28.6339C18.8831 28.6192 18.9846 28.631 19.0758 28.6298C19.2094 28.6421 19.3318 28.5756 19.4608 28.5676C19.6535 28.5707 19.8208 28.4559 20.0111 28.4365C20.0751 28.416 20.1276 28.3729 20.1989 28.366C20.5772 28.3086 20.4535 28.0807 20.5516 27.8106C20.6519 27.3353 20.7291 26.8503 20.8482 26.3839C21.0082 25.541 21.178 24.7107 21.3637 23.8714C21.359 23.7016 21.4376 23.5715 21.4391 23.3968C21.3646 23.2631 21.2979 23.1157 21.1695 23.02C21.1156 22.8958 20.984 22.8341 20.9239 22.7138C20.8147 22.6028 20.7282 22.4716 20.612 22.3629C20.3914 22.0835 20.1298 21.8384 19.927 21.5481C19.8674 21.4077 20.0918 21.4091 20.175 21.447C20.2433 21.4907 20.3002 21.4336 20.3702 21.4308C20.4215 21.4262 20.4721 21.4863 20.5244 21.4331C20.9602 21.427 21.3966 21.4286 21.8322 21.4314C21.9619 21.4538 21.8983 21.6465 21.9693 21.7328C22.0172 21.9626 21.9377 22.1129 21.8592 22.3219C21.9508 22.4086 21.8749 22.5506 22.0061 22.6302C22.0772 22.6875 22.171 22.5976 22.1684 22.5186C22.1668 22.4553 22.1596 22.3906 22.1945 22.3315C22.1824 22.229 22.1575 22.1143 22.1237 22.0138C22.106 21.9756 22.1048 21.9432 22.1219 21.9044C22.1443 21.8415 22.1285 21.7702 22.1552 21.706C22.1781 21.5998 22.1443 21.4309 22.303 21.4302C23.6409 21.4289 24.979 21.43 26.3169 21.4298C26.4475 21.4247 26.4878 21.5372 26.4769 21.6505C26.4682 21.7566 26.5316 21.8538 26.5253 21.962C26.4995 22.0543 26.4804 22.1488 26.4577 22.243C26.4077 22.3258 26.4846 22.4055 26.4771 22.4901C26.4635 22.7001 26.7216 22.6721 26.7026 22.4669C26.6877 22.3865 26.8021 22.3507 26.7536 22.2708C26.6847 22.1193 26.58 21.9598 26.6712 21.7965C26.6579 21.7091 26.7067 21.6312 26.7057 21.5452C26.702 21.4724 26.7599 21.413 26.8349 21.4301C27.0204 21.4254 27.1997 21.4248 27.3799 21.4625C27.8577 21.4656 28.3379 21.4719 28.8073 21.4202C29.0078 21.3156 29.2303 21.7304 29.3973 21.797C29.6413 22.0306 29.8975 22.2431 30.1438 22.4751L30.1436 22.4755ZM23.0467 27.1708C23.0749 27.1651 23.1069 27.1999 23.149 27.1541C23.0756 27.1575 23.0461 27.2001 23.0417 27.127C22.9761 27.1025 22.9947 27.1587 23.0467 27.1709V27.1708ZM23.0189 26.624C23.0644 26.6844 23.0876 26.799 23.1795 26.7609C23.3703 26.6786 23.5768 26.6163 23.784 26.5996C23.9598 26.5257 24.1568 26.619 24.3365 26.5434C24.3584 26.5342 24.3871 26.5411 24.4128 26.5411C24.5345 26.53 24.8701 26.5988 24.6835 26.3967C24.4964 26.1029 24.109 26.0129 23.7967 25.9054C23.5927 25.8347 23.8292 25.6524 23.8331 25.3232C23.8565 25.0999 23.8844 24.8599 23.8693 24.6356C23.7507 24.5315 23.734 24.6243 23.6269 24.602C23.5002 24.5638 23.3573 24.5758 23.2242 24.5943C23.1658 24.6081 23.1021 24.6298 23.0475 24.5948C22.9544 24.6425 22.9788 24.7235 22.9676 24.8024C22.9338 24.8661 22.9425 24.9343 22.937 25.0016C22.9054 25.1711 22.8822 25.3439 22.8761 25.5149C22.8756 25.5275 22.8766 25.5424 22.8705 25.5523C22.822 25.6284 22.862 25.7245 22.8393 25.8025C22.794 25.8736 22.8123 25.951 22.8081 26.0262C22.8248 26.1103 22.7364 26.2723 22.8582 26.2851C23.0135 26.3383 23.4066 26.2599 23.1185 26.5044C23.1675 26.5754 23.0709 26.5918 23.019 26.624L23.0189 26.624ZM26.3692 23.093C26.3692 23.0753 26.3721 23.0618 26.3687 23.06C26.2273 22.9535 26.4363 22.6245 26.1733 22.6199C24.951 22.6191 23.7286 22.6199 22.5062 22.6196C22.4065 22.7187 22.3102 22.8155 22.2126 22.911C22.152 22.9703 22.0864 23.0213 22 23.04C21.9766 23.0451 21.9543 23.0644 21.9659 23.097C22.1142 23.109 26.2663 23.106 26.3692 23.093ZM22.1706 23.3809C22.1657 23.5752 22.1172 23.7812 22.3727 23.744C23.7953 23.7451 25.2345 23.7435 26.6433 23.7421C26.8654 23.7443 26.8615 23.3151 26.6444 23.3289C25.1612 23.3757 23.6303 23.2327 22.1706 23.3809ZM27.9864 22.7346C28.0717 22.6407 28.2297 22.6749 28.3175 22.59C28.469 22.3852 28.4181 22.0519 28.638 21.8911C28.8357 21.8181 28.8196 21.8851 28.983 21.8769C29.3446 21.9645 29.077 21.7826 28.9729 21.659C28.8195 21.6221 28.7399 21.7555 28.6297 21.8331C28.4969 21.9157 28.3882 22.0326 28.2574 22.112C28.1974 22.186 28.0938 22.2253 28.0803 22.3368C28.0209 22.4733 27.8774 22.4637 27.7542 22.4574C27.6377 22.3788 27.5755 22.2432 27.419 22.3064C27.3994 22.3588 27.4149 22.421 27.3624 22.4593C27.1531 22.6563 26.8715 22.7421 26.674 22.9519C26.6381 22.9972 26.5951 23.0406 26.5274 23.0437C26.4357 23.1023 26.5714 23.1083 26.6245 23.1036C27.7791 23.1129 27.4325 22.9532 28.2526 23.7688C28.4402 23.9277 28.2669 23.334 28.395 23.2643C28.495 23.2499 28.6019 23.289 28.6991 23.2578C29.0624 23.1982 28.9136 22.6584 29.2026 22.4844C29.312 22.4413 29.4956 22.45 29.6142 22.4833C29.6632 22.502 29.7193 22.4903 29.7729 22.4629C29.6451 22.3277 29.4829 22.1127 29.3172 22.3274C29.1435 22.4544 28.9582 22.5668 28.8024 22.714C28.643 22.8068 28.6471 22.8524 28.5618 22.9935C28.4916 23.101 28.2441 23.1081 28.1732 22.9891C28.1087 22.9 28.0186 22.8562 27.9863 22.7347L27.9864 22.7346ZM21.8447 23.1014C21.7432 22.7809 21.963 22.5693 21.4734 22.6214C21.3338 22.6329 21.418 22.925 21.3986 23.0268C21.4103 23.1665 21.726 23.0836 21.8447 23.1014H21.8447ZM22.7681 26.9181C22.8763 26.9887 22.9019 26.9941 22.9966 26.9749C22.9375 26.9234 22.8641 26.9254 22.7681 26.9181ZM22.8158 26.3935C22.8351 26.5023 22.8941 26.4458 22.9555 26.4252C22.9151 26.3634 22.865 26.3856 22.8158 26.3935ZM28.9044 19.4437C28.9087 19.5317 28.9805 19.5708 29.0391 19.6313C31.176 19.6729 33.3886 19.5512 35.4899 19.6736C34.1511 19.8481 32.637 19.6227 31.2556 19.7574C30.5401 19.7839 29.8338 19.7138 29.1236 19.733C29.1122 19.7978 29.1674 19.8318 29.1948 19.8826C29.309 20.0579 29.5553 19.9151 29.7328 19.9507C31.639 19.9558 33.5462 19.9408 35.452 19.9561C35.4947 19.9672 35.5035 20.0254 35.4566 20.0422C34.5238 20.0497 33.5771 20.1312 32.6466 20.0494C32.112 20.0363 31.5653 20.0687 31.0415 20.0486C30.9136 20.0675 30.7925 20.0926 30.6625 20.0754C30.5783 20.0175 30.4998 20.0814 30.4175 20.0723C30.0849 19.9907 29.721 20.1106 29.3868 20.0197C29.3346 20.1403 29.4188 20.2072 29.4775 20.303C29.5976 20.3137 29.7167 20.3044 29.8356 20.3059C31.6316 20.2066 33.4585 20.3035 35.265 20.2706C35.3347 20.2761 35.4591 20.2443 35.4734 20.3382C35.4665 20.3797 35.421 20.4099 35.3785 20.4035C34.1821 20.416 32.9838 20.3803 31.7885 20.4175C31.8571 20.4338 31.919 20.4731 31.9927 20.4641C32.2805 20.4876 32.5572 20.5899 32.8452 20.6213C33.488 20.5352 34.154 20.6516 34.7973 20.5704C35.0053 20.5546 35.423 20.3523 35.5675 20.5143C35.5857 20.6245 35.6012 20.8066 35.4686 20.8488C35.1885 20.9069 34.9182 21.0023 34.6485 21.089C34.3948 21.2125 34.131 21.3152 33.8875 21.4584C33.762 21.5344 33.6037 21.6497 33.486 21.5117C33.1625 21.2369 32.7686 21.0747 32.3689 20.9486C32.2076 20.9419 32.0614 20.86 31.9018 20.8494C31.7691 20.8563 31.6457 20.8042 31.5095 20.8198C31.2585 20.7989 30.9905 20.7552 30.7377 20.8185C30.6017 20.8091 30.4782 20.8339 30.3452 20.8511C30.2802 20.8335 30.221 20.8591 30.1599 20.8814C29.9681 20.8819 29.7919 20.9642 29.6026 20.9819C29.5759 20.9819 29.5759 20.9861 29.5292 21.0511C29.7928 21.3369 30.0894 21.6064 30.3618 21.8881C30.5299 22.0248 30.7909 22.1747 30.4704 22.3291C30.2056 22.4738 29.9509 22.0008 29.7623 21.8708C29.6948 21.807 29.6134 21.7589 29.5482 21.6908C29.5109 21.6517 29.4829 21.5995 29.4232 21.5846C29.4141 21.5823 29.4083 21.5659 29.4015 21.5556C29.2692 21.43 29.1264 21.3054 28.998 21.1708C28.9645 21.1371 28.9746 21.1335 28.8927 21.157C28.9136 21.4005 28.7215 21.3682 28.5462 21.3648C26.4332 21.3118 24.2783 21.3991 22.1466 21.365C21.8172 21.3842 21.4714 21.326 21.151 21.3891C20.9962 21.4036 20.8463 21.3685 20.6957 21.3654C20.4136 21.3647 20.1315 21.3651 19.8408 21.3651C19.7799 21.3058 19.7127 21.2466 19.6537 21.1803C19.5978 21.1052 19.5572 20.9634 19.7094 20.9798C22.7712 20.8914 25.9929 21.1493 28.9793 20.8895C25.8981 20.7714 22.6523 20.8921 19.5175 20.8478C19.458 20.8436 19.4446 20.8226 19.4433 20.7408C19.5869 20.649 19.722 20.5371 19.8732 20.4571C20.3365 20.1917 20.7815 19.89 21.246 19.6248C22.4607 18.8515 23.6923 18.0965 24.9131 17.3252C25.0075 17.2557 25.0873 17.2684 25.1773 17.3494C25.3774 17.5484 25.6001 17.7164 25.8153 17.8915C26.4776 18.4658 27.1562 19.0198 27.8186 19.6001C28.2912 19.9886 28.7583 20.3818 29.2232 20.7804C29.3358 20.8219 29.408 20.7395 29.5028 20.7043C29.4869 20.6675 29.4777 20.6343 29.4598 20.6069C29.3113 20.3739 29.1323 20.1659 28.968 19.9495C28.8663 19.8524 28.7688 19.7532 28.6877 19.6382C28.5636 19.4901 28.4045 19.3815 28.2671 19.2497C28.1907 19.1118 27.4963 18.7708 27.9115 18.7249C28.1612 18.7047 28.3119 18.9127 28.4924 19.0523C29.2881 19.0382 30.094 19.0798 30.8852 19.0372C31.2317 19.0742 31.5918 19.0435 31.9439 19.0516C32.1055 19.0655 32.2622 18.9776 32.4187 19.0459C33.4357 19.0974 34.4984 18.9813 35.4993 19.0876C33.4893 19.2338 31.2383 19.1565 29.1755 19.1127C28.9121 19.1077 28.2992 19.0685 28.8682 19.3609C31.0439 19.2739 33.2566 19.2803 35.4313 19.3408C35.5357 19.3544 35.4827 19.4587 35.3989 19.4376C33.247 19.4468 31.018 19.422 28.9045 19.4437L28.9044 19.4437ZM22.9906 19.073C24.218 19.1522 25.5135 18.9644 26.7128 19.1431C26.6723 19.194 26.6427 19.2432 26.5725 19.2439C25.2858 19.2455 23.999 19.2443 22.7122 19.2439C22.6344 19.2439 22.5602 19.243 22.4984 19.3028C22.4128 19.3524 22.3196 19.3765 22.2488 19.4617C23.8499 19.5724 25.5416 19.4513 27.1474 19.502C27.2033 19.5113 27.1776 19.5759 27.177 19.6189C25.5066 19.6544 23.83 19.6196 22.1571 19.6314C21.8924 19.6168 21.761 19.7054 21.5463 19.8559C23.5452 19.938 25.5794 19.8538 27.5898 19.8857C27.6339 19.889 27.6684 19.9315 27.6656 19.9729C25.7239 20.1943 23.5208 19.9722 21.5101 20.0478C21.2198 20.0311 21.0914 20.076 20.8455 20.2349C23.232 20.3377 25.6816 20.236 28.0881 20.2708C28.1407 20.3039 28.1557 20.3466 28.1657 20.4007C25.6402 20.5058 23.0627 20.3871 20.5237 20.4419C20.4049 20.4764 20.2904 20.5554 20.1811 20.614C20.1793 20.7003 20.4472 20.6399 20.51 20.6578C20.5398 20.6581 20.5758 20.6507 20.5983 20.6643C20.7125 20.7093 20.8448 20.7079 20.9597 20.6693C21.0194 20.6328 21.0689 20.7118 21.1298 20.6924C21.1906 20.6875 21.2477 20.6498 21.31 20.6896C21.4234 20.6612 21.5397 20.6329 21.6563 20.678C23.9545 20.6201 26.3017 20.678 28.5972 20.6573C28.6395 20.6563 28.7445 20.6666 28.7116 20.6037C28.188 20.2057 27.6902 19.7759 27.1831 19.3557C27.0719 19.297 26.989 19.195 26.8872 19.1204C26.7689 19.0163 26.6325 18.9366 26.5246 18.8241C26.4726 18.7649 26.3928 18.7449 26.3478 18.6802C26.0146 18.3962 25.6579 18.1333 25.327 17.8508C25.219 17.7532 25.0583 17.5987 25.0531 17.8467C25.1506 17.891 25.2596 17.8909 25.2095 18.0234C24.9478 18.0194 24.6895 17.9954 24.467 18.1572C24.099 18.3916 25.4018 18.2417 25.5246 18.2814C25.6146 18.2786 25.7114 18.2702 25.7259 18.3929C25.2101 18.5119 24.6329 18.4017 24.0972 18.4385C23.9886 18.4043 23.4422 18.6984 23.8123 18.6665C24.5433 18.6663 25.2744 18.6682 26.0053 18.6657C26.1013 18.6744 26.2459 18.674 26.2021 18.8203C25.3261 18.834 24.4392 18.8087 23.5693 18.8313C23.4272 18.7972 23.2901 18.8411 23.1723 18.9147C23.1022 18.9218 23.0638 18.9781 23.0068 19.0038C22.9845 19.0138 22.9694 19.0396 22.9905 19.0729L22.9906 19.073ZM34.3355 20.6994C34.096 20.6862 33.852 20.6801 33.618 20.7213C33.439 20.7306 33.2669 20.675 33.0852 20.6944C32.8969 20.7685 33.4659 20.9481 33.5472 20.9174C33.7517 20.922 33.9514 20.9174 34.1477 20.85C34.2057 20.8011 34.3698 20.8042 34.3355 20.6994H34.3355ZM30.9113 20.4234C30.8408 20.3823 30.7661 20.3636 30.6881 20.3804C30.6347 20.3549 30.579 20.3667 30.5247 20.3664C30.1858 20.3636 29.8537 20.3759 29.5208 20.3461C29.5518 20.4636 29.6122 20.664 29.7632 20.6181C29.8257 20.5903 29.8876 20.5961 29.9506 20.5944C30.0429 20.5965 30.1263 20.53 30.2191 20.5334C30.3513 20.5265 30.4732 20.4623 30.6018 20.4643C30.7068 20.4697 30.8094 20.4598 30.9113 20.4234H30.9113ZM33.8098 21.0042C33.7573 20.9554 33.6234 20.989 33.5475 20.9876C33.5286 21.0207 33.586 21.0636 33.6101 21.0871C33.6851 21.1494 33.7527 21.047 33.8098 21.0042ZM24.6363 44.0541C24.6514 44.039 24.6661 44.0197 24.6849 44.013C24.7677 43.9824 24.81 43.8954 24.8788 43.8501C24.9829 43.8027 25.0386 43.6978 25.1282 43.6345C25.2131 43.5914 25.2667 43.5067 25.3427 43.4559C25.4713 43.3693 25.5808 43.2505 25.7022 43.1546C25.8117 43.1009 25.8768 42.9902 25.9685 42.9192C26.3261 42.6417 26.6776 42.3429 27.0108 42.0331C27.3318 41.7637 27.6695 41.5122 27.9617 41.2123C27.9902 41.1872 27.993 41.1536 27.9716 41.1145C27.1704 41.0988 26.3671 41.1134 25.5654 41.1088C23.5014 41.1704 21.4166 41.1485 19.3447 41.1676C19.0831 41.1727 19.3931 41.4084 19.4747 41.4843C19.5576 41.5645 19.6292 41.6599 19.7225 41.7245C19.9519 41.9092 20.1398 42.1351 20.3714 42.315C20.4865 42.4205 20.5885 42.5489 20.7096 42.6451C20.7589 42.659 20.7885 42.697 20.8187 42.7309C20.892 42.8132 20.9791 42.8452 21.0895 42.8442C22.3802 42.8394 23.6709 42.8441 24.9616 42.8429C25.012 42.8429 25.0633 42.8377 25.1107 42.8504C25.1404 42.9681 25.1427 42.9957 25.0898 43.0709C25.0238 43.1648 24.9491 43.2525 24.8422 43.3044C24.7235 43.4317 24.5592 43.3007 24.416 43.3226C24.1007 43.3144 23.8015 43.4118 23.4919 43.4485C23.185 43.5294 22.7613 43.1621 22.539 43.4829C22.4944 43.55 22.4905 43.692 22.3787 43.6388C22.2758 43.5943 22.1678 43.6179 22.069 43.6513C21.9235 43.6728 21.8672 43.7022 21.9823 43.8294C22.1029 43.9663 22.2509 44.0727 22.3838 44.1958C22.4838 44.2705 22.6437 44.203 22.7628 44.2264C22.8913 44.361 22.8081 44.5683 23.0185 44.6103C23.1237 44.52 23.2059 44.3712 23.3531 44.3516C23.6175 44.2927 23.7432 44.4823 23.8788 44.6735C24.1717 44.4938 24.3797 44.2639 24.6363 44.0542V44.0541ZM22.9301 45.1295C22.7992 45.015 22.6979 44.8682 22.5443 44.7786C22.3675 44.5878 22.1692 44.4266 21.9843 44.2479C21.9184 44.181 21.8582 44.1047 21.7817 44.0531C21.6132 43.9346 21.4896 43.7682 21.3348 43.6363C21.1199 43.4965 20.9858 43.2652 20.7659 43.1303C20.2563 42.6133 19.6984 42.1473 19.1836 41.6398C19.1032 41.5426 18.9933 41.4845 18.9069 41.3969C18.8342 41.3496 18.7768 41.2048 18.6758 41.2473C18.5898 41.3892 18.6009 41.5647 18.5607 41.7213C18.5202 41.8539 18.5246 41.9989 18.4743 42.1261C18.4612 42.2918 18.457 42.3198 18.6171 42.3311C18.6827 42.3797 18.7326 42.4621 18.6717 42.5329C18.5122 42.7934 18.8633 42.6291 18.9158 42.8659C18.9697 43.1523 18.4923 42.8714 18.4419 43.1019C18.4054 43.2564 18.2857 43.3742 18.2207 43.5108C18.1815 43.6915 18.0233 44.069 18.3707 43.869C18.4207 43.8411 18.476 43.817 18.5083 43.7645C18.5763 43.7457 18.5526 43.657 18.6111 43.6296C18.8892 43.7734 18.8275 43.5352 18.9734 43.5899C19.1343 43.657 19.281 43.6168 19.1483 43.8362C19.1084 43.9663 19.2024 44.0623 19.3012 44.1259C19.3951 44.0916 19.4752 44.0424 19.535 43.9636C19.6207 43.9589 19.5694 44.0994 19.5675 44.1485C19.5769 44.22 19.5237 44.2718 19.5288 44.3446C19.5401 44.4872 19.5122 44.6248 19.4984 44.7623C19.4979 44.8624 19.4549 44.9509 19.4692 45.0519C19.4676 45.0902 19.4774 45.134 19.4622 45.1659C19.4147 45.2655 19.4415 45.3659 19.4405 45.4732C19.633 45.5817 19.8527 45.6421 20.0641 45.7027C20.3315 45.8347 20.2842 45.5407 20.308 45.3833C20.3555 45.2942 20.3238 45.1979 20.3453 45.1093C20.3746 45.0614 20.3704 45.0097 20.3665 44.9596C20.3659 44.8367 20.4041 44.7157 20.4056 44.5946C20.4691 44.5026 20.4088 44.3805 20.4417 44.2827C20.4722 44.1195 20.5001 43.9584 20.4964 43.7922C20.5117 43.7331 20.5371 43.6818 20.5278 43.6192C20.5287 43.5269 20.5741 43.4489 20.5607 43.3562C20.5444 43.2262 20.6833 43.2543 20.7356 43.3207C20.9504 43.5385 21.1958 43.7234 21.3997 43.9548C21.4918 44.0506 21.332 44.1375 21.2411 44.1303C21.2092 44.1275 21.1724 44.1195 21.1425 44.154C21.1659 44.2505 21.2536 44.3249 21.2382 44.4339C21.2341 44.519 21.2371 44.6044 21.2371 44.6865C21.3214 44.7801 21.4129 44.9455 21.5482 44.8248C21.9069 44.4435 22.0206 44.8901 22.271 44.8622C22.4019 44.7733 22.5853 45.0724 22.6916 45.152C22.7467 45.2142 22.8293 45.2369 22.8778 45.3046C22.9221 45.3527 22.973 45.3887 23.0414 45.4128C23.1866 45.3207 23.0101 45.1959 22.9301 45.1296L22.9301 45.1295ZM24.0909 45.2038C24.159 45.2453 24.1362 45.3566 24.2339 45.3783C24.494 45.2109 24.6872 45.0833 24.996 45.2355C25.0712 45.2716 25.144 45.3502 25.2314 45.3429C25.4214 45.286 25.388 45.0694 25.3731 44.9154C25.3423 44.7668 25.2543 44.6528 25.4144 44.5507C25.4601 44.3458 25.1512 44.4363 25.093 44.2882C25.1244 44.2187 25.1924 44.2021 25.2384 44.16C25.3351 44.0714 25.4229 43.9748 25.5311 43.8968C25.8031 43.6537 25.9067 43.5549 26.2994 43.6372C26.4097 43.646 26.513 43.6881 26.5852 43.7753C26.7028 43.8648 26.5269 44.1193 26.7525 44.0545C26.8612 44.0275 26.9734 43.9656 27.0825 44.0293C27.2442 44.0976 27.1956 44.2485 27.2655 44.3752C27.6361 44.4244 27.5225 44.8056 27.6993 44.5465C27.7338 44.4701 27.8 44.429 27.8777 44.4209C27.966 44.4116 28.028 44.3697 28.0842 44.2982C28.0846 44.212 28.0793 43.933 28.1991 43.937C28.5314 43.9164 28.4826 43.7022 28.2449 43.563C28.0994 43.4503 28.2431 43.3292 28.2608 43.1937C28.2454 43.1839 28.2321 43.1683 28.2176 43.1672C28.0745 43.1451 27.9115 43.0004 27.976 42.8427C28.148 42.8431 28.3177 42.8412 28.4894 42.8431C28.7456 42.864 28.6426 42.5908 28.656 42.4173C28.6029 42.3283 28.648 42.2208 28.6242 42.1288C28.5913 42.0632 28.6038 41.995 28.6008 41.9276C28.6078 41.804 28.55 41.6981 28.5668 41.5755C28.5742 41.4858 28.5215 41.4133 28.5329 41.3257C28.542 40.9667 28.2454 41.329 28.1322 41.4167C28.0243 41.4793 27.9605 41.5968 27.8584 41.6627C27.748 41.7312 27.6724 41.8389 27.5749 41.9176C27.4759 41.9637 27.4179 42.0617 27.3352 42.1244C27.2716 42.1479 27.2335 42.2 27.1884 42.2446C27.1152 42.3372 27.0154 42.3927 26.9314 42.4694C26.7439 42.6614 26.5334 42.8255 26.3337 43.001C26.2893 43.0578 26.2199 43.0728 26.1775 43.1281C26.1296 43.1768 26.0869 43.2355 26.0297 43.269C25.9428 43.3198 25.881 43.3943 25.8103 43.4608C25.6619 43.6141 25.4769 43.7224 25.3311 43.8757C25.1671 44.053 24.9566 44.1762 24.7916 44.3525C24.5258 44.5741 24.2657 44.8105 24.007 45.0393C23.95 45.1373 23.6188 45.2876 23.6905 45.4028C23.8746 45.4863 23.9302 45.2153 24.0911 45.2039L24.0909 45.2038ZM14.5639 22.7791C14.5411 22.8143 14.5048 22.8504 14.5028 22.8876C14.4973 23.0254 14.3748 23.1004 14.3565 23.2329C14.332 23.3317 14.2834 23.522 14.1491 23.4823C14.0708 23.4337 13.979 23.4719 13.9001 23.4479C13.8396 23.413 13.7761 23.422 13.7129 23.4214C13.4455 23.4491 13.0864 23.29 13.2044 23.7163C13.2288 23.8096 13.3247 23.7631 13.3876 23.7455C13.5025 23.718 13.6253 23.7211 13.7382 23.7001C13.8406 23.656 13.9586 23.6917 14.0676 23.6796C14.0969 23.6789 14.1299 23.6791 14.1546 23.6662C14.2416 23.5986 14.326 23.731 14.4024 23.648C14.5793 23.4286 14.6755 23.144 14.8523 22.9181C15.6526 21.7077 16.9997 20.7633 18.4459 20.53C18.5017 20.5234 18.5473 20.4864 18.6056 20.4968C18.6269 20.496 18.6524 20.5014 18.6686 20.4917C18.7363 20.4512 18.8095 20.4659 18.8809 20.4645C19.0404 20.4501 19.2484 20.5122 19.3648 20.3741C19.8464 19.8347 20.346 19.2947 20.9285 18.8578C21.0125 18.6754 20.7143 18.7367 20.6272 18.7293C20.4096 18.844 20.2903 19.1032 20.0174 19.0524C17.7882 19.0854 15.5088 18.989 13.304 19.0861C14.2081 19.1846 15.1856 19.0339 16.0913 19.1501C16.5168 19.1242 16.9664 19.2054 17.3785 19.1168C17.6181 19.0927 17.8723 19.1299 18.1095 19.1291C18.3279 19.0947 18.5523 19.1125 18.7724 19.1179C18.9182 19.1454 19.0691 19.1683 19.2151 19.1338C19.4672 19.1054 19.7242 19.1109 19.9837 19.1124C20.055 19.098 20.1065 19.1489 20.0586 19.2119C20.0157 19.2659 19.9639 19.3094 19.8988 19.3345C19.8563 19.3509 19.8264 19.3744 19.8193 19.4243C19.7889 19.5098 19.6968 19.5651 19.6394 19.6316C17.5341 19.6364 15.4292 19.6223 13.3244 19.6366C13.2996 19.6393 13.2802 19.6545 13.2884 19.6931C13.9084 19.6931 14.5279 19.693 15.1479 19.6935C16.4072 19.7471 17.7118 19.757 18.9698 19.6935C19.0834 19.6979 19.2038 19.6836 19.315 19.6991C19.3834 19.7451 19.4552 19.7087 19.5272 19.7414C19.458 19.9884 19.2337 20.0175 19.0167 19.9657C18.4695 19.9609 17.8968 20.0177 17.3496 19.9512C16.0387 20.0043 14.5197 19.8486 13.3111 20.0045C15.2614 20.1495 17.2935 19.9784 19.2458 20.0193C19.32 20.0079 19.2909 20.0834 19.2739 20.1281C19.2396 20.2519 19.1234 20.2814 19.0104 20.271C18.5069 20.2727 17.9854 20.2531 17.5006 20.3263C17.5172 20.3335 17.5338 20.3407 17.5554 20.35C17.4302 20.4439 17.2892 20.4543 17.1514 20.5161C17.0083 20.5649 16.87 20.632 16.7142 20.6283C16.5678 20.8008 16.3872 20.9073 16.1656 20.9357C16.1665 20.9963 16.1838 21.0218 16.1162 21.0634C15.9645 21.166 15.9268 21.2433 15.7146 21.2397C15.8246 21.398 15.7195 21.3225 15.6676 21.4404C15.6121 21.5441 15.4188 21.5208 15.4125 21.6594C15.3455 21.7547 15.2525 21.8597 15.1374 21.8949C15.1326 21.9266 15.1394 21.9727 15.12 21.9908C15.068 22.0393 15.0416 22.108 14.9787 22.1486C14.8385 22.2328 14.8724 22.437 14.6905 22.5009C14.7272 22.6105 14.6043 22.687 14.5636 22.7793L14.5639 22.7791ZM17.5957 27.6703V27.7165C17.4904 27.7369 17.4068 27.8176 17.2962 27.8354C17.2266 27.8585 17.1603 27.8504 17.1079 27.9153C17.1702 27.9405 17.2354 27.9116 17.3036 27.9405C17.1952 28.0639 17.0402 28.0085 16.9137 28.0957C16.9723 28.1392 17.0462 28.0867 17.0797 28.1444C17.0637 28.2021 16.9706 28.201 16.924 28.2301C16.8337 28.2423 16.7415 28.2603 16.6512 28.2762C16.433 28.2953 16.2239 28.2376 16.0104 28.2098C15.8556 28.1675 15.8929 28.0964 16.0433 28.1168C16.1233 28.114 16.1619 28.1006 16.1479 28.0789C16.0654 28.0096 15.9356 28.093 15.8444 28.0277C15.8004 27.9897 15.7456 27.9839 15.6907 27.9788C15.6379 27.9155 15.5608 27.9271 15.4976 27.9235C15.4547 27.8308 15.5734 27.864 15.6343 27.849C15.6001 27.7954 15.5562 27.7809 15.5017 27.7741C15.3804 27.7749 15.2959 27.6763 15.1815 27.6603C15.1746 27.6593 15.1649 27.6397 15.1661 27.6298C15.1897 27.5793 15.2695 27.6041 15.3158 27.591C15.3127 27.6813 15.3872 27.6652 15.4511 27.6615C15.5215 27.5865 15.3546 27.602 15.3124 27.5945C15.22 27.4616 15.0171 27.4811 14.9194 27.3649C14.989 27.3423 14.9893 27.3415 15.0348 27.364C15.1205 27.4075 15.216 27.4186 15.3012 27.469C15.4781 27.4618 15.4958 27.5578 15.654 27.5312C15.6799 27.4542 15.3209 27.411 15.2385 27.3317C15.2062 27.2663 15.3356 27.2675 15.3639 27.3102C15.3946 27.3424 15.4305 27.3447 15.4694 27.3444C15.6042 27.3028 15.7931 27.4843 15.8134 27.3639C15.763 27.3093 15.7063 27.2696 15.6265 27.2813C15.5902 27.289 15.5632 27.2358 15.6002 27.2206C15.6586 27.2123 15.7196 27.1984 15.7732 27.2352C15.8696 27.3011 15.9735 27.2845 16.0748 27.2758C16.1045 27.2082 16.0417 27.2123 16.0183 27.1915C15.9917 27.1679 15.955 27.1559 15.9194 27.1371C16.0105 27.0957 16.1229 27.1285 16.2222 27.1184C16.2349 27.1184 16.251 27.117 16.2596 27.1236C16.3202 27.1705 16.3903 27.1534 16.457 27.1544C16.5728 27.1763 16.8878 27.1064 16.9454 27.1984C16.8622 27.2268 16.7693 27.2352 16.6825 27.3088C16.8632 27.3356 17.0261 27.2182 17.1777 27.323C17.0692 27.3687 16.9986 27.4141 16.8808 27.4198C17.0098 27.4761 17.0775 27.4103 17.188 27.4103C17.2976 27.4361 17.3759 27.3213 17.4796 27.3513C17.5452 27.388 17.3786 27.4804 17.3378 27.4779C17.3299 27.478 17.3224 27.5004 17.3081 27.5226C17.5005 27.5088 17.6341 27.4144 17.8004 27.3486C17.8894 27.3238 17.9312 27.2268 18.0316 27.2185C18.0442 27.2577 18.0035 27.2718 17.9914 27.3006C17.9189 27.4692 17.7113 27.4704 17.5958 27.5952L17.5991 27.5925C17.5322 27.5953 17.4887 27.5922 17.451 27.6617C17.5094 27.6662 17.5544 27.6697 17.5993 27.6731L17.5957 27.6702V27.6703ZM16.9756 27.9312H16.1464C16.3034 27.9663 16.4364 28.0176 16.5906 27.9619C16.7361 27.9696 16.83 28.0218 16.9757 27.9312H16.9756ZM15.9768 27.9247C15.9137 27.8174 15.7996 27.8701 15.7018 27.8588C15.678 27.9761 15.8948 27.9078 15.9768 27.9247ZM15.9083 27.7513C15.9672 27.7625 16.0274 27.7959 16.0868 27.7925C16.1876 27.712 15.9498 27.7235 15.9083 27.7513ZM15.9343 27.3959C15.9856 27.4718 16.0841 27.4371 16.1597 27.4318C16.0837 27.4199 16.0039 27.3609 15.9343 27.3959ZM15.6599 27.6683C15.5542 27.6597 15.5519 27.736 15.6625 27.7294C15.7289 27.7437 15.7652 27.6647 15.6599 27.6683ZM17.0275 27.7562C17.0261 27.7473 17.0248 27.7384 17.0234 27.7295C17.0009 27.7398 16.9725 27.7166 16.9425 27.7562H17.0275ZM17.3868 27.6745C17.2902 27.6409 17.2415 27.7305 17.3435 27.7275C17.368 27.7219 17.3901 27.7119 17.3868 27.6745ZM15.9264 27.5641C15.8853 27.5426 15.8442 27.5349 15.776 27.5641H15.9264ZM17.1119 27.5503C17.1138 27.5793 17.1689 27.5643 17.1912 27.563C17.19 27.5355 17.1345 27.5565 17.1119 27.5503ZM26.5281 46.1866C26.5871 46.183 26.6481 46.1937 26.7014 46.1569C26.8057 46.1601 26.8745 46.0965 26.9407 46.0288C27.0992 45.9071 27.2434 45.7589 27.3858 45.6119C27.5792 45.4841 27.71 45.2861 27.8985 45.1552C28.0778 45.0149 28.2102 44.8161 28.4056 44.6912C28.644 44.4321 28.9558 44.3241 28.7722 43.942C28.7113 43.9244 28.6666 43.9391 28.6242 43.9879C28.5402 44.083 28.4394 44.1633 28.3405 44.2425C28.1188 44.4608 27.8773 44.6552 27.6656 44.8827C27.5172 44.9541 27.4399 45.1171 27.3052 45.2027C27.1702 45.3204 27.0309 45.4394 26.911 45.5766C26.8173 45.6925 26.2561 46.0845 26.3289 46.2134C26.3995 46.2295 26.4581 46.19 26.528 46.1866H26.5281ZM29.5294 42.3689C29.5565 42.4565 29.611 42.5352 29.6052 42.6335C29.607 42.6709 29.6501 42.7093 29.6572 42.7479C29.6759 42.895 29.7427 43.028 29.7793 43.1701C29.819 43.3242 29.866 43.3306 29.9794 43.2145C30.0657 43.1494 30.1271 43.0132 30.2409 43.0038C30.2971 43.0054 30.395 43.0815 30.3945 43.1364C30.4344 43.3151 30.2315 43.985 30.5862 43.5627C30.7191 43.4011 30.847 43.2333 30.9789 43.0712C30.9339 42.993 30.8665 42.9445 30.7939 42.8914C30.4698 42.6396 30.1345 42.3966 29.8112 42.1407C29.6842 42.0633 29.587 41.9272 29.4462 41.8819C29.4118 42.0553 29.4998 42.2036 29.5294 42.3689H29.5294ZM30.0815 44.8425C30.0834 44.766 30.042 44.7059 30.0149 44.6402C29.8669 44.0317 29.6537 43.4503 29.495 42.8427C29.4885 42.7009 29.3373 42.7197 29.3916 42.8586C29.4062 42.8859 29.3991 42.9252 29.401 42.959C29.4019 43.1081 29.3906 43.2558 29.432 43.4023C29.4357 43.4862 29.418 43.5724 29.4663 43.6512C29.476 43.6671 29.4698 43.6931 29.4699 43.7144C29.4751 43.8104 29.4597 43.915 29.4761 44.0082C29.5056 44.065 29.4974 44.1245 29.4994 44.1836C29.49 44.2791 29.5099 44.3677 29.5284 44.4604C29.5299 44.5363 29.518 44.6143 29.5641 44.6829C29.6314 44.8547 29.6148 45.1759 29.7882 45.251C30.0919 45.0847 30.2183 45.1899 30.0815 44.8424V44.8425ZM20.0618 28.9311C19.8795 28.9914 19.6877 29.0311 19.5033 29.079C19.3711 29.1094 19.2387 29.1199 19.1044 29.1421C19.0209 29.1485 18.9334 29.125 18.8561 29.1773C18.7183 29.1808 18.5714 29.1864 18.4345 29.1752C18.3695 29.1281 18.2946 29.1385 18.2243 29.1444C18.0909 29.1555 17.9649 29.0986 17.8322 29.1091C17.7289 29.0568 17.6117 29.0603 17.5052 29.0199C17.49 29.011 17.4546 29.0018 17.4394 29.0394C17.5389 29.0684 17.6148 29.1516 17.7241 29.1569C17.7861 29.2086 17.8637 29.2089 17.9404 29.2168C18.0633 29.2662 18.1936 29.2769 18.3231 29.2833C18.374 29.3168 18.4302 29.3074 18.485 29.3076C18.6924 29.3035 18.9074 29.3174 19.1122 29.3035C19.2461 29.2377 19.3927 29.3166 19.5236 29.2458C19.6322 29.1832 19.7716 29.2381 19.8732 29.1512C19.9284 29.1357 19.9925 29.1478 20.0445 29.1129C20.1263 29.0861 20.1829 29.0669 20.2098 28.9732C20.1694 28.9279 20.1169 28.9111 20.0618 28.9313V28.9311ZM13.7129 20.271C13.6097 20.2618 13.5276 20.3227 13.4258 20.3072C13.3939 20.3063 13.2641 20.2971 13.3177 20.3564C13.4274 20.3729 13.539 20.3636 13.6495 20.3657C14.8261 20.3513 16.0177 20.4022 17.1811 20.3318C16.0798 20.2267 14.8601 20.2853 13.713 20.271L13.7129 20.271ZM19.7007 19.4062C19.8273 19.405 19.6653 19.3224 19.604 19.3612C19.4846 19.4007 19.3538 19.3043 19.2311 19.3583C19.101 19.406 18.9711 19.3494 18.8415 19.3397C18.3924 19.3488 17.9297 19.3159 17.4898 19.3617C16.913 19.3074 16.3081 19.3445 15.7273 19.3513C15.6418 19.3261 15.5705 19.3569 15.4984 19.4051C16.9013 19.411 18.3136 19.4067 19.7007 19.4062H19.7007ZM30.9468 43.8782C30.9426 44.1263 30.8804 44.3767 30.9228 44.6264C31.0066 44.7626 31.1423 44.5619 31.2368 44.5169C31.2368 44.4132 31.2374 44.3068 31.2363 44.2003C31.236 44.139 31.1952 44.0896 31.2027 44.0277C31.2087 43.9613 31.1578 43.9068 31.1694 43.8431C31.1632 43.6951 31.1456 43.4454 31.0686 43.3225C30.9064 43.468 31.0352 43.7 30.9468 43.8782V43.8782ZM24.0903 46.3738C24.3224 46.2736 23.9121 46.0894 23.8553 45.991C23.2435 45.352 23.4511 45.6221 22.8166 46.0743C22.7622 46.1048 22.71 46.1562 22.681 46.2175C22.7426 46.2878 22.7488 46.2903 22.8092 46.2633C23.0315 46.1499 23.1683 45.9184 23.392 45.8042C23.6617 45.9435 23.8076 46.2563 24.0903 46.3738ZM25.5835 28.4176C25.5642 28.4253 25.544 28.4383 25.5247 28.4373C25.4006 28.4349 25.2967 28.5282 25.1745 28.5329C24.8978 28.5879 24.6254 28.6094 24.3409 28.5983C24.3153 28.5983 24.2855 28.6056 24.2648 28.5953C24.1795 28.5528 24.0895 28.5701 24.0011 28.5667C23.9631 28.5652 23.9243 28.5706 23.8905 28.5447C23.8796 28.54 23.8511 28.5538 23.863 28.5684C23.9715 28.6312 24.0724 28.7141 24.2106 28.6972C24.2273 28.6952 24.2475 28.6934 24.2612 28.7007C24.3467 28.746 24.4435 28.7241 24.5342 28.7511C24.96 28.8047 25.7045 28.631 25.9855 28.2853C25.8403 28.2809 25.7204 28.3777 25.5835 28.4176L25.5835 28.4176ZM26.469 28.235C26.1783 28.3824 25.9295 28.5406 25.6258 28.6514C25.4766 28.7326 25.2969 28.6994 25.1629 28.8207C25.3497 29.1008 26.3852 28.4835 26.469 28.235ZM25.2808 28.2447C25.1663 28.2651 25.0588 28.3256 24.9373 28.3121C24.869 28.3173 24.8084 28.3535 24.7379 28.3404C23.8832 28.3099 24.4848 28.5355 24.8954 28.5015C25.1121 28.4332 25.4976 28.4123 25.6112 28.1985C25.4874 28.1463 25.4034 28.2575 25.2809 28.2446L25.2808 28.2447ZM26.975 28.043C26.8569 28.115 26.7774 28.2279 26.678 28.3195C26.5905 28.3994 26.4735 28.4392 26.3981 28.5345C26.269 28.6254 26.1176 28.689 25.9782 28.7646C25.907 28.803 25.9396 28.884 26.0065 28.8874C26.2132 28.8859 26.4397 28.6414 26.6194 28.5378C26.8065 28.348 26.9763 28.1702 27.1142 27.9244C27.0285 27.9412 27.0075 27.9877 26.975 28.0429L26.975 28.043ZM13.309 28.3116C13.4178 28.3429 13.519 28.3978 13.624 28.4369C13.7131 28.4559 13.8099 28.4546 13.8964 28.4805C13.9701 28.5429 14.6505 28.49 14.3289 28.3707C14.2695 28.3704 14.2065 28.3792 14.1514 28.3627C14.0187 28.3102 13.8792 28.3247 13.744 28.2937C13.6681 28.2705 13.5958 28.2349 13.512 28.2411C13.418 28.2272 13.3464 28.1502 13.2385 28.1918C13.2426 28.2886 13.2441 28.2887 13.309 28.3115V28.3116ZM13.4415 21.3031C14.1186 21.2647 14.825 21.3841 15.4875 21.2482C14.6408 21.2 13.383 21.24 13.2837 21.2464C13.2829 21.3277 13.3888 21.2967 13.4415 21.3032V21.3031ZM16.3878 20.6707C16.1348 20.6056 15.8513 20.5963 15.5893 20.6573C15.459 20.6477 15.3251 20.6879 15.1981 20.6289C15.0995 20.6386 14.9944 20.6168 14.8982 20.6296C14.7665 20.6886 14.6199 20.6475 14.4808 20.6588C14.282 20.6646 14.0795 20.6498 13.8853 20.6588C13.8094 20.6616 13.7471 20.6176 13.6745 20.6243C13.6134 20.6412 13.2537 20.574 13.3101 20.6836C14.0059 20.7218 16.2389 20.6945 16.3878 20.6705V20.6707ZM28.7575 25.5236C28.94 25.4363 29.1091 25.3287 29.2838 25.2305C29.3734 25.1472 29.4463 25.0457 29.5544 24.9824C29.5705 24.9004 29.7952 24.7823 29.7367 24.7222C29.6453 24.773 29.5919 24.855 29.5055 24.916C29.3785 24.9795 29.2945 25.1115 29.1588 25.1648C29.1209 25.2299 29.0429 25.2271 28.9871 25.2641C28.8965 25.3243 28.7933 25.3655 28.6954 25.4148C28.6298 25.4103 28.6248 25.4615 28.6115 25.5066C28.6551 25.5568 28.714 25.5623 28.7574 25.5236H28.7575ZM27.1461 26.3995C27.0909 26.3421 27.0916 26.2956 27.1159 26.2302C27.1223 26.1569 27.0965 26.1278 27.0217 26.1264C26.9154 26.1506 26.4742 26.0413 26.6229 26.2524C26.7579 26.257 26.8161 26.2297 26.9507 26.3073C26.8547 26.33 26.6992 26.2698 26.7364 26.4293C26.7875 26.4781 27.2174 26.5355 27.1461 26.3995ZM26.3962 25.793C26.5367 25.8058 26.6683 25.8843 26.816 25.867C26.858 25.8643 26.8987 25.8666 26.9388 25.8897C27.0231 25.9507 27.1933 25.8143 27.0736 25.7491C26.9422 25.7168 26.8006 25.7701 26.6726 25.7108C26.605 25.677 26.5293 25.6633 26.4517 25.6715C26.3251 25.684 26.2558 25.5724 26.1167 25.6248C26.1676 25.7655 26.2939 25.7291 26.3962 25.793ZM26.782 25.5438C26.6533 25.5486 26.5463 25.4537 26.4118 25.4764C26.3334 25.4158 26.2236 25.4327 26.146 25.3663C26.1286 25.3315 26.0252 25.3715 26.0534 25.4219C26.1551 25.5031 26.2846 25.5183 26.4034 25.5561C26.6113 25.6462 26.8546 25.697 27.0796 25.6569C27.102 25.4757 26.8888 25.5635 26.782 25.5438ZM26.733 26.0577C26.8447 26.0396 26.9426 26.1115 27.0582 26.0858C27.0915 26.083 27.1152 26.0469 27.1158 26.0117C27.1018 25.8613 26.8362 25.9496 26.7306 25.93C26.585 25.9377 26.4722 25.8227 26.3229 25.8778C26.3325 26.0338 26.6124 26.0438 26.733 26.0576V26.0577ZM13.3971 21.6193C14.0198 21.6142 14.6437 21.631 15.2658 21.6137C15.2787 21.6118 15.2891 21.5936 15.313 21.5713C15.2468 21.5575 12.8231 21.5337 13.3971 21.6193V21.6193ZM27.0042 25.4791C27.1035 25.472 27.1093 25.3626 27.0094 25.3547C26.821 25.3783 26.6581 25.281 26.4718 25.2843C26.449 25.2852 26.4221 25.2728 26.403 25.2585C26.3379 25.1988 26.2381 25.2569 26.1865 25.1736C26.1735 25.1566 26.1429 25.1643 26.1324 25.1774C26.1594 25.317 26.7621 25.4753 26.9039 25.48C26.9475 25.4796 26.967 25.4811 27.0042 25.4791ZM34.5483 27.5288C34.4824 27.6248 34.7629 27.6375 34.8185 27.644C34.9404 27.6778 35.0634 27.7021 35.1912 27.698C35.2949 27.6613 35.4364 27.8011 35.5008 27.6723C35.5194 27.5346 35.0245 27.6227 34.919 27.5986C34.8902 27.5985 34.8549 27.6064 34.8384 27.575C34.7684 27.5036 34.6408 27.5499 34.5481 27.5288H34.5483ZM14.2523 21.909C14.0843 21.8758 13.9199 21.8801 13.7519 21.9087C13.6086 21.9019 13.4633 21.93 13.3218 21.886C13.3176 21.8847 13.3048 21.8951 13.3044 21.9008C13.2966 21.9554 13.3634 21.94 13.3983 21.9466C13.7935 21.9445 14.1865 21.9529 14.5818 21.9433C14.5439 21.8721 14.3331 21.925 14.2523 21.9091V21.909ZM13.3391 20.9198C13.2818 20.9212 13.3024 20.9919 13.3485 20.9765C14.0905 20.9044 14.8724 20.9717 15.6359 20.9449C14.925 20.873 14.0904 20.944 13.3391 20.9197V20.9198ZM34.9955 28.1439C35.0597 28.1717 35.1302 28.1911 35.2048 28.1826C35.287 28.1903 35.3682 28.2315 35.4532 28.2083C35.6459 28.0708 35.2191 28.1269 35.1537 28.1161C35.042 28.1336 34.7535 27.9582 34.6978 28.1033C34.7952 28.1373 34.898 28.0957 34.9954 28.1439H34.9955ZM14.5791 19.3724C14.2821 19.3746 13.985 19.3776 13.688 19.3811C13.9442 19.4459 14.3146 19.3822 14.6076 19.4039C14.6174 19.3828 14.5961 19.3748 14.5791 19.3724V19.3724ZM27.0301 25.1625C26.8955 25.1574 26.7597 25.1649 26.634 25.0976C26.6094 25.0845 26.5654 25.0807 26.5403 25.1395C26.6218 25.1941 27.1698 25.3848 27.0301 25.1625ZM35.1824 27.4452C35.1427 27.4169 34.7582 27.3653 34.826 27.4615C34.9506 27.4816 35.085 27.4495 35.1983 27.5128C35.2893 27.5563 35.3772 27.5388 35.479 27.5306C35.4462 27.4147 35.2726 27.5063 35.1825 27.4452H35.1824ZM13.3213 22.5139C13.7328 22.5274 14.1365 22.5305 14.5486 22.5119C14.3701 22.4439 14.1628 22.5351 13.9823 22.4672C13.9625 22.4562 13.9282 22.4546 13.9078 22.4641C13.7197 22.5213 13.5201 22.4769 13.3263 22.4897C13.3246 22.4977 13.3229 22.5058 13.3213 22.5139ZM13.5513 22.238C13.6445 22.2736 13.7378 22.2061 13.8329 22.2473C13.9954 22.2956 14.1503 22.2368 14.3086 22.232C14.3167 22.231 14.324 22.223 14.338 22.2142C14.1844 22.1957 13.5102 22.1987 13.4083 22.2191C13.4601 22.2445 13.5111 22.2205 13.5513 22.2379V22.238ZM29.0747 25.5286C29.0844 25.5163 29.0757 25.4922 29.06 25.4873C28.9896 25.4584 28.9591 25.5524 28.8884 25.5468C28.8155 25.5806 28.8176 25.6221 28.7132 25.6159C28.567 25.8644 29.0182 25.5899 29.0747 25.5286ZM35.4711 28.2877C35.4674 28.2001 35.2868 28.2517 35.2246 28.2473C35.2061 28.2491 35.1899 28.2749 35.157 28.3032C35.2806 28.2925 35.4065 28.402 35.4711 28.2877ZM23.87 28.8336C23.8026 28.7358 23.6657 28.74 23.558 28.7313C23.6497 28.7962 23.7312 28.897 23.87 28.8336ZM28.6147 25.3039C28.6816 25.3404 28.7344 25.307 28.7751 25.2771C28.8224 25.2424 28.8971 25.232 28.9126 25.1557C28.7924 25.1516 28.6772 25.2099 28.6147 25.304V25.3039ZM13.295 22.8355C13.5679 22.847 13.8676 22.8645 14.1332 22.8274C13.8582 22.8171 13.5624 22.8018 13.295 22.8355ZM26.4778 28.8263C26.5586 28.9213 26.6874 28.7275 26.7174 28.653C26.6343 28.7042 26.5163 28.7286 26.4778 28.8263ZM34.3546 27.4701C34.3408 27.472 34.325 27.4595 34.3101 27.4536L34.3103 27.4534C34.308 27.6046 34.4597 27.5163 34.5483 27.5288C34.4863 27.5022 34.4334 27.4525 34.3546 27.4701ZM35.4543 27.2902C35.3839 27.2886 35.3133 27.2891 35.2428 27.2906C35.1869 27.3509 35.3225 27.3414 35.3563 27.3468C35.3923 27.3403 35.5081 27.3499 35.4543 27.2902ZM34.1038 27.4349C34.1699 27.4904 34.2354 27.4616 34.3103 27.4535C34.2399 27.4373 34.1752 27.3762 34.1038 27.4349ZM17.5991 27.5926C17.5992 27.6195 17.5992 27.6464 17.5993 27.6733C17.6044 27.6632 17.6579 27.6678 17.6792 27.6626C17.678 27.6027 17.6373 27.5984 17.5958 27.5953L17.599 27.5925L17.5991 27.5926ZM33.8243 27.4507C33.6842 27.3578 33.6795 27.5221 33.8243 27.45C33.8243 27.45 33.8243 27.4506 33.8243 27.4507ZM14.7874 21.9287C14.7658 21.9094 14.7513 21.9087 14.7327 21.9321C14.7421 21.9375 14.7515 21.9429 14.7639 21.95C14.7726 21.9421 14.78 21.9354 14.7874 21.9287H14.7874ZM15.9153 20.9406H16.049C15.9954 20.9159 15.9625 20.9141 15.9153 20.9406ZM29.308 28.9034C29.2962 28.8879 29.2652 28.888 29.2629 28.9165C29.2811 28.9172 29.3032 28.9293 29.308 28.9034ZM23.0877 28.7778C23.0836 28.8117 23.1228 28.828 23.1488 28.8142C23.1527 28.7855 23.1079 28.741 23.0877 28.7778ZM29.137 25.4679C29.1433 25.4671 29.1496 25.4663 29.1559 25.4655C29.1512 25.4441 29.1333 25.4447 29.137 25.4679ZM30.6174 28.1003C30.6522 28.1225 30.6746 28.1082 30.6953 28.0866C30.675 28.0976 30.6409 28.0674 30.6174 28.1003ZM23.232 26.2819C23.2759 26.3087 23.3057 26.2393 23.2781 26.1961C23.1987 26.1875 22.8273 26.0758 23.0189 26.249C23.0938 26.2551 23.1649 26.2473 23.2321 26.2819H23.232Z" fill="currentColor"></path></svg>