<svg width="127" height="64" viewBox="0 0 127 64" fill="white" xmlns="http://www.w3.org/2000/svg"><path d="M31.6705 42.3032C28.8729 42.3032 26.0754 42.3032 23.2769 42.3032C22.8962 42.3032 22.538 42.2388 22.2153 42.0124C21.8038 41.7225 21.5877 41.3275 21.5541 40.8254C21.5484 40.7392 21.5438 40.6521 21.5438 40.5659C21.5438 34.9 21.5447 29.2322 21.5438 23.5654C21.5438 23.2054 21.5924 22.8643 21.7935 22.5517C22.0675 22.1226 22.4622 21.9094 22.9467 21.8403C23.0543 21.8251 23.1647 21.8251 23.2732 21.8251C28.8916 21.8242 34.5101 21.8251 40.1295 21.8232C40.6486 21.8232 41.1116 21.9473 41.4735 22.3528C41.7363 22.6465 41.8804 22.9941 41.8813 23.3825C41.886 29.1678 41.886 34.954 41.8832 40.7392C41.8832 41.5274 41.264 42.2038 40.484 42.2881C40.3446 42.3032 40.2043 42.3032 40.064 42.3032C37.2665 42.3032 34.4689 42.3032 31.6705 42.3032ZM33.3447 33.3682V33.4364C33.0959 33.4828 32.8405 33.5084 32.5983 33.5785C31.9632 33.7613 31.3422 33.9773 30.7669 34.3221C29.8307 34.8829 29.0263 35.5631 28.5942 36.608C28.2004 37.56 28.4053 38.4818 29.2573 39.1231C30.057 39.7246 30.9961 39.9151 31.952 39.9937C33.47 40.1178 34.9656 39.9596 36.4134 39.4499C37.244 39.1572 38.0119 38.7499 38.6227 38.0934C39.3569 37.3043 39.3354 36.3825 38.6591 35.5678C38.1232 34.9218 37.3955 34.5561 36.6576 34.2293C35.899 33.893 35.1068 33.6344 34.3408 33.3142C34.0162 33.1787 33.7094 32.9873 33.4158 32.7903C33.3512 32.7467 33.3409 32.5563 33.3727 32.455C33.3952 32.382 33.5299 32.3034 33.6159 32.3005C34.0677 32.2873 34.4222 32.0732 34.7252 31.7663C35.596 30.8843 35.8569 29.7741 35.7961 28.5795C35.7597 27.8557 35.5726 27.1623 34.9974 26.646C34.9487 26.6024 34.9413 26.4537 34.9749 26.3836C35.2256 25.8607 35.5043 25.351 35.7447 24.8243C35.8457 24.6036 35.9028 24.3516 35.9261 24.1091C35.9355 24.0134 35.812 23.8391 35.7222 23.8183C35.6306 23.7974 35.495 23.9073 35.4024 23.9879C35.3434 24.039 35.321 24.1385 35.292 24.219C35.0526 24.8897 34.8206 25.5632 34.5718 26.2302C34.5428 26.3069 34.4194 26.395 34.3389 26.3959C33.7702 26.4035 33.3344 26.6527 33.0201 27.1168C32.2073 28.3171 32.0352 29.6376 32.3214 31.0406C32.3392 31.1297 32.3598 31.2462 32.3214 31.3153C32.1998 31.5323 32.0745 31.7558 31.9052 31.9349C31.6658 32.1878 31.3936 32.1376 31.2468 31.825C31.1411 31.5995 31.0363 31.358 31.0101 31.1145C30.9287 30.3567 30.8726 29.595 30.8315 28.8343C30.7997 28.2366 30.8165 27.635 30.7847 27.0373C30.7772 26.9008 30.6594 26.7701 30.592 26.6375C30.4686 26.718 30.2862 26.7692 30.2319 26.8838C30.0112 27.347 29.7867 27.8169 29.6436 28.3076C29.3911 29.1744 29.1993 30.0592 28.9777 30.9364C28.9047 31.2244 28.8187 31.5086 28.7392 31.7947C28.7102 31.7909 28.6812 31.788 28.6522 31.7843C28.6204 31.6166 28.5708 31.4499 28.5615 31.2812C28.51 30.3841 28.4726 29.4861 28.4212 28.5899C28.4006 28.2366 28.3725 27.8823 28.3164 27.5346C28.2706 27.2514 28.0676 27.2049 27.8656 27.4124C27.8123 27.4673 27.7655 27.5337 27.7318 27.6028C27.3455 28.4014 27.1809 29.2691 26.9686 30.1227C26.8124 30.7469 26.645 31.3693 26.4701 31.9889C26.4402 32.095 26.3457 32.1821 26.2568 32.3138C26.2129 32.221 26.1857 32.1878 26.182 32.1528C26.1427 31.7947 26.0716 31.4356 26.0772 31.0776C26.0894 30.188 26.1352 29.2985 26.1708 28.409C26.1857 28.0234 26.2082 27.6379 26.2288 27.2514C26.2484 26.8743 26.284 26.4973 26.283 26.1203C26.283 26.0208 26.1755 25.9204 26.1165 25.8209C26.0202 25.8844 25.8631 25.9289 25.8387 26.0142C25.748 26.3201 25.6536 26.6384 25.6479 26.9539C25.6227 28.5084 25.6096 30.063 25.6302 31.6166C25.6358 32.0656 25.7387 32.5203 25.8528 32.957C25.9388 33.2839 26.255 33.3284 26.4158 33.0347C26.6319 32.6406 26.8246 32.22 26.9471 31.7871C27.1725 30.9857 27.3334 30.1662 27.5335 29.3572C27.5971 29.0986 27.6982 28.8485 27.7823 28.5946L27.8497 28.6032C27.8609 28.6837 27.8796 28.7642 27.8833 28.8457C27.9226 29.7589 27.9451 30.6731 28.0049 31.5844C28.0283 31.932 28.1125 32.2816 28.2135 32.616C28.2809 32.8396 28.481 32.8869 28.654 32.7306C28.7934 32.6046 28.9356 32.4389 28.988 32.2636C29.1582 31.7009 29.2816 31.124 29.435 30.5556C29.652 29.7523 29.8774 28.9518 30.1066 28.1523C30.129 28.0736 30.202 28.0102 30.2516 27.9391C30.2712 27.9457 30.2918 27.9533 30.3114 27.9599C30.3189 28.0499 30.3311 28.1399 30.3329 28.2309C30.3554 29.1214 30.3647 30.0118 30.4031 30.9014C30.4246 31.3987 30.5331 31.8818 30.78 32.3261C31.128 32.9542 31.7294 32.9987 32.1334 32.4123C32.2831 32.1954 32.4037 31.9567 32.5562 31.6962C32.6731 31.8032 32.7872 31.9245 32.9172 32.023C33.0416 32.1177 33.0566 32.2087 32.9855 32.3451C32.7863 32.723 32.8396 32.9627 33.1688 33.2299C33.2287 33.2782 33.2895 33.3246 33.3493 33.372L33.3447 33.3682ZM97.6815 34.5694C97.6815 35.0506 97.6684 35.5328 97.6871 36.0131C97.6974 36.2698 97.746 36.5284 97.8087 36.7785C97.8723 37.0362 98.0593 37.1669 98.3222 37.1821C98.4465 37.1896 98.5719 37.1915 98.6963 37.184C98.8862 37.1716 98.989 37.2323 98.9881 37.4464C98.9872 37.6605 98.8805 37.722 98.6935 37.7116C98.2352 37.687 97.7769 37.6443 97.3186 37.6462C96.6657 37.6491 96.0119 37.6813 95.3591 37.7097C95.0766 37.722 94.9644 37.6207 95.027 37.3564C95.042 37.291 95.1271 37.2417 95.1851 37.1896C95.1982 37.1773 95.2309 37.183 95.2534 37.1858C96.083 37.2635 96.2673 36.7671 96.2878 36.0709C96.3103 35.2827 96.2934 34.4926 96.2934 33.7035C96.2934 31.9595 96.2963 30.2155 96.2897 28.4715C96.2897 28.2527 96.257 28.03 96.2074 27.8169C96.1176 27.4285 95.8492 27.2656 95.3235 27.2514C95.1879 27.2476 95.0513 27.257 95.0195 27.0714C94.9812 26.8487 95.0448 26.7559 95.2693 26.7597C95.751 26.7682 96.2327 26.8042 96.7143 26.7976C97.5702 26.7862 98.426 26.7284 99.2809 26.7332C100.488 26.7408 101.568 27.0609 102.207 28.2186C103.034 29.7144 102.532 31.6924 100.793 32.3811C100.75 32.3981 100.703 32.4038 100.658 32.4161C100.519 32.4559 100.459 32.5118 100.555 32.6681C101.006 33.4023 101.445 34.144 101.891 34.881C102.163 35.3301 102.449 35.7706 102.708 36.2262C103.116 36.9433 103.697 37.362 104.532 37.3696C104.687 37.3715 104.787 37.4009 104.778 37.5913C104.769 37.7789 104.642 37.7514 104.528 37.7523C104.161 37.7542 103.796 37.7514 103.429 37.7523C102.542 37.7571 101.843 37.3914 101.364 36.6374C100.763 35.691 100.183 34.7323 99.5942 33.7784C99.5166 33.6524 99.4268 33.5321 99.365 33.3975C99.1349 32.8983 98.7122 32.7581 98.2165 32.7505C97.8586 32.7448 97.6796 32.9236 97.6796 33.2867C97.6796 33.713 97.6796 34.1393 97.6796 34.5646L97.6815 34.5694ZM97.7067 27.4266C97.6955 27.4721 97.6852 27.4939 97.6852 27.5166C97.6833 28.9594 97.6843 30.4021 97.6805 31.8449C97.6805 31.9965 97.7451 32.0571 97.8882 32.0609C98.2296 32.0703 98.5719 32.1026 98.9133 32.0931C100.037 32.0618 100.852 31.484 101.086 30.4732C101.324 29.4482 100.744 28.1011 99.799 27.6293C99.1275 27.294 98.4269 27.3679 97.7076 27.4257L97.7067 27.4266ZM68.4191 37.8755C66.4914 37.8291 64.8808 37.1252 63.7266 35.51C62.94 34.4102 62.6473 33.1607 62.7726 31.8231C62.9531 29.8887 63.8641 28.3986 65.5168 27.3868C66.6832 26.6725 67.9561 26.4291 69.2833 26.6309C71.0885 26.9046 72.4877 27.852 73.4259 29.4567C73.8692 30.2146 74.1105 31.034 74.1348 31.9178C74.2022 34.3174 73.1864 36.1002 71.1212 37.2474C70.2925 37.7078 69.3731 37.8888 68.4191 37.8755ZM68.348 27.2447C68.0188 27.2959 67.6858 27.33 67.3613 27.401C66.0555 27.6881 65.1726 28.5009 64.7003 29.739C64.2682 30.872 64.2148 32.0561 64.4403 33.2507C64.6638 34.4367 65.1801 35.4617 66.0705 36.2793C66.5821 36.7491 67.1723 37.0589 67.857 37.1858C68.3302 37.2739 68.796 37.2607 69.2712 37.1896C70.4029 37.021 71.2859 36.4706 71.8639 35.4674C72.5092 34.3477 72.6664 33.1238 72.5607 31.8477C72.4905 31.0018 72.2614 30.207 71.8461 29.4757C71.0726 28.1153 69.9736 27.2675 68.3471 27.2438L68.348 27.2447ZM91.2839 26.8004C91.2063 26.8004 91.1277 26.8033 91.0501 26.8033C89.4151 26.7891 87.7802 26.7739 86.1443 26.7597C85.9816 26.7588 85.8057 26.7275 85.8076 26.9927C85.8095 27.2324 85.9488 27.258 86.1321 27.2533C86.2088 27.2514 86.2865 27.2684 86.3641 27.275C86.7354 27.3082 86.9683 27.5052 87.0338 27.8804C87.0712 28.0964 87.1096 28.3152 87.1105 28.5331C87.1161 30.9961 87.117 33.4582 87.1096 35.9212C87.1096 36.1703 87.0591 36.4223 87.002 36.6658C86.9318 36.967 86.7074 37.1423 86.4006 37.1716C86.2996 37.1811 86.1976 37.1906 86.0975 37.1821C85.8834 37.1641 85.801 37.2588 85.8095 37.4719C85.8179 37.6803 85.9376 37.7135 86.1069 37.7097C86.9244 37.6927 87.7409 37.6775 88.5584 37.6642C89.1111 37.6557 89.6639 37.6396 90.2167 37.6462C91.3297 37.6605 92.4418 37.687 93.5539 37.7097C93.7269 37.7135 93.8092 37.6292 93.8242 37.4568C93.8504 37.1669 93.8831 36.877 93.9149 36.5871C93.9701 36.086 94.03 35.5849 94.0796 35.0838C94.0852 35.0269 94.0524 34.9341 94.0094 34.9104C93.8448 34.8185 93.6437 34.9189 93.5885 35.1084C93.5642 35.1917 93.5408 35.2751 93.5249 35.3604C93.3416 36.3408 92.7551 36.7671 91.9498 36.9386C91.0875 37.1214 90.2139 37.0788 89.3422 37.0532C88.8558 37.039 88.5799 36.7776 88.506 36.2954C88.4892 36.1864 88.4798 36.0756 88.4789 35.9657C88.477 34.8138 88.4798 33.6609 88.4742 32.509C88.4742 32.3403 88.534 32.2939 88.6921 32.2958C89.2065 32.3034 89.721 32.2854 90.2345 32.3034C90.5356 32.3148 90.8405 32.3555 91.1352 32.4199C91.5392 32.508 91.644 32.8443 91.6908 33.2043C91.7113 33.3596 91.7974 33.3975 91.933 33.3909C92.0639 33.3843 92.165 33.3492 92.165 33.1901C92.165 32.3375 92.1678 31.4849 92.1584 30.6333C92.1584 30.5774 92.0733 30.4855 92.0144 30.4722C91.7618 30.4154 91.7141 30.4722 91.6898 30.7469C91.6674 30.998 91.6374 31.2651 91.4017 31.411C91.2474 31.5067 91.0632 31.5938 90.8882 31.6043C90.1512 31.6497 89.4123 31.6621 88.6743 31.6924C88.5116 31.699 88.4761 31.6156 88.4761 31.4754C88.4779 30.1729 88.4779 28.8703 88.4761 27.5687C88.4761 27.4342 88.5144 27.3612 88.6613 27.3631C89.6012 27.3764 90.5487 27.2959 91.4728 27.5318C92.0003 27.6663 92.4643 27.9202 92.6457 28.498C92.7187 28.7292 92.7738 28.966 92.8253 29.2028C92.8505 29.3193 92.8702 29.4103 93.0208 29.415C93.2583 29.4235 93.3117 29.3857 93.3004 29.1337C93.2668 28.3862 93.2265 27.6388 93.1873 26.8914C93.1844 26.8459 93.1648 26.8023 93.1648 26.8014C92.5241 26.8014 91.904 26.8014 91.2839 26.8014V26.8004ZM79.9731 35.7772C79.8393 35.4343 79.7084 35.0904 79.57 34.7494C79.2089 33.8551 78.8432 32.9627 78.4822 32.0685C78.0828 31.0814 77.6759 30.0961 77.2906 29.1034C77.1409 28.7187 77.0081 28.3199 76.9286 27.9154C76.8678 27.6038 77.0942 27.3556 77.4084 27.2978C77.5609 27.2694 77.7171 27.2618 77.8724 27.2495C78.1006 27.2315 78.0276 27.0543 78.036 26.9264C78.0435 26.8165 78.0229 26.7199 77.8742 26.7275C77.5871 26.7417 77.299 26.7588 77.0119 26.7588C76.0485 26.7569 75.0851 26.7654 74.1227 26.7313C73.8514 26.7218 73.857 26.8535 73.8309 27.0325C73.7991 27.2447 73.9337 27.2551 74.0722 27.2485C74.6231 27.222 74.9944 27.4929 75.2189 27.9761C75.4265 28.4232 75.6098 28.8817 75.7997 29.3364C76.2356 30.3775 76.6733 31.4176 77.1045 32.4606C77.82 34.1914 78.5374 35.9221 79.2361 37.6604C79.3174 37.8632 79.4325 37.8698 79.5915 37.8679C79.7748 37.866 79.9534 37.9011 80.0498 37.6548C80.2752 37.0788 80.5277 36.5133 80.7718 35.9449C81.2788 34.7636 81.7867 33.5832 82.2964 32.4029C82.8997 31.0075 83.4927 29.6064 84.1147 28.2195C84.3728 27.6435 84.7582 27.1926 85.4802 27.2457C85.7215 27.2637 85.6626 27.0657 85.671 26.9255C85.6823 26.7464 85.5869 26.7379 85.4344 26.7389C84.5028 26.7483 83.5703 26.7531 82.6387 26.736C82.4395 26.7322 82.4002 26.7929 82.3965 26.9691C82.3918 27.1633 82.4405 27.2722 82.6574 27.2514C82.7407 27.2428 82.8277 27.2627 82.9119 27.2788C83.1981 27.3347 83.3271 27.4834 83.2916 27.7724C83.2654 27.9884 83.2093 28.2072 83.1316 28.4099C82.939 28.9139 82.7267 29.4112 82.5209 29.9095C82.2066 30.6693 81.8933 31.43 81.5753 32.1878C81.1806 33.1276 80.7812 34.0663 80.3818 35.0042C80.2696 35.2675 80.1508 35.528 80.0358 35.7905C80.0152 35.7848 79.9946 35.78 79.974 35.7743L79.9731 35.7772ZM51.7611 27.2078C51.7611 27.0676 51.7302 26.9624 51.5656 26.9406C50.7191 26.8251 49.8755 26.6631 49.0253 26.5968C48.0984 26.5248 47.2398 26.7796 46.5093 27.3953C45.1746 28.5198 45.0483 30.6967 46.6542 31.7445C47.25 32.1329 47.9113 32.4171 48.5408 32.7534C49.0814 33.0423 49.651 33.2924 50.1514 33.6419C51.2728 34.4244 51.2897 36.0159 50.1776 36.8107C49.2965 37.4407 48.3219 37.489 47.352 36.9973C46.6337 36.6326 46.209 36.0178 46.0566 35.2249C46.0164 35.0165 45.9341 34.9417 45.7376 34.9417C45.5132 34.9417 45.516 35.0913 45.5197 35.2486C45.5337 35.8388 45.5534 36.4299 45.5618 37.0201C45.5693 37.5259 45.5674 37.5382 46.0538 37.632C47.1818 37.8499 48.3135 37.9882 49.4602 37.7684C50.0523 37.6548 50.5901 37.4284 51.0605 37.0466C51.5852 36.6212 51.8967 36.0652 52.0323 35.4011C52.225 34.4633 52.1399 33.5889 51.4908 32.831C50.9333 32.1802 50.1813 31.8401 49.4349 31.484C48.8186 31.1903 48.1854 30.9165 47.6101 30.5518C46.5504 29.8802 46.4223 28.4563 47.3352 27.6975C48.0638 27.0922 48.9177 27.0657 49.767 27.3451C50.7051 27.654 51.1157 28.4071 51.1896 29.361C51.2083 29.6035 51.3346 29.5922 51.4983 29.5969C51.6806 29.6026 51.7704 29.5458 51.763 29.3402C51.7499 28.9935 51.7592 28.6458 51.7592 28.2981C51.7592 27.9353 51.7583 27.5725 51.7592 27.2087L51.7611 27.2078ZM58.4196 30.6257C58.4196 29.6547 58.4196 28.6837 58.4196 27.7127C58.4196 27.5744 58.4103 27.4295 58.6123 27.4361C59.3418 27.4607 60.0742 27.4579 60.8009 27.5223C61.22 27.5602 61.5754 27.8122 61.7297 28.2224C61.8597 28.5691 61.9327 28.9452 61.9785 29.3156C62.0131 29.5931 62.1749 29.5619 62.3564 29.5732C62.5668 29.5865 62.5752 29.4643 62.5743 29.3051C62.5706 28.5634 62.5734 27.8216 62.5724 27.0789C62.5724 26.7228 62.5537 26.7114 62.1983 26.7265C61.4678 26.7559 60.7364 26.8033 60.0059 26.7985C57.7322 26.7853 55.4584 26.7521 53.1846 26.7265C52.8938 26.7228 52.8825 26.7294 52.8825 27.0259C52.8816 27.7913 52.8844 28.5568 52.8807 29.3231C52.8807 29.4747 52.8891 29.5969 53.0874 29.5713C53.2408 29.5514 53.4428 29.6471 53.4578 29.3525C53.4699 29.1024 53.5111 28.8504 53.5719 28.6079C53.7037 28.0822 53.9956 27.6028 54.7101 27.5185C55.3639 27.4418 56.0289 27.455 56.6902 27.437C57.0353 27.4276 57.0363 27.4361 57.0363 27.7837C57.0363 30.5224 57.0363 33.2611 57.0344 36.0008C57.0344 36.1656 57.0222 36.3323 56.9989 36.4953C56.9222 37.0267 56.7435 37.1792 56.2104 37.1849C56.1328 37.1849 56.0542 37.1906 55.9766 37.1849C55.7755 37.1688 55.6922 37.2588 55.7025 37.4625C55.7137 37.6955 55.7923 37.7211 56.1187 37.7088C56.8567 37.6794 57.5956 37.668 58.3345 37.6652C58.7386 37.6633 59.1426 37.6927 59.5467 37.7126C59.7478 37.723 59.7478 37.5885 59.7468 37.4464C59.7468 37.3052 59.7515 37.1735 59.5457 37.183C59.3596 37.1915 59.1707 37.1877 58.9855 37.1697C58.7582 37.147 58.5814 37.022 58.5272 36.7937C58.4711 36.5578 58.4271 36.3124 58.4252 36.0718C58.4159 34.7067 58.4205 33.3407 58.4205 31.9756C58.4205 31.5256 58.4205 31.0757 58.4205 30.6257H58.4196ZM33.4663 39.3628C34.2875 39.3524 35.09 39.2311 35.8822 39.0113C36.5921 38.8143 37.2618 38.5405 37.866 38.1066C38.5722 37.5998 38.7284 36.9471 38.3028 36.2025C37.9857 35.6484 37.4797 35.3016 36.9391 35.025C36.2208 34.6575 35.4772 34.3382 34.7364 34.0161C34.3427 33.8447 33.9508 33.5652 33.4962 33.8608C32.5515 33.9621 31.6892 34.3032 30.8923 34.8109C30.2216 35.2391 29.6324 35.7582 29.2686 36.4924C29.0338 36.967 28.9375 37.4539 29.1993 37.956C29.4332 38.4031 29.8223 38.6665 30.2553 38.8778C31.1167 39.2984 32.0483 39.3467 33.0538 39.4073C33.1417 39.3969 33.3035 39.3637 33.4663 39.3618V39.3628ZM34.8187 27.3451C34.6139 27.042 34.3193 26.826 33.9451 26.9681C33.7272 27.0515 33.5168 27.2296 33.3718 27.419C32.9369 27.9846 32.8087 28.6676 32.7311 29.362C32.6694 29.9171 32.7152 30.4609 32.9126 30.9866C33.1015 31.4896 33.5327 31.8042 33.9274 31.7075C34.2688 31.6242 34.5166 31.3902 34.7074 31.1041C35.1293 30.4694 35.278 29.7551 35.2686 28.9992C35.263 28.4071 35.1536 27.8396 34.8187 27.3451Z" fill="currentColor"></path></svg>