<svg width="127" height="64" viewBox="0 0 127 64" fill="none" xmlns="http://www.w3.org/2000/svg"><path d="M55.6209 34.0389V26.4701C55.2475 26.4701 54.8793 26.4841 54.5111 26.4613C54.4108 26.4561 54.3175 26.3405 54.2207 26.2757C54.3157 26.2267 54.4108 26.1357 54.5059 26.1339C55.4048 26.1234 56.302 26.1269 57.2579 26.1269V27.8567C57.289 27.8637 57.3201 27.8707 57.3495 27.876C57.429 27.7377 57.5086 27.5976 57.5898 27.4611C58.5094 25.9326 60.608 25.4038 62.1396 26.3003C62.9711 26.787 63.2165 27.5696 63.2235 28.4625C63.2373 30.1521 63.2269 31.8416 63.2269 33.5294C63.2269 33.68 63.2269 33.8288 63.2269 34.0126H64.5753C64.6963 34.2752 64.6548 34.3961 64.373 34.3961C63.0454 34.3908 61.7178 34.3961 60.3919 34.3873C60.3038 34.3873 60.2156 34.277 60.1275 34.2175C60.2225 34.1527 60.3141 34.0389 60.4127 34.0319C60.7809 34.0091 61.1508 34.0231 61.5432 34.0231C61.5519 33.841 61.564 33.7045 61.564 33.5679C61.564 31.7383 61.5709 29.9104 61.5605 28.0808C61.557 27.4103 61.4965 26.7012 60.7878 26.4088C59.9701 26.0709 59.2061 26.3545 58.5561 26.899C57.7938 27.5346 57.3737 28.3837 57.3495 29.3747C57.3115 30.9067 57.3391 32.4386 57.3391 34.0179H58.6892C58.8016 34.2998 58.7186 34.3943 58.4714 34.3943C57.1438 34.3908 55.8145 34.4293 54.4903 34.368C54.1533 34.3523 53.894 34.4223 53.5949 34.5099C52.6666 34.7812 51.4445 34.8233 50.9241 33.3035C50.6061 33.9794 50.1134 34.4503 49.4116 34.5326C48.7651 34.6079 48.0857 34.6202 47.4496 34.5046C46.5731 34.3453 46.1565 33.8095 46.0805 32.9516C46.0061 32.12 46.262 31.4004 47.0347 31.024C47.6743 30.7123 48.3727 30.518 49.0434 30.2711C49.1471 30.2326 49.2543 30.2028 49.3563 30.1626C49.8852 29.9472 50.5335 29.8824 50.7807 29.2626C51.0797 28.5133 51.0175 27.7307 50.7962 26.9656C50.6856 26.5856 50.4246 26.323 50.0287 26.3003C49.6363 26.2757 49.2283 26.2757 48.848 26.3598C48.3709 26.4648 48.1981 26.7537 48.2188 27.2527C48.2309 27.5573 48.2966 27.862 48.307 28.1666C48.3243 28.6411 48.084 28.8827 47.6103 28.9037C46.9586 28.9335 46.6786 28.7304 46.6388 28.2122C46.58 27.4418 46.9016 26.857 47.5101 26.4281C48.5248 25.712 50.5058 25.6945 51.5395 26.3843C52.3676 26.9358 52.5957 27.7744 52.6009 28.7076C52.6096 30.2291 52.6009 31.7506 52.6044 33.272C52.6044 34.1614 52.9778 34.3961 53.7799 34.0371C53.9095 33.9794 54.0893 34.0371 54.2449 34.0371C54.6978 34.0371 55.149 34.0371 55.6209 34.0371V34.0389ZM50.9155 29.9367C50.1825 30.2519 49.5412 30.5337 48.8964 30.8051C47.7002 31.3094 47.5325 32.5122 47.9146 33.4979C48.084 33.9338 48.4522 34.1544 48.9189 34.1825C49.9146 34.242 50.6493 33.6485 50.7772 32.5787C50.8792 31.7138 50.874 30.8366 50.9155 29.9367ZM87.103 34.0214C86.7175 34.0214 86.3597 34.0284 86.0036 34.0196C85.7391 34.0126 85.644 34.1019 85.7685 34.3926C87.1721 34.3926 88.581 34.3978 89.9881 34.382C90.0728 34.382 90.1541 34.2175 90.237 34.1299C90.2111 34.0914 90.1852 34.0511 90.1592 34.0126H88.7884C88.7884 32.6015 88.7832 31.2341 88.7919 29.8684C88.7936 29.5498 88.8092 29.2241 88.8783 28.9142C89.1566 27.6624 89.8083 26.7135 91.0944 26.3528C92.123 26.0639 92.8127 26.4911 92.9994 27.5013C93.0202 27.6099 93.0202 27.7237 93.0202 27.834C93.0236 29.8019 93.0253 31.7698 93.0236 33.7377C93.0236 33.8288 92.9977 33.9198 92.9804 34.0354H91.6407C91.5733 34.2805 91.6061 34.4048 91.8758 34.3978C92.3875 34.3838 92.8991 34.3943 93.4108 34.3943C94.2942 34.3943 95.1758 34.3943 96.0487 34.3943C96.1455 34.1404 96.1179 34.0126 95.843 34.0196C95.4748 34.0301 95.1049 34.0231 94.69 34.0231C94.69 33.8288 94.69 33.6782 94.69 33.5276C94.6866 31.7418 94.6987 29.9542 94.671 28.1684C94.6572 27.2965 94.2665 26.6224 93.4679 26.2197C92.1887 25.5772 90.5188 25.838 89.5179 26.8658C89.2586 27.1319 89.0494 27.4505 88.7729 27.8025V20.5383H85.7546C85.644 20.85 85.7581 20.934 86.0139 20.9252C86.37 20.9147 86.7261 20.9217 87.0995 20.9217V34.0231L87.103 34.0214ZM71.094 27.3683V20.9217C70.7016 20.9217 70.3317 20.9322 69.9635 20.913C69.8736 20.9077 69.7871 20.8027 69.699 20.7449C69.7906 20.6766 69.8822 20.5488 69.9756 20.5471C70.8866 20.5313 71.7976 20.5383 72.7587 20.5383V34.0161H74.1554C74.1814 34.0546 74.2073 34.0949 74.2332 34.1334C74.1485 34.221 74.0655 34.3803 73.9808 34.382C73.0577 34.3996 72.1329 34.3926 71.1649 34.3926V33.1197C71.0957 33.1197 71.0577 33.1127 71.0525 33.1197C70.3939 34.5589 68.9747 34.9441 67.5122 34.4398C66.0325 33.9286 64.4715 32.176 64.6323 29.8212C64.7533 28.0511 66.0602 26.3545 67.7871 25.9553C69.1181 25.6472 70.2089 25.9588 70.9436 27.1652C70.9713 27.2089 71.0058 27.2492 71.0957 27.3683H71.094ZM66.4785 30.1468C66.5667 31.059 66.5978 31.8696 66.7343 32.661C66.8986 33.6134 67.4673 34.1632 68.2469 34.2647C69.3826 34.4118 70.1657 34.0599 70.6203 33.1617C70.769 32.8693 70.9125 32.5437 70.9401 32.2233C71.0231 31.2691 71.0871 30.3096 71.0784 29.3519C71.0732 28.6464 70.9764 27.9338 70.5944 27.3035C70.081 26.4578 69.3031 26.1567 68.3696 26.2477C67.4707 26.3353 66.9452 26.9078 66.7827 27.7657C66.6289 28.5816 66.5684 29.415 66.4785 30.1468ZM30.9064 34.2122C31.0672 34.1282 31.2366 33.9916 31.3991 33.9934C31.6532 33.9969 31.9159 34.0739 32.1597 34.1632C33.4683 34.6412 34.8045 34.8057 36.1891 34.6062C38.6698 34.249 40.4606 31.6788 39.8833 29.2346C39.5911 27.9986 38.732 27.2702 37.5842 26.864C36.7786 26.5786 35.9523 26.3528 35.1537 26.0516C34.3585 25.7523 33.527 25.4826 32.8148 25.0344C31.7413 24.3586 31.5944 22.8494 32.355 21.8269C33.304 20.5523 36.0111 20.1251 37.3819 21.9039C37.84 22.4992 38.12 23.1715 38.2739 23.9034C38.3413 24.222 38.35 24.2185 38.6646 24.166V20.6591C38.4986 20.7256 38.3188 20.7379 38.2601 20.8289C38.0353 21.1861 37.7415 21.1511 37.4251 21.032C37.1814 20.9392 36.9463 20.8202 36.706 20.7169C35.0258 19.9956 33.0707 20.3702 31.8502 21.6448C30.0905 23.4867 30.5831 26.358 32.8667 27.4243C33.5132 27.7272 34.215 27.9075 34.8875 28.1526C35.6239 28.4223 36.4018 28.6183 37.0846 28.9913C39.2419 30.1696 38.5488 33.0864 37.088 33.8831C36.1736 34.382 35.2159 34.389 34.2289 34.284C33.0568 34.1614 32.1528 33.5907 31.6151 32.5437C31.2763 31.8836 31.0741 31.1518 30.8027 30.4567C30.7629 30.3552 30.6834 30.2711 30.6212 30.1801C30.5693 30.2886 30.4708 30.3954 30.4708 30.5057C30.4604 31.7751 30.4639 33.0444 30.4639 34.4853C30.6696 34.3575 30.7837 34.277 30.9064 34.214V34.2122ZM45.0779 33.834C44.7615 34.2822 44.2723 34.368 43.7745 34.2472C43.3077 34.1352 43.1591 33.722 43.0778 33.2983C43.0363 33.0812 43.0311 32.8536 43.0311 32.6312C43.0277 30.7193 43.0294 28.8074 43.0311 26.8955C43.0311 26.7625 43.0484 26.6294 43.0605 26.4701C43.8436 26.4701 44.5869 26.4718 45.332 26.4701C45.6241 26.4701 45.6241 26.4613 45.5878 26.1182H43.0208V23.6758C42.4503 23.7213 41.9317 23.7616 41.3526 23.8088V26.1374H39.9351C39.942 26.2547 39.9386 26.3808 39.9507 26.3825C40.4036 26.4351 40.86 26.4771 41.3543 26.5226C41.3543 26.6854 41.3543 26.85 41.3543 27.0146C41.3543 28.8284 41.3492 30.644 41.3543 32.4579C41.3578 33.6957 41.8885 34.3908 42.9706 34.5869C43.2005 34.6289 43.4374 34.6359 43.6725 34.6534C44.9119 34.7445 45.7192 34.0914 45.9283 32.8133C45.8367 32.7783 45.7399 32.7433 45.6933 32.7258C45.4772 33.1232 45.3129 33.5066 45.0779 33.8393V33.834ZM83.338 25.9308C83.1513 25.8888 82.956 25.8713 82.7641 25.8591C81.3864 25.7698 80.2264 26.6154 79.9723 27.946C79.7286 29.2224 80.2195 30.3009 81.6802 30.7613C82.3613 30.9767 83.0389 31.2271 83.6837 31.537C84.3251 31.8451 84.5273 32.4439 84.3527 33.202C84.204 33.8463 83.7339 34.235 83.0528 34.2805C81.8911 34.3558 81.0596 33.8235 80.5082 32.8256C80.3284 32.4999 80.2247 32.1322 80.076 31.7891C80.0484 31.7261 79.9706 31.6508 79.9135 31.649C79.8617 31.6473 79.7614 31.7366 79.7597 31.7873C79.7493 32.6452 79.7528 33.5049 79.7528 34.3943C79.8928 34.3715 80.0069 34.3873 80.0432 34.3418C80.299 34.0126 80.6033 34.1229 80.911 34.2192C81.2792 34.3348 81.6422 34.4748 82.0173 34.5571C82.9439 34.762 83.8289 34.6534 84.6328 34.1089C86.2197 33.0322 86.1401 30.8506 84.472 29.928C84.2075 29.7826 83.9188 29.6811 83.6353 29.5708C82.9162 29.2924 82.1833 29.0473 81.4745 28.7427C80.5825 28.3557 80.6932 27.2334 81.1858 26.7327C81.9326 25.9746 83.4555 26.0867 84.0381 26.9778C84.2697 27.3332 84.4011 27.7552 84.5947 28.1386C84.65 28.2507 84.7624 28.333 84.8488 28.4275C84.8817 28.403 84.9145 28.3767 84.9474 28.3522V26.0674C84.3354 26.4438 83.8549 26.0446 83.3345 25.9308H83.338ZM77.7597 26.1532H74.7017C74.7017 26.2477 74.6948 26.3738 74.7017 26.3755C75.1529 26.4298 75.6075 26.4736 76.0794 26.5191V34.0231C75.687 34.0231 75.3171 34.0301 74.9471 34.0214C74.6792 34.0144 74.6429 34.1422 74.7328 34.3943C76.1468 34.3943 77.5695 34.3978 78.9905 34.3855C79.0613 34.3855 79.1322 34.2682 79.2031 34.207C79.1322 34.1457 79.0631 34.0354 78.9905 34.0319C78.605 34.0144 78.2177 34.0231 77.7597 34.0231V26.1532ZM71.967 38.8904C71.82 40.3313 71.6748 41.774 71.5279 43.2237H72.2297C72.3248 42.3448 72.4199 41.4834 72.5236 40.5362C73.0214 41.2733 73.4657 41.9316 73.9497 42.6477C74.4355 41.9316 74.8797 41.2803 75.3759 40.5519C75.4761 41.5079 75.566 42.3605 75.6576 43.2184H76.4027C76.2523 41.746 76.1036 40.3051 75.9549 38.8659C75.9186 38.8606 75.8823 38.8536 75.846 38.8484C75.2255 39.7448 74.6049 40.6395 73.9722 41.5517C73.336 40.643 72.7085 39.7483 72.0828 38.8536C72.0447 38.8659 72.0067 38.8782 71.967 38.8922V38.8904ZM34.6887 40.5502C34.7889 41.4974 34.8788 42.3518 34.9705 43.2149H35.7172C35.5651 41.7407 35.4164 40.3016 35.2678 38.8606C35.2332 38.8554 35.1969 38.8501 35.1623 38.8466C34.5435 39.7378 33.9246 40.6307 33.2868 41.5482C32.6368 40.6202 32.011 39.729 31.387 38.8396C31.3524 38.8484 31.3196 38.8571 31.285 38.8676C31.138 40.3103 30.9911 41.753 30.8424 43.2202H31.5477C31.6445 42.3378 31.7379 41.4799 31.8399 40.5327C32.1113 40.9389 32.3256 41.261 32.5417 41.5832C32.7664 41.9158 32.9946 42.245 33.2677 42.6477C33.7569 41.9246 34.2012 41.2715 34.687 40.5519L34.6887 40.5502ZM59.2597 39.1163C58.2208 39.6468 57.7679 40.8496 58.2035 41.9211C58.6616 43.0504 60.1015 43.6176 61.4067 43.1869C62.3401 42.8788 62.9434 41.9263 62.7429 41.0772H60.6046V41.6532H61.9788C61.7852 42.3308 61.296 42.6669 60.5492 42.6862C59.7541 42.7054 59.1387 42.301 58.9036 41.6077C58.6737 40.9284 58.8794 40.151 59.4671 39.7956C59.7714 39.6117 60.1551 39.5102 60.5129 39.4769C61.0488 39.4279 61.4844 39.7115 61.8354 40.1177C62.029 39.9829 62.1966 39.8691 62.3626 39.7553C61.8094 38.8379 60.3626 38.5525 59.2597 39.1163ZM88.517 41.8055C87.4885 40.7795 86.5083 39.8043 85.4539 38.7538V43.2202H86.1211V40.3471C87.16 41.3818 88.1402 42.3588 89.1791 43.3935V38.9114H88.5188V41.8073L88.517 41.8055ZM45.2939 38.8799V43.2149H45.9923V40.4206C46.058 40.3699 46.1237 40.3191 46.1894 40.2666C47.1315 41.2698 48.0736 42.2712 49.014 43.2727V38.9167H48.3554V41.7512C48.3243 41.774 48.2931 41.7968 48.2603 41.8195C47.3078 40.8198 46.3553 39.8201 45.4028 38.8204C45.3665 38.8396 45.332 38.8606 45.2957 38.8799H45.2939ZM66.3713 39.4962H68.5494V38.9219H65.6211V43.2219H68.6687V42.6389H66.3765V41.7845H68.3074V41.1875H66.3713V39.4962ZM79.4295 43.2167H82.4547V42.6284H80.1815V41.7775H82.1089V41.1752H80.1815V39.4979H82.3821V38.9132H79.4313V43.2167H79.4295ZM42.535 43.2132C42.0735 43.2727 41.6845 43.3515 41.5531 42.8052C41.5359 42.7335 41.3647 42.6564 41.2645 42.6547C40.713 42.6407 40.1599 42.6407 39.6067 42.6547C39.5064 42.6564 39.3387 42.7282 39.3197 42.8C39.1884 43.2955 38.8461 43.2955 38.3932 43.2097C39.0639 41.739 39.7277 40.2876 40.4364 38.7346C41.1625 40.2841 41.8366 41.725 42.535 43.2132ZM39.6447 42.0419H41.2109C40.9481 41.4238 40.6992 40.8408 40.4243 40.1948C40.1478 40.8478 39.904 41.4291 39.6447 42.0419ZM55.9251 43.2132C55.4757 43.278 55.0763 43.3515 54.9398 42.7912C54.9242 42.7265 54.7738 42.6547 54.6857 42.6529C54.1204 42.6407 53.5534 42.6389 52.9881 42.6529C52.8896 42.6564 52.7254 42.737 52.7064 42.814C52.575 43.3235 52.2189 43.292 51.7885 43.2097C52.4574 41.746 53.1212 40.2928 53.8335 38.7328C54.5629 40.2946 55.2406 41.7442 55.9286 43.2114L55.9251 43.2132ZM53.8196 40.1965C53.5534 40.8233 53.3028 41.4168 53.0383 42.0384H54.6062C54.3382 41.4116 54.0858 40.8181 53.8196 40.1965ZM93.7756 39.4927H95.1101V38.9167H91.6217V39.5102H93.0046V43.2272H93.7756V39.4927ZM76.9126 20.6819C76.3266 20.6801 75.8944 21.1143 75.891 21.7079C75.8893 22.2891 76.3404 22.7601 76.904 22.7636C77.4658 22.7671 77.917 22.3014 77.9204 21.7184C77.9221 21.1178 77.5004 20.6854 76.9126 20.6836V20.6819Z" fill="currentColor"></path></svg>