<svg width="129" height="64" viewBox="0 0 129 64" fill="none" xmlns="http://www.w3.org/2000/svg"><path d="M27.5052 34.7879C26.9645 35.1572 26.4722 35.5415 25.9352 35.8495C24.9251 36.4291 23.8386 36.6051 22.7101 36.252C21.6464 35.9191 21.0357 35.1432 20.7942 34.0863C20.3008 31.9237 21.152 28.8513 23.273 27.368C24.561 26.467 25.9025 26.4296 27.2954 27.1037C27.4273 27.1676 27.4449 27.2403 27.4278 27.3665C27.3785 27.7347 27.339 28.1045 27.2912 28.5127C27.6189 28.5874 27.942 28.6659 28.2676 28.7287C28.3065 28.736 28.3839 28.6695 28.4052 28.6202C28.8622 27.5685 29.3141 26.5142 29.7695 25.4537C29.2206 25.1473 28.4042 25.0107 26.199 24.885C28.4078 24.1543 30.5589 23.4428 32.7438 22.7199C32.7501 22.8321 32.7584 22.9136 32.7584 22.9946C32.7589 26.7339 32.7573 30.4732 32.7631 34.2125C32.7631 34.4067 32.7148 34.4986 32.5205 34.5605C31.2367 34.9713 29.956 35.3904 28.6789 35.8225C28.4634 35.8952 28.3424 35.8682 28.2094 35.6812C27.9851 35.3654 27.7301 35.071 27.5041 34.7874L27.5052 34.7879ZM20.159 38.5438C20.0801 38.5096 19.9996 38.4768 19.9196 38.4446C18.6888 37.9481 17.7467 37.1276 17.1972 35.9128C16.3626 34.0666 16.5402 32.2379 17.4127 30.4581C18.1294 28.9967 19.2377 27.8666 20.5392 26.9136C20.6135 26.8591 20.6851 26.8004 20.7578 26.7433C20.7464 26.7277 20.735 26.7121 20.7241 26.6965C18.1782 27.5384 15.6324 28.3808 13.0913 29.2216V40.9214C15.4761 40.1403 17.8381 39.3665 20.2073 38.5901C20.1834 38.5662 20.1736 38.5495 20.1596 38.5433L20.159 38.5438ZM18.3585 41.5976H32.8119V36.641C27.9731 38.2888 23.1588 39.9279 18.345 41.5669C18.3496 41.5768 18.3538 41.5872 18.3585 41.5971V41.5976ZM27.5395 21.999H13.0866V26.951C17.9181 25.3067 22.7288 23.6692 27.54 22.0317C27.54 22.0208 27.54 22.0099 27.54 21.999H27.5395Z" fill="currentColor"></path><path d="M45.5265 31.1094C45.7129 31.3333 45.8937 31.5509 46.0827 31.7778C45.1578 32.7765 44.0562 33.3764 42.6997 33.4574C41.7784 33.5125 40.882 33.3982 40.0625 32.9458C38.6119 32.1461 38.0386 30.8529 38.0702 29.2554C38.0972 27.8905 38.7106 26.8165 39.8552 26.0962C41.7197 24.9235 43.6922 25.0637 45.701 25.6937C45.5712 26.3538 45.4486 26.9791 45.3198 27.635C45.1396 27.62 44.9469 27.6044 44.7329 27.5867C44.7184 27.4891 44.6872 27.3966 44.6935 27.3068C44.7189 26.951 44.5101 26.7932 44.2157 26.668C43.5457 26.3829 42.8612 26.2556 42.1404 26.4114C41.0835 26.6399 40.3782 27.4616 40.2307 28.6301C40.0536 30.0297 40.6613 31.2912 41.7929 31.7986C42.788 32.2447 43.769 32.1139 44.7127 31.621C44.9864 31.4782 45.2377 31.2923 45.527 31.1089L45.5265 31.1094ZM67.203 32.7075C66.9547 32.7028 66.9028 32.56 66.8997 32.3559C66.8882 31.5608 66.8695 30.7662 66.8628 29.971C66.8576 29.3655 66.8784 28.7594 66.6852 28.1725C66.4297 27.3972 65.8485 26.9832 65.0316 26.9651C64.3642 26.95 63.7768 27.1676 63.2295 27.5234C63.0513 27.6392 62.883 27.769 62.6743 27.9186C62.708 27.58 62.7371 27.2855 62.7677 26.9791C61.8153 26.883 60.9625 27.3515 60.0448 27.3135V27.8313C60.224 27.8692 60.384 27.9253 60.5455 27.9316C60.789 27.9409 60.8441 28.0723 60.8425 28.2806C60.8311 29.6901 60.8249 31.0991 60.8062 32.5086C60.8051 32.5678 60.7091 32.6535 60.64 32.6779C60.4806 32.7334 60.3107 32.7589 60.1539 32.7942V33.2684H63.4382V32.7958C63.3115 32.7688 63.1869 32.7277 63.0601 32.7184C62.8332 32.7012 62.7568 32.5844 62.7568 32.3673C62.7579 31.555 62.7272 30.7428 62.7532 29.9316C62.7641 29.5836 62.8482 29.2263 62.963 28.896C63.1282 28.4208 63.5556 28.1845 64.0464 28.2286C64.5356 28.2723 64.7859 28.507 64.9101 29.0466C64.9391 29.1728 64.9667 29.3021 64.9677 29.4304C64.976 30.3029 64.9776 31.1759 64.9807 32.0484C64.9822 32.4592 64.9807 32.8695 64.9807 33.2663H67.6039V32.7978C67.4689 32.7656 67.3364 32.7101 67.203 32.7075ZM103.841 32.721C103.622 32.6966 103.513 32.6057 103.513 32.3631C103.514 31.7576 103.459 31.151 103.488 30.5475C103.514 30.0167 103.58 29.4792 103.709 28.9651C103.843 28.4322 104.286 28.1808 104.815 28.2281C105.313 28.2728 105.618 28.5356 105.675 29.1032C105.746 29.8235 105.754 30.5511 105.769 31.2756C105.784 31.9383 105.772 32.602 105.772 33.2663H108.363V32.7968C108.267 32.7734 108.184 32.7501 108.099 32.7334C107.68 32.6514 107.669 32.6524 107.66 32.2297C107.639 31.2528 107.638 30.2754 107.61 29.2985C107.6 28.964 107.567 28.6218 107.483 28.2987C107.302 27.6007 106.881 27.1172 106.133 26.9967C105.318 26.8653 104.595 27.111 103.929 27.5628C103.775 27.6667 103.629 27.781 103.437 27.9212C103.472 27.5763 103.501 27.286 103.537 26.9261C103.156 26.976 102.792 27.0134 102.43 27.0726C101.888 27.1614 101.349 27.2647 100.809 27.3624V27.8292C100.973 27.863 101.123 27.9082 101.276 27.9217C101.517 27.943 101.613 28.0546 101.61 28.3019C101.594 29.6942 101.591 31.0861 101.573 32.4784C101.572 32.5475 101.477 32.6477 101.403 32.6763C101.247 32.7366 101.075 32.7589 100.923 32.7937V33.2673H104.188V32.7926C104.074 32.7682 103.958 32.734 103.84 32.721H103.841ZM51.4553 33.1936C52.7033 32.7797 53.4673 31.9139 53.6434 30.5942C53.823 29.2465 53.3343 28.184 52.1736 27.4636C50.9132 26.6815 48.9121 26.803 47.7368 27.7093C46.1866 28.9048 46.0905 31.367 47.5499 32.6265C48.2463 33.2273 49.0845 33.4221 49.9908 33.4891C50.48 33.394 50.9864 33.3499 51.4559 33.1941L51.4553 33.1936ZM51.285 31.8594C50.7501 32.7158 49.6537 32.7558 49.0523 31.943C48.4374 31.1115 48.3652 29.4403 48.9064 28.5579C49.5099 27.5737 50.735 27.6044 51.2897 28.6171C51.567 29.1235 51.6371 29.6776 51.6657 30.28C51.6506 30.8072 51.594 31.3639 51.2845 31.8589L51.285 31.8594ZM98.2988 33.0497C100.321 32.118 100.788 29.3572 99.1667 27.863C98.3279 27.0897 97.3069 26.8762 96.2048 26.9713C94.464 27.1219 93.0841 28.2343 92.9797 30.023C92.907 31.2684 93.4232 32.4862 94.7205 33.0866C95.2627 33.3374 95.8408 33.4288 96.4905 33.433C97.0799 33.4247 97.7057 33.3224 98.2978 33.0497H98.2988ZM97.806 31.7399C97.2918 32.7345 96.0589 32.8056 95.4533 31.8651C95.0436 31.2289 94.9631 30.5117 95.0114 29.7742C95.0462 29.2382 95.1776 28.7345 95.5385 28.3159C96.1098 27.6532 97.0815 27.6895 97.5967 28.3938C98.009 28.9578 98.101 29.6106 98.1119 30.2847C98.1155 30.7921 98.0428 31.2829 97.8065 31.7399H97.806ZM115.318 29.379C115.285 28.1289 114.63 27.2876 113.437 27.0591C112.987 26.9728 112.505 26.976 112.047 27.0243C110.447 27.1931 109.144 28.3185 108.923 29.9627C108.734 31.3696 109.433 32.6602 110.727 33.1531C111.7 33.5228 112.689 33.5441 113.669 33.1873C114.398 32.922 114.992 32.4587 115.487 31.8402C115.266 31.6361 115.06 31.4449 114.846 31.2465C114.767 31.3156 114.704 31.3733 114.638 31.4283C114.158 31.836 113.613 32.0905 112.976 32.1341C111.685 32.2224 110.702 31.1712 110.942 29.9175H115.319C115.319 29.7223 115.322 29.5509 115.318 29.379H115.318ZM112.444 27.8007C113.042 27.7996 113.491 28.2967 113.418 28.8892C113.411 28.9448 113.339 29.0336 113.292 29.0367C112.537 29.0835 111.78 29.1183 111.02 29.1562C111.086 28.3746 111.698 27.8022 112.444 27.8007ZM74.5663 29.5073C74.546 28.2255 73.9597 27.3909 72.8477 27.0954C72.5585 27.0185 72.2505 26.977 71.9513 26.9775C70.5844 26.9806 69.418 27.4221 68.6405 28.6129C67.7909 29.9144 67.8999 32.1892 69.7114 33.0373C70.9771 33.6298 72.2593 33.594 73.4943 32.9038C73.9711 32.6374 74.3803 32.2842 74.7169 31.8355C74.4972 31.6324 74.2952 31.4455 74.0879 31.2538C73.9311 31.379 73.7904 31.5073 73.6346 31.6132C72.8384 32.1538 71.9965 32.3283 71.0892 31.9056C70.4567 31.6106 69.9986 30.7189 70.197 29.9113H74.5465C74.5533 29.7789 74.5678 29.6428 74.5657 29.5073H74.5663ZM70.2484 29.1588C70.3144 28.6451 70.5299 28.2525 70.9532 28.0043C71.351 27.7711 71.7836 27.6958 72.2048 27.9456C72.6036 28.1819 72.6764 28.573 72.6525 29.0331C71.8428 29.0752 71.0628 29.1162 70.2484 29.1588ZM81.1884 32.7256C81.2149 32.7433 81.2482 32.7703 81.2856 32.789C82.332 33.3161 83.4403 33.5244 84.6037 33.3961C85.2835 33.3213 85.9192 33.1172 86.4525 32.6571C87.202 32.0115 87.5162 30.4608 86.1446 29.837C85.565 29.5732 84.949 29.3899 84.3539 29.1598C84.09 29.0575 83.8143 28.9619 83.5816 28.8067C83.2658 28.5958 83.3219 28.2016 83.6678 28.0432C83.7758 27.9939 83.8979 27.9648 84.0163 27.9513C84.5621 27.8895 85.0804 27.996 85.5842 28.2089C85.74 28.2748 85.8309 28.3528 85.8023 28.533C85.7763 28.696 85.8257 28.7978 86.0173 28.7989C86.1259 28.7994 86.2339 28.8321 86.3346 28.8492C86.5107 28.3502 86.6785 27.8744 86.8514 27.3847C85.8345 27.0082 84.8026 26.8711 83.7369 27.0518C83.1833 27.1458 82.6727 27.3405 82.237 27.7098C81.5395 28.3008 81.3053 29.6226 82.4427 30.2411C82.7673 30.4177 83.1069 30.5704 83.4481 30.7127C83.8865 30.8955 84.3393 31.044 84.7756 31.2315C85.1183 31.379 85.2534 31.6319 85.1651 31.9305C85.0612 32.2826 84.7699 32.4244 84.4401 32.4727C83.8002 32.5657 83.2014 32.4234 82.6566 32.0811C82.5902 32.0391 82.533 31.8911 82.5548 31.8163C82.6322 31.5457 82.5491 31.392 82.2822 31.3234C82.2334 31.3109 82.1877 31.2839 82.1305 31.259C81.8091 31.7602 81.5021 32.239 81.1895 32.7267L81.1884 32.7256ZM88.8171 29.3608C88.814 30.1731 88.7745 30.9869 88.8145 31.7965C88.8488 32.4847 89.15 33.07 89.8511 33.298C90.1846 33.406 90.5684 33.432 90.9194 33.3956C91.5884 33.327 92.116 32.9666 92.5491 32.4514C92.3705 32.2484 92.2116 32.0682 92.0495 31.8833C91.9976 31.9118 91.9597 31.9305 91.9239 31.9529C91.2139 32.399 90.761 32.2203 90.7107 31.38C90.6431 30.2598 90.6816 29.1333 90.6759 28.0095C90.6759 27.9954 90.6925 27.9814 90.7023 27.9658H91.9301C92.0449 27.6849 92.1648 27.392 92.2999 27.0622H90.6883V25.5628C90.2261 25.6516 89.779 25.7462 89.3287 25.8225C88.815 25.9097 88.814 25.903 88.814 26.4296C88.814 27.0533 88.8161 27.058 88.2292 27.2824C88.0921 27.3348 88.0376 27.4034 88.05 27.5472C88.061 27.6729 88.0521 27.8007 88.0521 27.9487H88.8171C88.8171 28.4457 88.8187 28.9027 88.8171 29.3598V29.3608ZM79.0181 32.7942C78.8233 32.7584 78.6307 32.7116 78.4354 32.6914C78.278 32.6753 78.209 32.6155 78.2027 32.4514C78.1762 31.7524 78.1201 31.0539 78.1144 30.3553C78.1103 29.8428 78.2173 29.3411 78.4712 28.8846C78.626 28.6067 78.8285 28.373 79.1417 28.2665C79.5447 28.1294 79.6673 28.2084 79.7135 28.6233C79.7171 28.6566 79.7275 28.6888 79.7369 28.7334C79.8828 28.7558 80.0246 28.7776 80.1549 28.7973C80.3533 28.2214 80.5439 27.6698 80.746 27.0829C79.4704 26.6212 78.6582 27.2808 77.9296 28.2203C77.969 27.8126 78.009 27.4055 78.0563 26.9183C77.1578 27.0674 76.291 27.2112 75.4071 27.3577C75.4071 27.4678 75.406 27.5794 75.4076 27.6911C75.4081 27.7332 75.4154 27.7747 75.4206 27.8292C75.5452 27.8552 75.6616 27.8817 75.7789 27.904C76.21 27.9861 76.2256 27.9856 76.2266 28.4203C76.2292 29.6475 76.224 30.8752 76.2084 32.1019C76.2017 32.6337 76.1861 32.6332 75.659 32.762C75.6117 32.7734 75.565 32.7885 75.5276 32.7989V33.2689H79.0186V32.7942H79.0181ZM54.7387 27.9103C54.7812 27.9186 54.8228 27.9388 54.8649 27.9394C55.0856 27.943 55.1562 28.0578 55.1547 28.2702C55.1458 29.5924 55.151 30.9152 55.1401 32.2375C55.1365 32.6545 55.1204 32.6535 54.708 32.736C54.6254 32.7527 54.5444 32.7781 54.4686 32.7978V33.2673H57.9524V32.7916C57.7384 32.7532 57.5312 32.7303 57.3338 32.6732C57.2575 32.6509 57.1505 32.5532 57.1479 32.4867C57.1152 31.6335 57.0695 30.7781 57.0908 29.9253C57.1027 29.4496 57.2731 28.9931 57.5899 28.6129C57.794 28.3678 58.0521 28.2265 58.3746 28.2172C58.5211 28.213 58.6145 28.2624 58.6317 28.4358C58.6644 28.7703 58.7454 28.817 59.1032 28.7641C59.2928 28.2115 59.4793 27.6672 59.6735 27.1001C59.1412 26.8394 58.6125 26.8742 58.0874 27.1261C57.5722 27.3733 57.2217 27.8043 56.8529 28.318C56.9007 27.8183 56.9402 27.4023 56.9869 26.9131C56.076 27.0668 55.2206 27.2107 54.3481 27.3582C54.3163 27.6691 54.4466 27.853 54.7392 27.9097L54.7387 27.9103ZM80.7486 36.4265C80.8005 36.4722 80.8498 36.5522 80.9049 36.5569C81.0752 36.5704 81.1199 36.6566 81.1189 36.8113C81.1147 37.6761 81.1147 38.5408 81.1173 39.4055C81.1173 39.5483 81.0783 39.6298 80.9189 39.6449C80.8566 39.6511 80.8015 39.7249 80.7428 39.7675C80.7558 39.7882 80.7688 39.8095 80.7818 39.8303H82.144L82.1866 39.7727C82.1321 39.728 82.077 39.6838 82.0225 39.6387C81.9597 39.5862 81.8485 39.5369 81.8433 39.4792C81.8101 39.0778 81.7992 38.6742 81.781 38.2795C82.035 38.2047 82.1866 38.2567 82.3232 38.452C82.6353 38.8976 82.9693 39.3281 83.3053 39.7566C83.3593 39.8256 83.4679 39.8911 83.551 39.8905C83.7909 39.8885 84.0308 39.8516 84.3736 39.8184C83.7094 39.3468 83.2799 38.7563 82.8379 38.1622C82.9682 38.1196 83.069 38.0941 83.164 38.0541C83.6252 37.8615 83.8319 37.5088 83.7696 37.0289C83.7223 36.6654 83.4055 36.3834 82.9257 36.3652C82.2116 36.3382 81.4954 36.3585 80.7797 36.3585C80.7688 36.3813 80.7579 36.4037 80.747 36.4265H80.7486ZM81.8143 36.7298C82.1098 36.7298 82.3892 36.709 82.6634 36.736C82.8914 36.7584 83.0607 36.8939 83.1048 37.1411C83.1511 37.3987 83.0607 37.6044 82.8436 37.7389C82.5221 37.9378 82.1674 37.943 81.8143 37.8999V36.7298ZM60.0635 39.848C60.7267 39.848 61.3915 39.8755 62.0526 39.8397C62.6509 39.8075 63.1225 39.4984 63.4242 38.9791C63.7815 38.3642 63.8381 37.7088 63.5057 37.0715C63.19 36.466 62.6099 36.3372 61.9804 36.3455C61.3754 36.3533 60.7703 36.3559 60.1653 36.3626C60.1269 36.3626 60.0884 36.3798 59.9913 36.4031C60.0677 36.4748 60.1103 36.5491 60.1518 36.5486C60.4115 36.5428 60.4073 36.7168 60.4063 36.895C60.4032 37.7249 60.398 38.5543 60.4001 39.3842C60.4001 39.5364 60.3694 39.6298 60.1944 39.6454C60.1341 39.6506 60.0801 39.7264 60.023 39.7701C60.0365 39.796 60.05 39.822 60.0635 39.848ZM61.0783 37.0165C61.0726 36.8295 61.1479 36.7485 61.3271 36.7381C61.4476 36.7314 61.567 36.709 61.6875 36.7023C62.3912 36.6644 62.8675 37.0196 62.948 37.716C62.9859 38.0474 62.9578 38.413 62.856 38.7293C62.6213 39.4564 61.9041 39.6511 61.1972 39.4195C61.1412 39.4013 61.0918 39.272 61.0897 39.1931C61.0783 38.8217 61.0846 38.4504 61.0846 38.0791C61.0835 38.0791 61.0825 38.0791 61.082 38.0791C61.082 37.7249 61.0897 37.3707 61.0788 37.0165H61.0783ZM54.2162 36.7038C54.2167 37.5852 54.2146 38.466 54.2183 39.3473C54.2188 39.5239 54.1892 39.6522 53.9726 39.6527C53.9378 39.6527 53.903 39.7264 53.8677 39.7659C53.8984 39.7898 53.9285 39.8334 53.9596 39.8339C54.3086 39.8386 54.6571 39.8371 55.0061 39.8371C55.0165 39.8126 55.0264 39.7888 55.0368 39.7643C54.9822 39.7228 54.9293 39.6496 54.8727 39.6465C54.7044 39.6376 54.6826 39.5431 54.6789 39.406C54.6644 38.8534 54.6421 38.3008 54.6249 37.7482C54.6202 37.5919 54.6244 37.4356 54.6244 37.2793C55.1869 38.0282 55.714 38.7667 56.1866 39.5379C56.3912 39.8724 56.627 39.9425 56.9848 39.8594C56.9848 39.8023 56.9848 39.7441 56.9848 39.6854C56.9843 38.7433 56.9828 37.8012 56.9838 36.8591C56.9838 36.7106 56.9817 36.56 57.203 36.5553C57.2481 36.5543 57.2912 36.4634 57.3655 36.3803H56.1175C56.212 36.4732 56.2562 36.5548 56.3019 36.5558C56.5091 36.561 56.5024 36.6955 56.507 36.8404C56.5231 37.3587 56.546 37.8765 56.5631 38.3948C56.5688 38.5704 56.5642 38.7464 56.5642 38.9791C56.4712 38.8493 56.4099 38.7682 56.3538 38.6841C55.8791 37.9731 55.4065 37.2611 54.9308 36.5512C54.8846 36.4826 54.8228 36.3777 54.7625 36.3741C54.4759 36.3554 54.1876 36.3657 53.8999 36.3657L53.8688 36.4722C53.9747 36.5205 54.0812 36.5683 54.2048 36.6244C54.2068 36.6374 54.2172 36.6706 54.2172 36.7033L54.2162 36.7038ZM71.659 36.3429C71.1053 36.2603 70.5502 36.2349 70.0521 36.5574C69.4855 36.924 69.4974 37.648 70.0812 37.9721C70.3279 38.1092 70.6036 38.1933 70.867 38.3003C71.0425 38.3715 71.2279 38.4234 71.3925 38.5138C71.5961 38.6254 71.7099 38.8062 71.6693 39.0523C71.6299 39.2949 71.4699 39.4242 71.244 39.4875C70.8997 39.5847 70.5756 39.5078 70.2619 39.3665C70.0895 39.2891 69.9015 39.217 69.9674 38.9557C69.9768 38.9183 69.9088 38.8477 69.861 38.8181C69.8444 38.8077 69.7587 38.8659 69.741 38.9079C69.647 39.1276 69.565 39.352 69.4684 39.6008C69.6828 39.6776 69.8792 39.769 70.0859 39.8178C70.7163 39.9664 71.3354 39.982 71.9093 39.607C72.4099 39.2803 72.6291 38.3683 71.8075 37.9897C71.6356 37.9103 71.4569 37.8448 71.2804 37.7752C71.0399 37.6802 70.7802 37.6163 70.5652 37.4813C70.4426 37.4044 70.3445 37.2195 70.3222 37.0705C70.2936 36.8763 70.4619 36.7334 70.64 36.7267C70.9428 36.7153 71.2497 36.7449 71.5504 36.79C71.6984 36.8124 71.848 36.8918 71.821 37.1043C71.8168 37.1391 71.8859 37.1827 71.9207 37.2221C71.9591 37.1868 72.0152 37.1588 72.0329 37.1152C72.1103 36.9256 72.1767 36.7308 72.2593 36.5049C72.0521 36.4478 71.8589 36.3725 71.659 36.3429ZM110.36 39.634C110.698 39.4403 110.866 39.125 110.848 38.7225C110.832 38.3429 110.601 38.1279 110.286 37.9825C110.082 37.8885 109.87 37.8126 109.662 37.7285C109.455 37.6444 109.228 37.5888 109.048 37.4657C108.932 37.3868 108.805 37.1957 108.825 37.0788C108.847 36.9443 109.016 36.7495 109.139 36.7345C109.429 36.6997 109.732 36.7407 110.026 36.7812C110.234 36.8098 110.375 36.9323 110.308 37.1749C110.521 37.2242 110.63 37.0482 110.737 36.4878C110.53 36.4364 110.325 36.3683 110.114 36.3367C109.621 36.2634 109.128 36.2567 108.668 36.4893C108.354 36.6477 108.149 36.8981 108.138 37.2627C108.128 37.6137 108.332 37.8417 108.622 38.0022C108.721 38.0562 108.823 38.1035 108.928 38.1424C109.22 38.2505 109.518 38.3408 109.805 38.4603C110.068 38.5698 110.211 38.7999 110.177 39.0253C110.136 39.299 109.959 39.4434 109.696 39.5005C109.34 39.5784 109.014 39.4881 108.696 39.3343C108.544 39.2611 108.434 39.1811 108.473 38.9822C108.483 38.9339 108.408 38.8685 108.373 38.8113C108.323 38.857 108.253 38.8934 108.227 38.95C108.139 39.1463 108.066 39.3494 107.972 39.5909C108.769 39.9456 109.563 40.0926 110.361 39.6345L110.36 39.634ZM47.7436 36.4307C47.782 36.4727 47.8215 36.5517 47.8594 36.5506C48.1217 36.5454 48.0889 36.7277 48.0884 36.8898C48.0869 37.5036 48.0775 38.117 48.0827 38.7308C48.0864 39.1702 48.2157 39.5732 48.6441 39.7617C49.1624 39.9897 49.7119 39.996 50.2245 39.7436C50.4109 39.6516 50.5782 39.4636 50.6846 39.2793C50.9126 38.8846 50.8924 38.4333 50.8898 37.9918C50.8867 37.5275 50.8893 37.0632 50.8893 36.6623C51.043 36.5636 51.1365 36.5039 51.23 36.4442C51.2165 36.4218 51.2035 36.399 51.19 36.3766H50.0251C50.0905 36.4592 50.1258 36.5428 50.1622 36.5434C50.4317 36.5475 50.4213 36.7324 50.425 36.9178C50.4281 37.0643 50.4541 37.2112 50.4499 37.3572C50.4354 37.8729 50.453 38.3948 50.3798 38.9028C50.3206 39.3162 50.0022 39.4953 49.5556 39.4849C49.1531 39.4756 48.8867 39.2746 48.814 38.8617C48.6805 38.1066 48.7844 37.3515 48.8259 36.6628C48.9672 36.5636 49.0555 36.5013 49.1443 36.439C49.1297 36.4172 49.1152 36.3948 49.1006 36.373H47.7867C47.7721 36.3922 47.7571 36.4114 47.7425 36.4307H47.7436ZM104.527 36.7672C104.774 36.776 104.993 36.8243 105.067 37.1001C105.272 37.0201 105.265 36.8181 105.059 36.347C104.286 36.347 103.509 36.3444 102.732 36.3507C102.642 36.3512 102.552 36.3995 102.462 36.426C102.544 36.4795 102.626 36.5325 102.708 36.5859C102.722 36.5953 102.734 36.6062 102.751 36.6192C102.756 36.641 102.767 36.6654 102.767 36.6903C102.77 37.6054 102.777 38.521 102.767 39.4361C102.767 39.5036 102.66 39.5732 102.597 39.6371C102.547 39.688 102.488 39.7316 102.433 39.7784C103.21 39.8397 103.943 39.8397 104.677 39.8402C105.267 39.8402 105.27 39.8412 105.41 39.2736C105.428 39.1983 105.39 39.1084 105.379 39.0258C105.313 39.0747 105.245 39.1193 105.184 39.1728C105.105 39.2414 105.038 39.3722 104.956 39.3811C104.52 39.4268 104.08 39.4486 103.641 39.4626C103.583 39.4647 103.472 39.378 103.47 39.3297C103.456 38.9272 103.463 38.5241 103.463 38.0967C103.761 38.0967 104.036 38.0952 104.31 38.0972C104.433 38.0983 104.55 38.1082 104.589 38.265C104.598 38.3013 104.672 38.333 104.721 38.3419C104.737 38.345 104.788 38.2707 104.789 38.2312C104.795 38.0012 104.792 37.7706 104.792 37.54C104.779 37.5202 104.766 37.5005 104.753 37.4803C104.386 37.9456 103.911 37.7358 103.465 37.7784V36.7189C103.84 36.7366 104.183 36.7563 104.527 36.7682V36.7672ZM77.1531 36.7584C77.3848 36.7739 77.6522 36.7547 77.7613 37.0518C77.7696 37.0741 77.86 37.0908 77.8916 37.0731C77.9233 37.0549 77.9488 36.9879 77.9425 36.9479C77.9254 36.8373 77.8709 36.7308 77.8662 36.6213C77.8553 36.3766 77.7275 36.3408 77.5094 36.3455C76.8441 36.36 76.1778 36.3465 75.5125 36.3528C75.3957 36.3538 75.2788 36.3985 75.1625 36.4229C75.2513 36.494 75.3406 36.5652 75.4777 36.6748C75.4777 37.5597 75.4808 38.5086 75.4704 39.4574C75.4699 39.5177 75.3686 39.5789 75.3105 39.6355C75.2585 39.687 75.2014 39.7332 75.1464 39.7815L75.1916 39.835H77.9825C78.0376 39.6122 78.0952 39.4039 78.1362 39.1931C78.1461 39.1427 78.102 39.0819 78.0828 39.0258C78.0293 39.0539 77.9623 39.0705 77.9244 39.1126C77.8522 39.1931 77.8096 39.3494 77.7306 39.367C77.2253 39.4808 76.7122 39.5145 76.1897 39.4465C76.1778 39.1811 76.156 38.9396 76.1581 38.6986C76.1638 37.9622 76.0537 38.1014 76.747 38.0957C76.9594 38.0941 77.2274 38.0001 77.3281 38.3211C77.3344 38.3408 77.418 38.3367 77.4767 38.345V37.4434C77.0939 37.9456 76.6198 37.7316 76.1762 37.7799V36.7532C76.5154 36.7532 76.8353 36.7371 77.1521 36.7584H77.1531ZM99.4393 39.1629C98.6239 39.7711 97.5463 39.4122 97.3069 38.4322C97.1744 37.8905 97.2113 37.3457 97.6808 36.9588C98.1129 36.6026 98.612 36.5932 99.1209 36.8103C99.2607 36.87 99.35 36.95 99.351 37.1162C99.351 37.164 99.4154 37.2112 99.4502 37.2585C99.4954 37.2201 99.5686 37.1889 99.5811 37.1422C99.6356 36.9355 99.672 36.7241 99.7177 36.5029C99.2087 36.2795 98.6852 36.2458 98.1607 36.3268C97.432 36.439 96.8722 36.8176 96.6598 37.5452C96.4489 38.2666 96.545 38.9568 97.1287 39.501C97.7639 40.0936 99.1573 40.1175 99.8709 39.1827C99.8138 39.1141 99.754 39.0425 99.6881 38.963C99.5993 39.0352 99.5219 39.1022 99.4393 39.1635V39.1629ZM86.4385 36.5496C86.6655 36.5486 86.721 36.7101 86.7808 36.8742C87.109 37.7742 87.4647 38.6659 87.7519 39.5789C87.8709 39.957 88.117 39.8158 88.3352 39.8532C88.5626 39.8916 88.5502 39.7036 88.5974 39.5784C88.9511 38.6509 89.297 37.7207 89.66 36.7973C89.6979 36.7007 89.8309 36.642 89.9192 36.5652C89.9711 36.52 90.022 36.4732 90.1228 36.3824H88.9293C88.9184 36.4068 88.9075 36.4312 88.8971 36.4556C88.9895 36.5132 89.082 36.5714 89.2144 36.654C88.9324 37.499 88.6473 38.3538 88.3617 39.2092C88.3372 39.2045 88.3128 39.1998 88.2889 39.1951C88.0028 38.3377 87.7161 37.4797 87.4383 36.6477C87.5624 36.5647 87.6512 36.5044 87.7405 36.4447C87.7275 36.4218 87.7145 36.399 87.701 36.3756H86.2645C86.3502 36.4644 86.3944 36.5491 86.438 36.5491L86.4385 36.5496ZM42.8186 39.4559C42.8181 39.5171 42.7158 39.5795 42.6566 39.6371C42.6052 39.6864 42.5475 39.7295 42.4925 39.7753C42.507 39.7919 42.521 39.809 42.5356 39.8256H43.9939C44.0043 39.7981 44.0142 39.7701 44.0245 39.7425C43.9446 39.7077 43.8625 39.6766 43.7856 39.6361C43.6979 39.5898 43.5436 39.5379 43.541 39.4829C43.5208 39.0461 43.5296 38.6078 43.5296 38.1435C43.7945 38.1435 44.0432 38.1403 44.292 38.1445C44.4426 38.1471 44.6083 38.1227 44.6587 38.3372C44.6665 38.3709 44.7714 38.3818 44.8456 38.4078V37.5145C44.4499 37.9674 43.9835 37.7986 43.5306 37.8199V36.7101C43.8947 36.7272 44.2375 36.7392 44.5797 36.761C44.7631 36.7724 44.9402 36.8041 45.0243 37.0092C45.0383 37.043 45.1157 37.0502 45.1635 37.07C45.1816 37.0206 45.2232 36.9671 45.2144 36.923C45.178 36.7381 45.1271 36.5563 45.0819 36.3741H42.5335C42.521 36.3995 42.5081 36.4249 42.4956 36.4504C42.5927 36.508 42.6903 36.5652 42.8259 36.6457C42.8259 37.5566 42.829 38.506 42.8186 39.4553V39.4559ZM92.4198 36.4379C92.4801 36.4816 92.5367 36.5563 92.6006 36.5621C92.7527 36.5761 92.7849 36.6597 92.7849 36.7869C92.7849 37.6584 92.786 38.5304 92.788 39.4018C92.788 39.5561 92.732 39.6397 92.5621 39.6485C92.5128 39.6511 92.4686 39.7436 92.3897 39.8308H93.887C93.8376 39.7503 93.807 39.6558 93.7769 39.6563C93.4803 39.6584 93.5182 39.4398 93.5053 39.2585C93.4923 39.0778 93.4829 38.8965 93.484 38.7153C93.4897 38.0105 93.5001 37.3058 93.5084 36.642C93.6538 36.5345 93.8807 36.6244 93.8376 36.3741H92.4577C92.4453 36.3953 92.4328 36.4166 92.4203 36.4379H92.4198Z" fill="currentColor"></path></svg>