<svg width="127" height="64" viewBox="0 0 127 64" fill="none" xmlns="http://www.w3.org/2000/svg"><path d="M25.6684 31.1533C25.5127 25.3256 30.4128 20.2792 36.3437 20.272C42.2868 20.2648 47.2225 25.1163 47.1574 31.3378C47.0973 37.119 42.3459 42.2778 35.9417 42.0655C30.5216 41.8861 25.5117 37.1737 25.6684 31.1533ZM45.7499 31.1656C45.811 26.0172 41.6518 21.6655 36.4149 21.6583C31.0691 21.6511 27.1308 26.0028 27.0046 30.8987C26.8621 36.4501 31.3012 40.5926 36.1748 40.6843C41.5867 40.7863 45.8507 36.2677 45.7489 31.1656H45.7499Z" fill="currentColor"></path><path d="M79.6157 31.4759C79.6157 30.5328 79.6157 29.5897 79.6157 28.6476C79.6157 27.7797 79.6177 26.9129 79.6096 26.045C79.6076 25.8574 79.6676 25.7863 79.8579 25.7884C80.5021 25.7966 81.1473 25.7956 81.7915 25.7884C81.9991 25.7863 82.0723 25.8688 82.0723 26.0801C82.0683 29.1887 82.0683 32.2984 82.0723 35.407C82.0723 35.6183 81.9991 35.7018 81.7925 35.6997C81.2073 35.6936 80.6222 35.6894 80.037 35.7018C79.8253 35.7059 79.7388 35.575 79.6473 35.4287C78.5553 33.6847 77.4644 31.9407 76.3724 30.1967C76.3337 30.1339 76.289 30.0751 76.2167 29.97C76.2055 30.0885 76.1933 30.1524 76.1933 30.2174C76.2045 31.8737 76.2147 33.5301 76.232 35.1864C76.2371 35.6966 76.2462 35.6966 75.7282 35.6966C75.1767 35.6966 74.6261 35.6905 74.0745 35.6997C73.8608 35.7039 73.7713 35.6379 73.7713 35.407C73.7764 32.2984 73.7764 29.1887 73.7713 26.0801C73.7713 25.8502 73.8578 25.7822 74.0725 25.7863C74.6231 25.7966 75.1746 25.7976 75.7262 25.7863C75.9318 25.7812 76.0508 25.8605 76.1567 26.0326C77.2313 27.7766 78.3121 29.5165 79.3918 31.2574C79.4437 31.3419 79.5048 31.4202 79.5618 31.5016C79.5801 31.4924 79.5984 31.4841 79.6167 31.4748L79.6157 31.4759ZM59.465 35.3812C59.4639 35.6121 59.526 35.7059 59.7631 35.7018C60.4246 35.6915 61.0861 35.6925 61.7466 35.7018C61.9623 35.7049 62.0458 35.6348 62.0427 35.405C62.0315 34.5639 62.0427 33.7218 62.0356 32.8807C62.0335 32.7014 62.0905 32.6468 62.2676 32.6426C62.868 32.6261 63.4705 32.62 64.0668 32.555C64.8189 32.4726 65.4895 32.1706 65.9973 31.582C66.7128 30.7513 66.956 29.7741 66.8318 28.6888C66.7077 27.6035 66.2009 26.7603 65.2667 26.2141C64.6327 25.843 63.9081 25.811 63.1988 25.7976C62.0712 25.776 60.9436 25.7915 59.8161 25.7925C59.4741 25.7925 59.4701 25.7976 59.4701 26.1337C59.4701 27.6622 59.4701 29.1908 59.4701 30.7193C59.4701 32.2736 59.4741 33.828 59.466 35.3823L59.465 35.3812ZM62.0458 28.2693C62.0488 28.2023 62.1363 28.0797 62.1791 28.0817C62.6991 28.1126 63.2273 28.1157 63.7341 28.2219C64.2185 28.3229 64.4403 28.7455 64.4088 29.2856C64.3803 29.7793 64.075 30.1875 63.6109 30.2503C63.1438 30.3132 62.6686 30.3101 62.1964 30.3163C62.1445 30.3163 62.0498 30.1916 62.0458 30.1205C62.0295 29.8133 62.0386 29.5041 62.0386 29.1949C62.0386 28.8867 62.0305 28.5775 62.0447 28.2693H62.0458ZM98.646 28.7496C98.8251 28.7537 98.8923 28.6733 98.877 28.5012C98.7824 27.4808 98.3895 26.6408 97.4848 26.0986C96.2362 25.3493 94.2853 25.4627 93.1191 26.4552C91.8328 27.5509 91.7066 29.7288 93.1791 30.7863C93.6615 31.1337 94.2273 31.3635 94.7616 31.6346C95.191 31.8521 95.6378 32.0355 96.0642 32.2602C96.3033 32.386 96.4397 32.6066 96.399 32.9003C96.3491 33.2621 96.0286 33.6146 95.7029 33.6692C95.2602 33.7434 94.8868 33.5765 94.7097 33.1848C94.6191 32.9869 94.5794 32.7632 94.5296 32.5488C94.498 32.4138 94.4461 32.3437 94.2924 32.3458C93.5974 32.353 92.9023 32.352 92.2072 32.3478C92.0017 32.3468 91.9345 32.455 91.9539 32.6406C91.9752 32.8457 92.0088 33.0487 92.0292 33.2528C92.138 34.3784 92.9267 35.3215 93.9912 35.6688C94.6873 35.8956 95.3935 35.8894 96.1029 35.8543C96.7012 35.8245 97.266 35.6451 97.7637 35.2905C98.6063 34.6896 98.9045 33.8238 98.9462 32.824C98.9859 31.8614 98.6236 31.1027 97.8553 30.5492C97.553 30.3318 97.2325 30.137 96.9027 29.9638C96.2881 29.6412 95.6541 29.3557 95.0425 29.0279C94.5703 28.7744 94.5753 28.2095 95.0292 27.9178C95.5543 27.5808 96.1741 27.8704 96.2962 28.528C96.3298 28.7084 96.4021 28.7537 96.5608 28.7506C96.8997 28.7445 97.2386 28.7486 97.5785 28.7486C97.9347 28.7486 98.2908 28.7434 98.647 28.7506L98.646 28.7496ZM84.009 35.3885C84.009 35.6049 84.07 35.7008 84.2959 35.7008C85.9832 35.6956 87.6705 35.6966 89.3578 35.7008C89.5562 35.7008 89.6234 35.6224 89.6193 35.4235C89.6092 34.8659 89.6163 34.3072 89.6153 33.7486C89.6153 33.4322 89.6041 33.4198 89.2825 33.4198C88.4602 33.4188 87.6369 33.4146 86.8147 33.4229C86.6244 33.4249 86.5602 33.3631 86.5653 33.1724C86.5765 32.8034 86.5775 32.4334 86.5653 32.0644C86.5582 31.8675 86.6315 31.816 86.8157 31.8181C87.6206 31.8263 88.4266 31.8181 89.2326 31.8242C89.4382 31.8263 89.5206 31.7531 89.5165 31.5387C89.5074 30.9636 89.5043 30.3874 89.5176 29.8123C89.5227 29.5917 89.4443 29.534 89.2397 29.5361C88.4256 29.5453 87.6115 29.5361 86.7973 29.5433C86.6213 29.5453 86.5582 29.4917 86.5653 29.3103C86.5775 28.9846 86.5786 28.6569 86.5653 28.3311C86.5572 28.1281 86.6264 28.0652 86.8269 28.0673C87.6491 28.0776 88.4724 28.0652 89.2947 28.0755C89.5298 28.0786 89.6285 28.0137 89.6203 27.755C89.6031 27.2149 89.6153 26.6727 89.6153 26.1316C89.6153 25.7976 89.6102 25.7915 89.2682 25.7915C87.6318 25.7915 85.9954 25.7915 84.359 25.7915C84.0283 25.7915 84.012 25.809 84.012 26.1388C84.012 27.6674 84.012 29.1959 84.012 30.7255C84.012 32.2798 84.0151 33.8341 84.009 35.3895V35.3885ZM56.5544 26.0708C56.5565 25.8615 56.4954 25.7832 56.2807 25.7873C55.662 25.7987 55.0432 25.7976 54.4245 25.7873C54.2332 25.7842 54.1141 25.8554 54.0052 26.0131C52.8583 27.6787 51.7144 29.3464 50.5492 30.9986C50.0933 31.6449 49.6221 32.2654 49.7972 33.1353C49.8267 33.2837 49.8012 33.4435 49.8012 33.5981C49.8012 33.8551 49.9284 33.9839 50.1829 33.9846C51.3949 33.9846 52.6069 33.9887 53.819 33.9815C54.0154 33.9805 54.0887 34.0351 54.0805 34.2423C54.0652 34.6278 54.0866 35.0153 54.0724 35.4008C54.0642 35.6276 54.1467 35.7039 54.3655 35.7008C55.0096 35.6915 55.6538 35.6915 56.298 35.7008C56.5046 35.7039 56.5595 35.6204 56.5544 35.4266C56.5443 35.0236 56.5585 34.6195 56.5483 34.2165C56.5433 34.0351 56.6074 33.9712 56.7834 33.9815C56.9859 33.9939 57.1905 33.9815 57.393 33.9846C57.5599 33.9877 57.6454 33.9156 57.6454 33.7403C57.6433 33.2085 57.6433 32.6756 57.6454 32.1438C57.6454 31.9809 57.5721 31.9108 57.4123 31.9149C57.2088 31.9201 57.0043 31.9026 56.8028 31.9201C56.5962 31.9376 56.5453 31.8572 56.5473 31.6583C56.5565 30.7317 56.5514 29.804 56.5514 28.8774C56.5514 27.9415 56.5463 27.0056 56.5555 26.0708H56.5544ZM54.2342 29.4536C54.2352 30.1813 54.226 30.909 54.2403 31.6367C54.2444 31.8706 54.166 31.9283 53.9482 31.9222C53.477 31.9077 53.0048 31.918 52.4634 31.918C53.0435 30.9842 53.5951 30.0968 54.1467 29.2103C54.1701 29.2186 54.1935 29.2258 54.2169 29.2341C54.223 29.3072 54.2332 29.3814 54.2332 29.4546L54.2342 29.4536ZM71.2994 26.1347C71.2994 25.7976 71.2943 25.7925 70.9544 25.7925C70.301 25.7915 69.6487 25.7987 68.9954 25.7884C68.7837 25.7853 68.7186 25.8564 68.7186 26.0698C68.7237 29.1866 68.7237 32.3046 68.7186 35.4214C68.7186 35.6327 68.7807 35.707 68.9944 35.7039C69.6558 35.6925 70.3173 35.6894 70.9778 35.7039C71.2414 35.71 71.3055 35.6111 71.3034 35.3575C71.2933 33.829 71.2983 32.3004 71.2983 30.7719C71.2983 29.2258 71.2983 27.6808 71.2983 26.1347H71.2994ZM58.5145 40.1421C58.9358 40.743 59.3551 41.345 59.7743 41.9469C60.1153 42.4365 60.4633 42.923 60.793 43.4208C60.9396 43.6424 61.1502 43.6187 61.3334 43.5693C61.4056 43.5497 61.4657 43.3394 61.4667 43.2157C61.4759 41.9026 61.4708 40.5895 61.4749 39.2753C61.4749 39.065 61.4402 38.9362 61.1838 38.9383C60.9365 38.9403 60.8887 39.0496 60.8907 39.2701C60.8989 40.2658 60.8948 41.2615 60.8938 42.2572C60.8938 42.3386 60.8866 42.42 60.8795 42.5705C60.791 42.454 60.7401 42.3912 60.6943 42.3252C60.1621 41.5625 59.6308 40.7987 59.0996 40.036C58.8849 39.7278 58.6692 39.4206 58.4615 39.1073C58.3181 38.8908 58.1044 38.9279 57.912 38.964C57.8479 38.9764 57.7655 39.1258 57.7644 39.2135C57.7553 40.5864 57.7594 41.9603 57.7563 43.3343C57.7563 43.5198 57.8275 43.594 58.0128 43.594C58.3252 43.594 58.3557 43.5734 58.3557 43.2436C58.3557 42.1654 58.3557 41.0863 58.3557 39.9525C58.429 40.0411 58.4758 40.0885 58.5135 40.1432L58.5145 40.1421ZM62.5129 43.3363C62.5108 43.5167 62.5566 43.6002 62.7551 43.595C63.2201 43.5827 63.6883 43.6177 64.1513 43.5847C65.0448 43.5218 65.7653 43.1436 66.0564 42.2345C66.1836 41.8387 66.2049 41.3934 66.2039 40.9708C66.2009 40.0432 65.4844 39.166 64.5848 39.031C63.9956 38.9424 63.3901 38.9754 62.7917 38.9424C62.581 38.931 62.5088 39.0063 62.5118 39.2207C62.521 39.9061 62.5149 40.5926 62.5159 41.279C62.5169 41.9655 62.52 42.6509 62.5129 43.3374V43.3363ZM63.0644 42.7983C63.0634 41.7779 63.0675 40.7564 63.0604 39.736C63.0594 39.5423 63.1001 39.4474 63.3117 39.4722C63.7463 39.5216 64.2022 39.4917 64.6123 39.6185C65.2382 39.8113 65.5201 40.3359 65.6198 40.976C65.7511 41.8191 65.4539 42.5416 64.7884 42.8787C64.5981 42.9745 64.3732 43.0261 64.1605 43.0426C63.8094 43.0694 63.4542 43.0498 63.0838 43.0498C63.0756 42.9488 63.0655 42.8735 63.0655 42.7993L63.0644 42.7983ZM80.1021 40.8265C80.2813 40.2174 79.978 39.1557 79.0306 39.032C78.4301 38.9537 77.8175 38.9692 77.21 38.9475C77.0461 38.9413 76.9912 39.0454 76.9912 39.198C76.9912 40.5977 76.9932 41.9964 76.9912 43.3961C76.9912 43.6538 77.1753 43.5919 77.3158 43.595C77.4522 43.5981 77.6201 43.6404 77.6109 43.3982C77.6018 43.1498 77.6089 42.9003 77.6089 42.6509C77.6089 41.6892 77.6058 40.7276 77.615 39.7669C77.615 39.6824 77.6984 39.5278 77.7452 39.5268C78.1055 39.5185 78.4698 39.5103 78.825 39.5608C79.3725 39.6381 79.5689 40.1246 79.5658 40.5493C79.5618 41.0739 79.2158 41.4439 78.711 41.5016C78.5299 41.5223 78.3467 41.5315 78.1238 41.5491C78.1727 41.6686 78.194 41.7583 78.2408 41.8315C78.5512 42.3221 78.8647 42.8096 79.1801 43.2972C79.3939 43.627 79.5496 43.6765 79.9749 43.5332C79.8019 43.2621 79.635 43.0003 79.4671 42.7395C79.2972 42.4757 79.1252 42.2139 78.941 41.9304C79.7846 41.5831 79.918 41.4573 80.1021 40.8286V40.8265ZM88.5467 38.9383C87.468 39.1846 86.6101 40.2102 86.7546 41.5387C86.8828 42.723 87.7702 43.5858 88.9426 43.6672C90.0223 43.7414 91.0929 43.0889 91.214 42.3417C90.9026 42.217 90.7052 42.252 90.4976 42.487C90.1475 42.8838 89.7099 43.1188 89.1909 43.1395C87.8649 43.1931 86.9276 41.8531 87.3978 40.5977C87.8801 39.3114 89.6234 39.0032 90.467 40.0689C90.6909 40.3524 90.9342 40.2967 91.2293 40.2648C90.9504 39.4402 89.9022 38.628 88.5447 38.9383H88.5467ZM53.4638 42.1922C53.4699 42.3757 53.5065 42.5695 53.5778 42.7375C53.8566 43.3971 54.5425 43.7785 55.2223 43.6744C55.9652 43.561 56.4771 43.0312 56.5504 42.2716C56.5758 42.0005 56.5504 41.7253 56.5504 41.4522C56.5504 40.7049 56.5534 39.9587 56.5453 39.2114C56.5453 39.1248 56.5005 38.9877 56.4395 38.9609C56.1545 38.8341 55.9662 38.9723 55.9652 39.2877C55.9642 40.1463 55.9683 41.0048 55.9622 41.8634C55.9612 42.051 55.9408 42.2417 55.9011 42.4241C55.782 42.9735 55.2223 43.2734 54.7043 43.0755C54.2708 42.9106 54.05 42.5076 54.0612 41.9902C54.0805 41.0636 54.0734 40.137 54.0846 39.2093C54.0876 38.9341 53.9116 38.9506 53.7243 38.9413C53.5269 38.931 53.4516 39.0011 53.4557 39.2052C53.4648 39.7206 53.4587 40.2349 53.4587 40.7503C53.4587 41.2306 53.4485 41.7119 53.4638 42.1922ZM98.014 43.6424C98.6033 43.4229 98.9655 42.8921 98.9645 42.2871C98.9635 41.7119 98.6531 41.3264 98.0069 41.0729C97.6843 40.9461 97.3607 40.8183 97.0544 40.6595C96.8376 40.5472 96.7236 40.3328 96.7613 40.0793C96.8071 39.769 97.1022 39.4917 97.3943 39.4567C97.7637 39.4124 98.0486 39.5649 98.2074 39.8927C98.3132 40.1112 98.5198 40.206 98.7315 40.1102C98.7864 40.0854 98.8536 39.9679 98.8373 39.9216C98.7681 39.7226 98.6969 39.5134 98.5758 39.3474C98.2654 38.9228 97.8105 38.8445 97.3251 38.8857C96.7786 38.9321 96.3003 39.3464 96.2056 39.8463C96.0774 40.5225 96.2698 40.9543 96.8641 41.2378C97.1826 41.3893 97.5276 41.4852 97.8543 41.6212C98.3102 41.8129 98.4862 42.2067 98.3142 42.6148C98.1311 43.0498 97.6426 43.257 97.2203 43.0838C96.919 42.9601 96.7552 42.7261 96.6758 42.42C96.6453 42.3046 96.6117 42.2221 96.4621 42.2211C96.1273 42.217 96.0265 42.3448 96.1314 42.6839C96.2952 43.2106 96.7827 43.7527 97.5195 43.727C97.6853 43.7002 97.8614 43.7002 98.0151 43.6424H98.014ZM70.9391 38.8816C70.297 38.896 69.8227 39.3062 69.6792 39.9721C69.5663 40.4977 69.84 40.9976 70.4181 41.2605C70.7407 41.4068 71.0897 41.4934 71.4123 41.6387C71.8133 41.8181 71.9761 42.2015 71.8377 42.5612C71.6881 42.9488 71.3533 43.1776 70.9778 43.1498C70.6155 43.123 70.2878 42.8313 70.1911 42.4489C70.1372 42.2386 69.9479 42.1541 69.6762 42.2345C69.4584 42.2984 69.5531 42.4674 69.5856 42.5952C69.7301 43.1601 70.0914 43.5084 70.646 43.6589C71.3798 43.8579 72.2224 43.4415 72.3842 42.7096C72.5368 42.0201 72.4849 41.4635 71.5141 41.076C71.1935 40.9481 70.8679 40.8265 70.5636 40.6637C70.3061 40.5266 70.2186 40.2256 70.3102 39.9782C70.4679 39.5557 70.9625 39.3454 71.3502 39.568C71.5019 39.6546 71.6189 39.8154 71.7268 39.9618C71.8336 40.1071 72.087 40.205 72.255 40.1164C72.4432 40.0164 72.3384 39.8463 72.2977 39.7288C72.1277 39.2454 71.7054 38.8558 71.0419 38.8836C71.0083 38.8836 70.9737 38.8836 70.9401 38.8836L70.9391 38.8816ZM73.3642 43.2992C73.3612 43.5229 73.4405 43.5981 73.6614 43.594C74.331 43.5827 75.0006 43.5847 75.6692 43.593C75.8666 43.595 75.9664 43.5425 75.9664 43.3198C75.9664 43.0982 75.8687 43.0426 75.6702 43.0457C75.1624 43.0539 74.6536 43.0457 74.1448 43.0498C74.0125 43.0508 73.9402 43.023 73.9433 42.8663C73.9514 42.4798 73.9514 42.0943 73.9433 41.7078C73.9402 41.5491 74.0165 41.5254 74.1468 41.5264C74.6465 41.5305 75.1471 41.5192 75.6468 41.5315C75.8636 41.5367 75.9277 41.4501 75.9267 41.245C75.9257 41.0419 75.8422 40.9791 75.6489 40.9832C75.1492 40.9935 74.6485 40.9822 74.1488 40.9894C73.9952 40.9914 73.9392 40.942 73.9433 40.7832C73.9524 40.4318 73.9585 40.0793 73.9412 39.7278C73.931 39.5185 74.0043 39.4649 74.2007 39.4691C74.7085 39.4814 75.2174 39.4711 75.7262 39.4742C75.8738 39.4742 75.9623 39.4412 75.9664 39.2609C75.9725 39.029 75.889 38.9372 75.655 38.9403C74.9945 38.9496 74.333 38.9517 73.6726 38.9393C73.4344 38.9352 73.3612 39.0279 73.3642 39.2567C73.3723 39.9257 73.3673 40.5956 73.3673 41.2646C73.3673 41.9428 73.3734 42.621 73.3642 43.2982V43.2992ZM93.2575 41.5295C93.7745 41.5295 94.2914 41.5223 94.8084 41.5315C95.0038 41.5346 95.0577 41.446 95.0587 41.2687C95.0587 41.0873 95.0201 40.9708 94.8043 40.9842C94.5937 40.9976 94.381 40.9873 94.1693 40.9873C93.8172 40.9873 93.4651 40.9873 93.0865 40.9873C93.0865 40.5297 93.0926 40.1112 93.0835 39.6927C93.0794 39.5247 93.1333 39.468 93.3012 39.4711C93.8009 39.4804 94.3006 39.4732 94.8013 39.4753C94.961 39.4753 95.1056 39.4866 95.1025 39.2454C95.0994 39.0228 95.017 38.9403 94.7992 38.9424C94.1296 38.9496 93.461 38.9506 92.7914 38.9424C92.5858 38.9393 92.4993 39.0104 92.5003 39.2227C92.5044 40.5874 92.5054 41.9521 92.5003 43.3157C92.5003 43.5291 92.5797 43.5971 92.7873 43.594C93.4569 43.5837 94.1255 43.5868 94.7952 43.593C94.9834 43.595 95.0994 43.562 95.1025 43.3301C95.1056 43.092 94.9967 43.0415 94.7901 43.0457C94.2904 43.0549 93.7907 43.0539 93.2911 43.0426C93.2229 43.0415 93.0997 42.9653 93.0987 42.9209C93.0845 42.4685 93.0896 42.016 93.0896 41.5439C93.1761 41.5357 93.2178 41.5295 93.2595 41.5284L93.2575 41.5295ZM82.6046 42.6643C82.4336 42.2211 82.2606 41.7779 82.0917 41.3336C81.8128 40.6008 81.5391 39.8659 81.2582 39.1331C81.1921 38.9599 80.9 38.8609 80.7097 38.9578C80.5265 39.0516 80.6456 39.1939 80.6914 39.3114C81.2114 40.6482 81.7396 41.982 82.2514 43.3219C82.3237 43.5115 82.4082 43.595 82.6137 43.5961C82.8173 43.5961 82.9343 43.5456 83.0137 43.3363C83.3292 42.4973 83.665 41.6655 83.9927 40.8317C84.1993 40.3081 84.4099 39.7855 84.6073 39.2578C84.6389 39.1743 84.646 39.032 84.5972 38.9774C84.4791 38.8455 84.0832 38.965 84.014 39.1403C83.9011 39.4258 83.7973 39.7154 83.6874 40.002C83.3475 40.8863 83.0066 41.7696 82.6667 42.654C82.6463 42.6571 82.626 42.6602 82.6046 42.6633V42.6643ZM50.7466 39.6979C50.7405 39.5072 50.8179 39.468 50.9858 39.4722C51.4091 39.4814 51.8325 39.4753 52.2558 39.4753C52.4105 39.4753 52.5642 39.4969 52.5611 39.2506C52.5591 39.0331 52.4858 38.9393 52.264 38.9424C51.6544 38.9506 51.0438 38.9506 50.4342 38.9424C50.2337 38.9393 50.1635 39.0238 50.1635 39.2176C50.1666 40.5905 50.1686 41.9634 50.1625 43.3353C50.1615 43.594 50.3091 43.5858 50.4932 43.5961C50.7009 43.6074 50.7568 43.5249 50.7528 43.3281C50.7436 42.8137 50.7568 42.2984 50.7456 41.7841C50.7416 41.5975 50.7894 41.5253 50.9858 41.5315C51.4091 41.546 51.8325 41.5274 52.2558 41.5387C52.4543 41.5439 52.5265 41.4759 52.5215 41.2728C52.5164 41.0718 52.4624 40.977 52.2426 40.9832C51.7613 40.9966 51.2789 40.9873 50.7487 40.9873C50.7487 40.5338 50.7578 40.1153 50.7446 39.6969L50.7466 39.6979ZM84.9015 43.3178C84.8984 43.5301 84.9645 43.6022 85.1772 43.5971C85.3777 43.593 85.4947 43.5631 85.4937 43.3198C85.4866 41.9552 85.4876 40.5905 85.4937 39.2258C85.4937 38.9908 85.3859 38.9434 85.1793 38.9393C84.9645 38.9352 84.8994 39.0135 84.9025 39.2238C84.9116 39.902 84.9055 40.5802 84.9055 41.2584C84.9055 41.9449 84.9116 42.6313 84.9015 43.3178Z" fill="currentColor"></path><path d="M41.5673 32.6396C40.4794 31.2131 39.4353 29.8423 38.3912 28.4724L38.323 28.4972C38.3169 28.6033 38.3057 28.7095 38.3057 28.8157C38.3057 31.3306 38.3057 33.8466 38.3057 36.3615C38.3057 36.6302 38.1694 36.7646 37.8966 36.7646C37.6595 36.7646 37.4214 36.7522 37.1853 36.7676C36.9563 36.7831 36.8739 36.6852 36.9013 36.4667C36.9024 36.4584 36.9013 36.4492 36.9013 36.4409C36.9013 33.1014 36.9013 29.7619 36.9013 26.4223C36.9013 25.9616 37.0876 25.6957 37.4814 25.6101C37.801 25.5401 38.031 25.6885 38.2213 25.94C39.0089 26.982 39.8007 28.0189 40.5904 29.0589C41.5551 30.3298 42.5209 31.6007 43.4836 32.8726C43.6423 33.0828 43.7472 33.3096 43.6515 33.5869C43.5345 33.926 43.277 34.0754 42.9503 34.0795C41.781 34.0909 40.6107 34.0816 39.4414 34.0878C39.2583 34.0878 39.2053 34.0095 39.2084 33.8404C39.2145 33.5312 39.2165 33.222 39.2084 32.9138C39.2033 32.7272 39.2705 32.6561 39.4608 32.6592C40.0622 32.6685 40.6647 32.6633 41.2661 32.6613C41.3404 32.6613 41.4137 32.651 41.5683 32.6396H41.5673ZM34.2544 28.6013C34.2636 28.6971 34.2809 28.793 34.2809 28.8889C34.2829 29.7815 34.287 30.6741 34.2788 31.5677C34.2768 31.78 34.3511 31.8604 34.5607 31.8522C34.8569 31.8408 35.154 31.8429 35.4502 31.8522C35.616 31.8573 35.672 31.7914 35.671 31.6254C35.6669 29.8402 35.671 28.054 35.6669 26.2688C35.6669 25.9554 35.4675 25.7163 35.1744 25.6308C34.805 25.5236 34.5567 25.7008 34.3501 25.9812C33.6265 26.9635 32.904 27.9468 32.1804 28.9291C31.2075 30.2473 30.2316 31.5646 29.2607 32.8839C29.0786 33.1323 28.9992 33.4044 29.1641 33.6982C29.3116 33.961 29.5477 34.0826 29.8367 34.0826C31.812 34.0857 33.7863 34.0826 35.7616 34.0878C35.9417 34.0878 36.0007 34.0156 35.9977 33.8435C35.9916 33.5518 35.9865 33.2591 35.9997 32.9684C36.0109 32.7396 35.9407 32.6551 35.6985 32.6572C34.3175 32.6685 32.9355 32.6633 31.5535 32.6623C31.4487 32.6623 31.3439 32.652 31.176 32.6438C32.2048 31.2554 33.195 29.9175 34.1852 28.5807C34.2086 28.5879 34.232 28.5951 34.2554 28.6023L34.2544 28.6013ZM35.669 35.8864C35.669 35.6638 35.6639 35.4411 35.671 35.2185C35.6761 35.0701 35.6283 34.9969 35.4695 35C35.1479 35.0062 34.8263 35.0041 34.5058 35.001C34.3633 35 34.2819 35.0515 34.2829 35.2092C34.286 35.6545 34.2839 36.0997 34.2839 36.545C34.2839 36.6903 34.347 36.7666 34.4986 36.7646C34.8284 36.7615 35.1591 36.7728 35.4878 36.7553C35.5509 36.7522 35.6547 36.646 35.6608 36.579C35.6822 36.3502 35.669 36.1173 35.669 35.8864Z" fill="currentColor"></path></svg>